M48
; DRILL file {KiCad 7.0.9} date Sun Jan 14 19:33:28 2024
; FORMAT={-:-/ absolute / inch / decimal}
; #@! TF.CreationDate,2024-01-14T19:33:28+01:00
; #@! TF.GenerationSoftware,Kicad,Pcbnew,7.0.9
; #@! TF.FileFunction,NonPlated,1,2,NPTH
FMAT,2
INCH
; #@! TA.AperFunction,NonPlated,NPTH,ComponentDrill
T1C0.0256
; #@! TA.AperFunction,NonPlated,NPTH,ComponentDrill
T2C0.0512
; #@! TA.AperFunction,NonPlated,NPTH,ComponentDrill
T3C0.0669
; #@! TA.AperFunction,NonPlated,NPTH,ComponentDrill
T4C0.0866
; #@! TA.AperFunction,NonPlated,NPTH,ComponentDrill
T5C0.1201
; #@! TA.AperFunction,NonPlated,NPTH,ComponentDrill
T6C0.1575
%
G90
G05
T1
X-0.3797Y-0.951
X-0.1521Y-0.951
T2
X-1.7559Y-0.8484
X-1.7559Y-1.124
X2.1063Y-0.8484
X2.1063Y-1.124
T3
X-2.272Y-1.7154
X-2.1782Y-4.7154
X-2.0845Y-2.4654
X-1.9907Y-3.2154
X-1.872Y-1.7154
X-1.8003Y-3.9654
X-1.7782Y-4.7154
X-1.6845Y-2.4654
X-1.5907Y-3.2154
X-1.522Y-1.7154
X-1.4003Y-3.9654
X-1.2407Y-4.7154
X-1.147Y-2.4654
X-1.122Y-1.7154
X-0.9595Y-3.2154
X-0.8407Y-4.7154
X-0.772Y-1.7154
X-0.747Y-2.4654
X-0.5845Y-3.9654
X-0.5595Y-3.2154
X-0.397Y-2.4654
X-0.372Y-1.7154
X-0.3032Y-4.7154
X-0.2095Y-3.2154
X-0.1845Y-3.9654
X-0.022Y-1.7154
X0.003Y-2.4654
X0.0968Y-4.7154
X0.1655Y-3.9654
X0.1905Y-3.2154
X0.353Y-2.4654
X0.378Y-1.7154
X0.5405Y-3.2154
X0.5405Y-4.7154
X0.5655Y-3.9654
X0.728Y-1.7154
X0.753Y-2.4654
X0.9155Y-3.9654
X0.9405Y-3.2154
X0.9405Y-4.7154
X1.103Y-2.4654
X1.128Y-1.7154
X1.2905Y-3.2154
X1.3155Y-3.9654
X1.478Y-1.7154
X1.503Y-2.4654
X1.6655Y-3.9654
X1.6905Y-3.2154
X1.7622Y-4.7154
X1.853Y-2.4654
X1.878Y-1.7154
X2.0405Y-3.2154
X2.0655Y-3.9654
X2.1622Y-4.7154
X2.228Y-1.7154
X2.253Y-2.4654
X2.4155Y-3.9654
X2.4405Y-3.2154
X2.603Y-2.4654
X2.628Y-1.7154
X2.7905Y-3.2154
X2.8155Y-3.9654
X3.003Y-2.4654
X3.1905Y-3.2154
T4
X-2.3012Y-4.3368
X-2.2854Y-5.1046
X-2.2815Y-0.9313
X-1.3366Y-2.128
X-1.2126Y-2.9213
X-0.8189Y-3.7618
X0.3622Y-2.8701
X0.9291Y-2.1201
X1.1476Y-4.7087
X2.6142Y-2.8605
X2.6378Y-0.9313
X2.6791Y-5.1046
T5
X-2.0688Y-3.6898
X-1.1318Y-3.6898
X1.4937Y-4.4398
X2.4307Y-4.4398
T6
X-2.072Y-1.7154
X-2.0688Y-4.2898
X-1.9782Y-4.7154
X-1.8845Y-2.4654
X-1.7907Y-3.2154
X-1.6003Y-3.9654
X-1.322Y-1.7154
X-1.1318Y-4.2898
X-1.0407Y-4.7154
X-0.947Y-2.4654
X-0.7595Y-3.2154
X-0.572Y-1.7154
X-0.3845Y-3.9654
X-0.197Y-2.4654
X-0.1032Y-4.7154
X-0.0095Y-3.2154
X0.178Y-1.7154
X0.3655Y-3.9654
X0.553Y-2.4654
X0.7405Y-3.2154
X0.7405Y-4.7154
X0.928Y-1.7154
X1.1155Y-3.9654
X1.303Y-2.4654
X1.4905Y-3.2154
X1.4937Y-5.0398
X1.678Y-1.7154
X1.8655Y-3.9654
X1.9622Y-4.7154
X2.053Y-2.4654
X2.2405Y-3.2154
X2.428Y-1.7154
X2.4307Y-5.0398
X2.6155Y-3.9654
X2.803Y-2.4654
X2.9905Y-3.2154
T0
M30
