%TF.GenerationSoftware,KiCad,Pcbnew,7.0.9*%
%TF.CreationDate,2024-01-14T19:33:28+01:00*%
%TF.ProjectId,left_pcb,6c656674-5f70-4636-922e-6b696361645f,rev?*%
%TF.SameCoordinates,Original*%
%TF.FileFunction,Legend,Bot*%
%TF.FilePolarity,Positive*%
%FSLAX46Y46*%
G04 Gerber Fmt 4.6, Leading zero omitted, Abs format (unit mm)*
G04 Created by KiCad (PCBNEW 7.0.9) date 2024-01-14 19:33:28*
%MOMM*%
%LPD*%
G01*
G04 APERTURE LIST*
G04 Aperture macros list*
%AMRoundRect*
0 Rectangle with rounded corners*
0 $1 Rounding radius*
0 $2 $3 $4 $5 $6 $7 $8 $9 X,Y pos of 4 corners*
0 Add a 4 corners polygon primitive as box body*
4,1,4,$2,$3,$4,$5,$6,$7,$8,$9,$2,$3,0*
0 Add four circle primitives for the rounded corners*
1,1,$1+$1,$2,$3*
1,1,$1+$1,$4,$5*
1,1,$1+$1,$6,$7*
1,1,$1+$1,$8,$9*
0 Add four rect primitives between the rounded corners*
20,1,$1+$1,$2,$3,$4,$5,0*
20,1,$1+$1,$4,$5,$6,$7,0*
20,1,$1+$1,$6,$7,$8,$9,0*
20,1,$1+$1,$8,$9,$2,$3,0*%
G04 Aperture macros list end*
%ADD10C,0.150000*%
%ADD11C,0.100000*%
%ADD12C,0.120000*%
%ADD13C,1.700000*%
%ADD14C,4.000000*%
%ADD15C,2.200000*%
%ADD16R,1.700000X1.700000*%
%ADD17O,1.700000X1.700000*%
%ADD18C,3.050000*%
%ADD19RoundRect,0.125000X0.125000X-0.125000X0.125000X0.125000X-0.125000X0.125000X-0.125000X-0.125000X0*%
%ADD20RoundRect,0.140000X-0.140000X-0.170000X0.140000X-0.170000X0.140000X0.170000X-0.140000X0.170000X0*%
%ADD21RoundRect,0.237500X-0.237500X0.250000X-0.237500X-0.250000X0.237500X-0.250000X0.237500X0.250000X0*%
%ADD22RoundRect,0.140000X-0.170000X0.140000X-0.170000X-0.140000X0.170000X-0.140000X0.170000X0.140000X0*%
%ADD23C,1.300000*%
%ADD24RoundRect,0.400000X0.750000X0.400000X-0.750000X0.400000X-0.750000X-0.400000X0.750000X-0.400000X0*%
%ADD25RoundRect,0.140000X0.140000X0.170000X-0.140000X0.170000X-0.140000X-0.170000X0.140000X-0.170000X0*%
%ADD26RoundRect,0.135000X-0.185000X0.135000X-0.185000X-0.135000X0.185000X-0.135000X0.185000X0.135000X0*%
%ADD27RoundRect,0.150000X0.587500X0.150000X-0.587500X0.150000X-0.587500X-0.150000X0.587500X-0.150000X0*%
%ADD28RoundRect,0.140000X-0.219203X-0.021213X-0.021213X-0.219203X0.219203X0.021213X0.021213X0.219203X0*%
%ADD29RoundRect,0.200000X-0.200000X-0.275000X0.200000X-0.275000X0.200000X0.275000X-0.200000X0.275000X0*%
%ADD30RoundRect,0.140000X0.170000X-0.140000X0.170000X0.140000X-0.170000X0.140000X-0.170000X-0.140000X0*%
%ADD31R,1.700000X1.000000*%
%ADD32C,0.650000*%
%ADD33R,0.600000X1.450000*%
%ADD34R,0.300000X1.450000*%
%ADD35O,1.000000X1.600000*%
%ADD36O,1.000000X2.100000*%
%ADD37R,1.000000X1.700000*%
%ADD38R,1.200000X1.400000*%
%ADD39RoundRect,0.250000X-0.625000X0.375000X-0.625000X-0.375000X0.625000X-0.375000X0.625000X0.375000X0*%
%ADD40RoundRect,0.050000X-0.050000X0.387500X-0.050000X-0.387500X0.050000X-0.387500X0.050000X0.387500X0*%
%ADD41RoundRect,0.050000X-0.387500X0.050000X-0.387500X-0.050000X0.387500X-0.050000X0.387500X0.050000X0*%
%ADD42RoundRect,0.144000X-1.456000X1.456000X-1.456000X-1.456000X1.456000X-1.456000X1.456000X1.456000X0*%
%ADD43RoundRect,0.135000X0.135000X0.185000X-0.135000X0.185000X-0.135000X-0.185000X0.135000X-0.185000X0*%
%ADD44RoundRect,0.150000X-0.150000X0.650000X-0.150000X-0.650000X0.150000X-0.650000X0.150000X0.650000X0*%
%ADD45RoundRect,0.237500X0.237500X-0.250000X0.237500X0.250000X-0.237500X0.250000X-0.237500X-0.250000X0*%
%ADD46RoundRect,0.135000X0.185000X-0.135000X0.185000X0.135000X-0.185000X0.135000X-0.185000X-0.135000X0*%
%ADD47RoundRect,0.140000X0.021213X-0.219203X0.219203X-0.021213X-0.021213X0.219203X-0.219203X0.021213X0*%
%ADD48RoundRect,0.150000X0.150000X-0.512500X0.150000X0.512500X-0.150000X0.512500X-0.150000X-0.512500X0*%
G04 APERTURE END LIST*
D10*
X-36680581Y-80928093D02*
X-35966296Y-80928093D01*
X-35966296Y-80928093D02*
X-35823439Y-80880474D01*
X-35823439Y-80880474D02*
X-35728200Y-80785236D01*
X-35728200Y-80785236D02*
X-35680581Y-80642379D01*
X-35680581Y-80642379D02*
X-35680581Y-80547141D01*
X-35680581Y-81880474D02*
X-35680581Y-81404284D01*
X-35680581Y-81404284D02*
X-36680581Y-81404284D01*
X-35775820Y-82785236D02*
X-35728200Y-82737617D01*
X-35728200Y-82737617D02*
X-35680581Y-82594760D01*
X-35680581Y-82594760D02*
X-35680581Y-82499522D01*
X-35680581Y-82499522D02*
X-35728200Y-82356665D01*
X-35728200Y-82356665D02*
X-35823439Y-82261427D01*
X-35823439Y-82261427D02*
X-35918677Y-82213808D01*
X-35918677Y-82213808D02*
X-36109153Y-82166189D01*
X-36109153Y-82166189D02*
X-36252010Y-82166189D01*
X-36252010Y-82166189D02*
X-36442486Y-82213808D01*
X-36442486Y-82213808D02*
X-36537724Y-82261427D01*
X-36537724Y-82261427D02*
X-36632962Y-82356665D01*
X-36632962Y-82356665D02*
X-36680581Y-82499522D01*
X-36680581Y-82499522D02*
X-36680581Y-82594760D01*
X-36680581Y-82594760D02*
X-36632962Y-82737617D01*
X-36632962Y-82737617D02*
X-36585343Y-82785236D01*
X-36680581Y-83499522D02*
X-35966296Y-83499522D01*
X-35966296Y-83499522D02*
X-35823439Y-83451903D01*
X-35823439Y-83451903D02*
X-35728200Y-83356665D01*
X-35728200Y-83356665D02*
X-35680581Y-83213808D01*
X-35680581Y-83213808D02*
X-35680581Y-83118570D01*
X-35680581Y-84451903D02*
X-35680581Y-83975713D01*
X-35680581Y-83975713D02*
X-36680581Y-83975713D01*
X-35775820Y-85356665D02*
X-35728200Y-85309046D01*
X-35728200Y-85309046D02*
X-35680581Y-85166189D01*
X-35680581Y-85166189D02*
X-35680581Y-85070951D01*
X-35680581Y-85070951D02*
X-35728200Y-84928094D01*
X-35728200Y-84928094D02*
X-35823439Y-84832856D01*
X-35823439Y-84832856D02*
X-35918677Y-84785237D01*
X-35918677Y-84785237D02*
X-36109153Y-84737618D01*
X-36109153Y-84737618D02*
X-36252010Y-84737618D01*
X-36252010Y-84737618D02*
X-36442486Y-84785237D01*
X-36442486Y-84785237D02*
X-36537724Y-84832856D01*
X-36537724Y-84832856D02*
X-36632962Y-84928094D01*
X-36632962Y-84928094D02*
X-36680581Y-85070951D01*
X-36680581Y-85070951D02*
X-36680581Y-85166189D01*
X-36680581Y-85166189D02*
X-36632962Y-85309046D01*
X-36632962Y-85309046D02*
X-36585343Y-85356665D01*
X-36680581Y-86070951D02*
X-35966296Y-86070951D01*
X-35966296Y-86070951D02*
X-35823439Y-86023332D01*
X-35823439Y-86023332D02*
X-35728200Y-85928094D01*
X-35728200Y-85928094D02*
X-35680581Y-85785237D01*
X-35680581Y-85785237D02*
X-35680581Y-85689999D01*
X-35680581Y-87023332D02*
X-35680581Y-86547142D01*
X-35680581Y-86547142D02*
X-36680581Y-86547142D01*
X-35775820Y-87928094D02*
X-35728200Y-87880475D01*
X-35728200Y-87880475D02*
X-35680581Y-87737618D01*
X-35680581Y-87737618D02*
X-35680581Y-87642380D01*
X-35680581Y-87642380D02*
X-35728200Y-87499523D01*
X-35728200Y-87499523D02*
X-35823439Y-87404285D01*
X-35823439Y-87404285D02*
X-35918677Y-87356666D01*
X-35918677Y-87356666D02*
X-36109153Y-87309047D01*
X-36109153Y-87309047D02*
X-36252010Y-87309047D01*
X-36252010Y-87309047D02*
X-36442486Y-87356666D01*
X-36442486Y-87356666D02*
X-36537724Y-87404285D01*
X-36537724Y-87404285D02*
X-36632962Y-87499523D01*
X-36632962Y-87499523D02*
X-36680581Y-87642380D01*
X-36680581Y-87642380D02*
X-36680581Y-87737618D01*
X-36680581Y-87737618D02*
X-36632962Y-87880475D01*
X-36632962Y-87880475D02*
X-36585343Y-87928094D01*
X-36680581Y-88642380D02*
X-35966296Y-88642380D01*
X-35966296Y-88642380D02*
X-35823439Y-88594761D01*
X-35823439Y-88594761D02*
X-35728200Y-88499523D01*
X-35728200Y-88499523D02*
X-35680581Y-88356666D01*
X-35680581Y-88356666D02*
X-35680581Y-88261428D01*
X-35680581Y-89594761D02*
X-35680581Y-89118571D01*
X-35680581Y-89118571D02*
X-36680581Y-89118571D01*
X-35775820Y-90499523D02*
X-35728200Y-90451904D01*
X-35728200Y-90451904D02*
X-35680581Y-90309047D01*
X-35680581Y-90309047D02*
X-35680581Y-90213809D01*
X-35680581Y-90213809D02*
X-35728200Y-90070952D01*
X-35728200Y-90070952D02*
X-35823439Y-89975714D01*
X-35823439Y-89975714D02*
X-35918677Y-89928095D01*
X-35918677Y-89928095D02*
X-36109153Y-89880476D01*
X-36109153Y-89880476D02*
X-36252010Y-89880476D01*
X-36252010Y-89880476D02*
X-36442486Y-89928095D01*
X-36442486Y-89928095D02*
X-36537724Y-89975714D01*
X-36537724Y-89975714D02*
X-36632962Y-90070952D01*
X-36632962Y-90070952D02*
X-36680581Y-90213809D01*
X-36680581Y-90213809D02*
X-36680581Y-90309047D01*
X-36680581Y-90309047D02*
X-36632962Y-90451904D01*
X-36632962Y-90451904D02*
X-36585343Y-90499523D01*
X45860588Y-27182561D02*
X45765350Y-27230180D01*
X45765350Y-27230180D02*
X45622493Y-27230180D01*
X45622493Y-27230180D02*
X45479636Y-27182561D01*
X45479636Y-27182561D02*
X45384398Y-27087323D01*
X45384398Y-27087323D02*
X45336779Y-26992085D01*
X45336779Y-26992085D02*
X45289160Y-26801609D01*
X45289160Y-26801609D02*
X45289160Y-26658752D01*
X45289160Y-26658752D02*
X45336779Y-26468276D01*
X45336779Y-26468276D02*
X45384398Y-26373038D01*
X45384398Y-26373038D02*
X45479636Y-26277800D01*
X45479636Y-26277800D02*
X45622493Y-26230180D01*
X45622493Y-26230180D02*
X45717731Y-26230180D01*
X45717731Y-26230180D02*
X45860588Y-26277800D01*
X45860588Y-26277800D02*
X45908207Y-26325419D01*
X45908207Y-26325419D02*
X45908207Y-26658752D01*
X45908207Y-26658752D02*
X45717731Y-26658752D01*
X46336779Y-26230180D02*
X46336779Y-27230180D01*
X46336779Y-27230180D02*
X46908207Y-26230180D01*
X46908207Y-26230180D02*
X46908207Y-27230180D01*
X47384398Y-26230180D02*
X47384398Y-27230180D01*
X47384398Y-27230180D02*
X47622493Y-27230180D01*
X47622493Y-27230180D02*
X47765350Y-27182561D01*
X47765350Y-27182561D02*
X47860588Y-27087323D01*
X47860588Y-27087323D02*
X47908207Y-26992085D01*
X47908207Y-26992085D02*
X47955826Y-26801609D01*
X47955826Y-26801609D02*
X47955826Y-26658752D01*
X47955826Y-26658752D02*
X47908207Y-26468276D01*
X47908207Y-26468276D02*
X47860588Y-26373038D01*
X47860588Y-26373038D02*
X47765350Y-26277800D01*
X47765350Y-26277800D02*
X47622493Y-26230180D01*
X47622493Y-26230180D02*
X47384398Y-26230180D01*
X37239160Y-20627800D02*
X37382017Y-20580180D01*
X37382017Y-20580180D02*
X37620112Y-20580180D01*
X37620112Y-20580180D02*
X37715350Y-20627800D01*
X37715350Y-20627800D02*
X37762969Y-20675419D01*
X37762969Y-20675419D02*
X37810588Y-20770657D01*
X37810588Y-20770657D02*
X37810588Y-20865895D01*
X37810588Y-20865895D02*
X37762969Y-20961133D01*
X37762969Y-20961133D02*
X37715350Y-21008752D01*
X37715350Y-21008752D02*
X37620112Y-21056371D01*
X37620112Y-21056371D02*
X37429636Y-21103990D01*
X37429636Y-21103990D02*
X37334398Y-21151609D01*
X37334398Y-21151609D02*
X37286779Y-21199228D01*
X37286779Y-21199228D02*
X37239160Y-21294466D01*
X37239160Y-21294466D02*
X37239160Y-21389704D01*
X37239160Y-21389704D02*
X37286779Y-21484942D01*
X37286779Y-21484942D02*
X37334398Y-21532561D01*
X37334398Y-21532561D02*
X37429636Y-21580180D01*
X37429636Y-21580180D02*
X37667731Y-21580180D01*
X37667731Y-21580180D02*
X37810588Y-21532561D01*
X38143922Y-21580180D02*
X38382017Y-20580180D01*
X38382017Y-20580180D02*
X38572493Y-21294466D01*
X38572493Y-21294466D02*
X38762969Y-20580180D01*
X38762969Y-20580180D02*
X39001065Y-21580180D01*
X39953445Y-20675419D02*
X39905826Y-20627800D01*
X39905826Y-20627800D02*
X39762969Y-20580180D01*
X39762969Y-20580180D02*
X39667731Y-20580180D01*
X39667731Y-20580180D02*
X39524874Y-20627800D01*
X39524874Y-20627800D02*
X39429636Y-20723038D01*
X39429636Y-20723038D02*
X39382017Y-20818276D01*
X39382017Y-20818276D02*
X39334398Y-21008752D01*
X39334398Y-21008752D02*
X39334398Y-21151609D01*
X39334398Y-21151609D02*
X39382017Y-21342085D01*
X39382017Y-21342085D02*
X39429636Y-21437323D01*
X39429636Y-21437323D02*
X39524874Y-21532561D01*
X39524874Y-21532561D02*
X39667731Y-21580180D01*
X39667731Y-21580180D02*
X39762969Y-21580180D01*
X39762969Y-21580180D02*
X39905826Y-21532561D01*
X39905826Y-21532561D02*
X39953445Y-21484942D01*
X40858207Y-20580180D02*
X40382017Y-20580180D01*
X40382017Y-20580180D02*
X40382017Y-21580180D01*
X41191541Y-20580180D02*
X41191541Y-21580180D01*
X41762969Y-20580180D02*
X41334398Y-21151609D01*
X41762969Y-21580180D02*
X41191541Y-21008752D01*
X44841541Y-29630180D02*
X45460588Y-29630180D01*
X45460588Y-29630180D02*
X45127255Y-29249228D01*
X45127255Y-29249228D02*
X45270112Y-29249228D01*
X45270112Y-29249228D02*
X45365350Y-29201609D01*
X45365350Y-29201609D02*
X45412969Y-29153990D01*
X45412969Y-29153990D02*
X45460588Y-29058752D01*
X45460588Y-29058752D02*
X45460588Y-28820657D01*
X45460588Y-28820657D02*
X45412969Y-28725419D01*
X45412969Y-28725419D02*
X45365350Y-28677800D01*
X45365350Y-28677800D02*
X45270112Y-28630180D01*
X45270112Y-28630180D02*
X44984398Y-28630180D01*
X44984398Y-28630180D02*
X44889160Y-28677800D01*
X44889160Y-28677800D02*
X44841541Y-28725419D01*
X45746303Y-29630180D02*
X46079636Y-28630180D01*
X46079636Y-28630180D02*
X46412969Y-29630180D01*
X46651065Y-29630180D02*
X47270112Y-29630180D01*
X47270112Y-29630180D02*
X46936779Y-29249228D01*
X46936779Y-29249228D02*
X47079636Y-29249228D01*
X47079636Y-29249228D02*
X47174874Y-29201609D01*
X47174874Y-29201609D02*
X47222493Y-29153990D01*
X47222493Y-29153990D02*
X47270112Y-29058752D01*
X47270112Y-29058752D02*
X47270112Y-28820657D01*
X47270112Y-28820657D02*
X47222493Y-28725419D01*
X47222493Y-28725419D02*
X47174874Y-28677800D01*
X47174874Y-28677800D02*
X47079636Y-28630180D01*
X47079636Y-28630180D02*
X46793922Y-28630180D01*
X46793922Y-28630180D02*
X46698684Y-28677800D01*
X46698684Y-28677800D02*
X46651065Y-28725419D01*
X44639160Y-23677800D02*
X44782017Y-23630180D01*
X44782017Y-23630180D02*
X45020112Y-23630180D01*
X45020112Y-23630180D02*
X45115350Y-23677800D01*
X45115350Y-23677800D02*
X45162969Y-23725419D01*
X45162969Y-23725419D02*
X45210588Y-23820657D01*
X45210588Y-23820657D02*
X45210588Y-23915895D01*
X45210588Y-23915895D02*
X45162969Y-24011133D01*
X45162969Y-24011133D02*
X45115350Y-24058752D01*
X45115350Y-24058752D02*
X45020112Y-24106371D01*
X45020112Y-24106371D02*
X44829636Y-24153990D01*
X44829636Y-24153990D02*
X44734398Y-24201609D01*
X44734398Y-24201609D02*
X44686779Y-24249228D01*
X44686779Y-24249228D02*
X44639160Y-24344466D01*
X44639160Y-24344466D02*
X44639160Y-24439704D01*
X44639160Y-24439704D02*
X44686779Y-24534942D01*
X44686779Y-24534942D02*
X44734398Y-24582561D01*
X44734398Y-24582561D02*
X44829636Y-24630180D01*
X44829636Y-24630180D02*
X45067731Y-24630180D01*
X45067731Y-24630180D02*
X45210588Y-24582561D01*
X45543922Y-24630180D02*
X45782017Y-23630180D01*
X45782017Y-23630180D02*
X45972493Y-24344466D01*
X45972493Y-24344466D02*
X46162969Y-23630180D01*
X46162969Y-23630180D02*
X46401065Y-24630180D01*
X46782017Y-23630180D02*
X46782017Y-24630180D01*
X46782017Y-24630180D02*
X47020112Y-24630180D01*
X47020112Y-24630180D02*
X47162969Y-24582561D01*
X47162969Y-24582561D02*
X47258207Y-24487323D01*
X47258207Y-24487323D02*
X47305826Y-24392085D01*
X47305826Y-24392085D02*
X47353445Y-24201609D01*
X47353445Y-24201609D02*
X47353445Y-24058752D01*
X47353445Y-24058752D02*
X47305826Y-23868276D01*
X47305826Y-23868276D02*
X47258207Y-23773038D01*
X47258207Y-23773038D02*
X47162969Y-23677800D01*
X47162969Y-23677800D02*
X47020112Y-23630180D01*
X47020112Y-23630180D02*
X46782017Y-23630180D01*
X45358207Y-31280180D02*
X45024874Y-31756371D01*
X44786779Y-31280180D02*
X44786779Y-32280180D01*
X44786779Y-32280180D02*
X45167731Y-32280180D01*
X45167731Y-32280180D02*
X45262969Y-32232561D01*
X45262969Y-32232561D02*
X45310588Y-32184942D01*
X45310588Y-32184942D02*
X45358207Y-32089704D01*
X45358207Y-32089704D02*
X45358207Y-31946847D01*
X45358207Y-31946847D02*
X45310588Y-31851609D01*
X45310588Y-31851609D02*
X45262969Y-31803990D01*
X45262969Y-31803990D02*
X45167731Y-31756371D01*
X45167731Y-31756371D02*
X44786779Y-31756371D01*
X45739160Y-31327800D02*
X45882017Y-31280180D01*
X45882017Y-31280180D02*
X46120112Y-31280180D01*
X46120112Y-31280180D02*
X46215350Y-31327800D01*
X46215350Y-31327800D02*
X46262969Y-31375419D01*
X46262969Y-31375419D02*
X46310588Y-31470657D01*
X46310588Y-31470657D02*
X46310588Y-31565895D01*
X46310588Y-31565895D02*
X46262969Y-31661133D01*
X46262969Y-31661133D02*
X46215350Y-31708752D01*
X46215350Y-31708752D02*
X46120112Y-31756371D01*
X46120112Y-31756371D02*
X45929636Y-31803990D01*
X45929636Y-31803990D02*
X45834398Y-31851609D01*
X45834398Y-31851609D02*
X45786779Y-31899228D01*
X45786779Y-31899228D02*
X45739160Y-31994466D01*
X45739160Y-31994466D02*
X45739160Y-32089704D01*
X45739160Y-32089704D02*
X45786779Y-32184942D01*
X45786779Y-32184942D02*
X45834398Y-32232561D01*
X45834398Y-32232561D02*
X45929636Y-32280180D01*
X45929636Y-32280180D02*
X46167731Y-32280180D01*
X46167731Y-32280180D02*
X46310588Y-32232561D01*
X46596303Y-32280180D02*
X47167731Y-32280180D01*
X46882017Y-31280180D02*
X46882017Y-32280180D01*
X70041719Y-64325714D02*
X69041719Y-64325714D01*
X69041719Y-64325714D02*
X69041719Y-64563809D01*
X69041719Y-64563809D02*
X69089338Y-64706666D01*
X69089338Y-64706666D02*
X69184576Y-64801904D01*
X69184576Y-64801904D02*
X69279814Y-64849523D01*
X69279814Y-64849523D02*
X69470290Y-64897142D01*
X69470290Y-64897142D02*
X69613147Y-64897142D01*
X69613147Y-64897142D02*
X69803623Y-64849523D01*
X69803623Y-64849523D02*
X69898861Y-64801904D01*
X69898861Y-64801904D02*
X69994100Y-64706666D01*
X69994100Y-64706666D02*
X70041719Y-64563809D01*
X70041719Y-64563809D02*
X70041719Y-64325714D01*
X69041719Y-65230476D02*
X69041719Y-65849523D01*
X69041719Y-65849523D02*
X69422671Y-65516190D01*
X69422671Y-65516190D02*
X69422671Y-65659047D01*
X69422671Y-65659047D02*
X69470290Y-65754285D01*
X69470290Y-65754285D02*
X69517909Y-65801904D01*
X69517909Y-65801904D02*
X69613147Y-65849523D01*
X69613147Y-65849523D02*
X69851242Y-65849523D01*
X69851242Y-65849523D02*
X69946480Y-65801904D01*
X69946480Y-65801904D02*
X69994100Y-65754285D01*
X69994100Y-65754285D02*
X70041719Y-65659047D01*
X70041719Y-65659047D02*
X70041719Y-65373333D01*
X70041719Y-65373333D02*
X69994100Y-65278095D01*
X69994100Y-65278095D02*
X69946480Y-65230476D01*
X70041719Y-66801904D02*
X70041719Y-66230476D01*
X70041719Y-66516190D02*
X69041719Y-66516190D01*
X69041719Y-66516190D02*
X69184576Y-66420952D01*
X69184576Y-66420952D02*
X69279814Y-66325714D01*
X69279814Y-66325714D02*
X69327433Y-66230476D01*
X31941719Y-64325714D02*
X30941719Y-64325714D01*
X30941719Y-64325714D02*
X30941719Y-64563809D01*
X30941719Y-64563809D02*
X30989338Y-64706666D01*
X30989338Y-64706666D02*
X31084576Y-64801904D01*
X31084576Y-64801904D02*
X31179814Y-64849523D01*
X31179814Y-64849523D02*
X31370290Y-64897142D01*
X31370290Y-64897142D02*
X31513147Y-64897142D01*
X31513147Y-64897142D02*
X31703623Y-64849523D01*
X31703623Y-64849523D02*
X31798861Y-64801904D01*
X31798861Y-64801904D02*
X31894100Y-64706666D01*
X31894100Y-64706666D02*
X31941719Y-64563809D01*
X31941719Y-64563809D02*
X31941719Y-64325714D01*
X31036957Y-65278095D02*
X30989338Y-65325714D01*
X30989338Y-65325714D02*
X30941719Y-65420952D01*
X30941719Y-65420952D02*
X30941719Y-65659047D01*
X30941719Y-65659047D02*
X30989338Y-65754285D01*
X30989338Y-65754285D02*
X31036957Y-65801904D01*
X31036957Y-65801904D02*
X31132195Y-65849523D01*
X31132195Y-65849523D02*
X31227433Y-65849523D01*
X31227433Y-65849523D02*
X31370290Y-65801904D01*
X31370290Y-65801904D02*
X31941719Y-65230476D01*
X31941719Y-65230476D02*
X31941719Y-65849523D01*
X31036957Y-66230476D02*
X30989338Y-66278095D01*
X30989338Y-66278095D02*
X30941719Y-66373333D01*
X30941719Y-66373333D02*
X30941719Y-66611428D01*
X30941719Y-66611428D02*
X30989338Y-66706666D01*
X30989338Y-66706666D02*
X31036957Y-66754285D01*
X31036957Y-66754285D02*
X31132195Y-66801904D01*
X31132195Y-66801904D02*
X31227433Y-66801904D01*
X31227433Y-66801904D02*
X31370290Y-66754285D01*
X31370290Y-66754285D02*
X31941719Y-66182857D01*
X31941719Y-66182857D02*
X31941719Y-66801904D01*
X35221598Y-34042083D02*
X35269218Y-33994464D01*
X35269218Y-33994464D02*
X35316837Y-33851607D01*
X35316837Y-33851607D02*
X35316837Y-33756369D01*
X35316837Y-33756369D02*
X35269218Y-33613512D01*
X35269218Y-33613512D02*
X35173979Y-33518274D01*
X35173979Y-33518274D02*
X35078741Y-33470655D01*
X35078741Y-33470655D02*
X34888265Y-33423036D01*
X34888265Y-33423036D02*
X34745408Y-33423036D01*
X34745408Y-33423036D02*
X34554932Y-33470655D01*
X34554932Y-33470655D02*
X34459694Y-33518274D01*
X34459694Y-33518274D02*
X34364456Y-33613512D01*
X34364456Y-33613512D02*
X34316837Y-33756369D01*
X34316837Y-33756369D02*
X34316837Y-33851607D01*
X34316837Y-33851607D02*
X34364456Y-33994464D01*
X34364456Y-33994464D02*
X34412075Y-34042083D01*
X34316837Y-34899226D02*
X34316837Y-34708750D01*
X34316837Y-34708750D02*
X34364456Y-34613512D01*
X34364456Y-34613512D02*
X34412075Y-34565893D01*
X34412075Y-34565893D02*
X34554932Y-34470655D01*
X34554932Y-34470655D02*
X34745408Y-34423036D01*
X34745408Y-34423036D02*
X35126360Y-34423036D01*
X35126360Y-34423036D02*
X35221598Y-34470655D01*
X35221598Y-34470655D02*
X35269218Y-34518274D01*
X35269218Y-34518274D02*
X35316837Y-34613512D01*
X35316837Y-34613512D02*
X35316837Y-34803988D01*
X35316837Y-34803988D02*
X35269218Y-34899226D01*
X35269218Y-34899226D02*
X35221598Y-34946845D01*
X35221598Y-34946845D02*
X35126360Y-34994464D01*
X35126360Y-34994464D02*
X34888265Y-34994464D01*
X34888265Y-34994464D02*
X34793027Y-34946845D01*
X34793027Y-34946845D02*
X34745408Y-34899226D01*
X34745408Y-34899226D02*
X34697789Y-34803988D01*
X34697789Y-34803988D02*
X34697789Y-34613512D01*
X34697789Y-34613512D02*
X34745408Y-34518274D01*
X34745408Y-34518274D02*
X34793027Y-34470655D01*
X34793027Y-34470655D02*
X34888265Y-34423036D01*
X-49020281Y-64801905D02*
X-50020281Y-64801905D01*
X-50020281Y-64801905D02*
X-50020281Y-65040000D01*
X-50020281Y-65040000D02*
X-49972662Y-65182857D01*
X-49972662Y-65182857D02*
X-49877424Y-65278095D01*
X-49877424Y-65278095D02*
X-49782186Y-65325714D01*
X-49782186Y-65325714D02*
X-49591710Y-65373333D01*
X-49591710Y-65373333D02*
X-49448853Y-65373333D01*
X-49448853Y-65373333D02*
X-49258377Y-65325714D01*
X-49258377Y-65325714D02*
X-49163139Y-65278095D01*
X-49163139Y-65278095D02*
X-49067900Y-65182857D01*
X-49067900Y-65182857D02*
X-49020281Y-65040000D01*
X-49020281Y-65040000D02*
X-49020281Y-64801905D01*
X-49925043Y-65754286D02*
X-49972662Y-65801905D01*
X-49972662Y-65801905D02*
X-50020281Y-65897143D01*
X-50020281Y-65897143D02*
X-50020281Y-66135238D01*
X-50020281Y-66135238D02*
X-49972662Y-66230476D01*
X-49972662Y-66230476D02*
X-49925043Y-66278095D01*
X-49925043Y-66278095D02*
X-49829805Y-66325714D01*
X-49829805Y-66325714D02*
X-49734567Y-66325714D01*
X-49734567Y-66325714D02*
X-49591710Y-66278095D01*
X-49591710Y-66278095D02*
X-49020281Y-65706667D01*
X-49020281Y-65706667D02*
X-49020281Y-66325714D01*
X74804219Y-83375714D02*
X73804219Y-83375714D01*
X73804219Y-83375714D02*
X73804219Y-83613809D01*
X73804219Y-83613809D02*
X73851838Y-83756666D01*
X73851838Y-83756666D02*
X73947076Y-83851904D01*
X73947076Y-83851904D02*
X74042314Y-83899523D01*
X74042314Y-83899523D02*
X74232790Y-83947142D01*
X74232790Y-83947142D02*
X74375647Y-83947142D01*
X74375647Y-83947142D02*
X74566123Y-83899523D01*
X74566123Y-83899523D02*
X74661361Y-83851904D01*
X74661361Y-83851904D02*
X74756600Y-83756666D01*
X74756600Y-83756666D02*
X74804219Y-83613809D01*
X74804219Y-83613809D02*
X74804219Y-83375714D01*
X73804219Y-84280476D02*
X73804219Y-84899523D01*
X73804219Y-84899523D02*
X74185171Y-84566190D01*
X74185171Y-84566190D02*
X74185171Y-84709047D01*
X74185171Y-84709047D02*
X74232790Y-84804285D01*
X74232790Y-84804285D02*
X74280409Y-84851904D01*
X74280409Y-84851904D02*
X74375647Y-84899523D01*
X74375647Y-84899523D02*
X74613742Y-84899523D01*
X74613742Y-84899523D02*
X74708980Y-84851904D01*
X74708980Y-84851904D02*
X74756600Y-84804285D01*
X74756600Y-84804285D02*
X74804219Y-84709047D01*
X74804219Y-84709047D02*
X74804219Y-84423333D01*
X74804219Y-84423333D02*
X74756600Y-84328095D01*
X74756600Y-84328095D02*
X74708980Y-84280476D01*
X73899457Y-85280476D02*
X73851838Y-85328095D01*
X73851838Y-85328095D02*
X73804219Y-85423333D01*
X73804219Y-85423333D02*
X73804219Y-85661428D01*
X73804219Y-85661428D02*
X73851838Y-85756666D01*
X73851838Y-85756666D02*
X73899457Y-85804285D01*
X73899457Y-85804285D02*
X73994695Y-85851904D01*
X73994695Y-85851904D02*
X74089933Y-85851904D01*
X74089933Y-85851904D02*
X74232790Y-85804285D01*
X74232790Y-85804285D02*
X74804219Y-85232857D01*
X74804219Y-85232857D02*
X74804219Y-85851904D01*
X-25195181Y-24083333D02*
X-25671372Y-23750000D01*
X-25195181Y-23511905D02*
X-26195181Y-23511905D01*
X-26195181Y-23511905D02*
X-26195181Y-23892857D01*
X-26195181Y-23892857D02*
X-26147562Y-23988095D01*
X-26147562Y-23988095D02*
X-26099943Y-24035714D01*
X-26099943Y-24035714D02*
X-26004705Y-24083333D01*
X-26004705Y-24083333D02*
X-25861848Y-24083333D01*
X-25861848Y-24083333D02*
X-25766610Y-24035714D01*
X-25766610Y-24035714D02*
X-25718991Y-23988095D01*
X-25718991Y-23988095D02*
X-25671372Y-23892857D01*
X-25671372Y-23892857D02*
X-25671372Y-23511905D01*
X-25766610Y-24654762D02*
X-25814229Y-24559524D01*
X-25814229Y-24559524D02*
X-25861848Y-24511905D01*
X-25861848Y-24511905D02*
X-25957086Y-24464286D01*
X-25957086Y-24464286D02*
X-26004705Y-24464286D01*
X-26004705Y-24464286D02*
X-26099943Y-24511905D01*
X-26099943Y-24511905D02*
X-26147562Y-24559524D01*
X-26147562Y-24559524D02*
X-26195181Y-24654762D01*
X-26195181Y-24654762D02*
X-26195181Y-24845238D01*
X-26195181Y-24845238D02*
X-26147562Y-24940476D01*
X-26147562Y-24940476D02*
X-26099943Y-24988095D01*
X-26099943Y-24988095D02*
X-26004705Y-25035714D01*
X-26004705Y-25035714D02*
X-25957086Y-25035714D01*
X-25957086Y-25035714D02*
X-25861848Y-24988095D01*
X-25861848Y-24988095D02*
X-25814229Y-24940476D01*
X-25814229Y-24940476D02*
X-25766610Y-24845238D01*
X-25766610Y-24845238D02*
X-25766610Y-24654762D01*
X-25766610Y-24654762D02*
X-25718991Y-24559524D01*
X-25718991Y-24559524D02*
X-25671372Y-24511905D01*
X-25671372Y-24511905D02*
X-25576134Y-24464286D01*
X-25576134Y-24464286D02*
X-25385658Y-24464286D01*
X-25385658Y-24464286D02*
X-25290420Y-24511905D01*
X-25290420Y-24511905D02*
X-25242800Y-24559524D01*
X-25242800Y-24559524D02*
X-25195181Y-24654762D01*
X-25195181Y-24654762D02*
X-25195181Y-24845238D01*
X-25195181Y-24845238D02*
X-25242800Y-24940476D01*
X-25242800Y-24940476D02*
X-25290420Y-24988095D01*
X-25290420Y-24988095D02*
X-25385658Y-25035714D01*
X-25385658Y-25035714D02*
X-25576134Y-25035714D01*
X-25576134Y-25035714D02*
X-25671372Y-24988095D01*
X-25671372Y-24988095D02*
X-25718991Y-24940476D01*
X-25718991Y-24940476D02*
X-25766610Y-24845238D01*
X8129219Y-102425714D02*
X7129219Y-102425714D01*
X7129219Y-102425714D02*
X7129219Y-102663809D01*
X7129219Y-102663809D02*
X7176838Y-102806666D01*
X7176838Y-102806666D02*
X7272076Y-102901904D01*
X7272076Y-102901904D02*
X7367314Y-102949523D01*
X7367314Y-102949523D02*
X7557790Y-102997142D01*
X7557790Y-102997142D02*
X7700647Y-102997142D01*
X7700647Y-102997142D02*
X7891123Y-102949523D01*
X7891123Y-102949523D02*
X7986361Y-102901904D01*
X7986361Y-102901904D02*
X8081600Y-102806666D01*
X8081600Y-102806666D02*
X8129219Y-102663809D01*
X8129219Y-102663809D02*
X8129219Y-102425714D01*
X8129219Y-103949523D02*
X8129219Y-103378095D01*
X8129219Y-103663809D02*
X7129219Y-103663809D01*
X7129219Y-103663809D02*
X7272076Y-103568571D01*
X7272076Y-103568571D02*
X7367314Y-103473333D01*
X7367314Y-103473333D02*
X7414933Y-103378095D01*
X7462552Y-104806666D02*
X8129219Y-104806666D01*
X7081600Y-104568571D02*
X7795885Y-104330476D01*
X7795885Y-104330476D02*
X7795885Y-104949523D01*
X27179219Y-102425714D02*
X26179219Y-102425714D01*
X26179219Y-102425714D02*
X26179219Y-102663809D01*
X26179219Y-102663809D02*
X26226838Y-102806666D01*
X26226838Y-102806666D02*
X26322076Y-102901904D01*
X26322076Y-102901904D02*
X26417314Y-102949523D01*
X26417314Y-102949523D02*
X26607790Y-102997142D01*
X26607790Y-102997142D02*
X26750647Y-102997142D01*
X26750647Y-102997142D02*
X26941123Y-102949523D01*
X26941123Y-102949523D02*
X27036361Y-102901904D01*
X27036361Y-102901904D02*
X27131600Y-102806666D01*
X27131600Y-102806666D02*
X27179219Y-102663809D01*
X27179219Y-102663809D02*
X27179219Y-102425714D01*
X27179219Y-103949523D02*
X27179219Y-103378095D01*
X27179219Y-103663809D02*
X26179219Y-103663809D01*
X26179219Y-103663809D02*
X26322076Y-103568571D01*
X26322076Y-103568571D02*
X26417314Y-103473333D01*
X26417314Y-103473333D02*
X26464933Y-103378095D01*
X27179219Y-104425714D02*
X27179219Y-104616190D01*
X27179219Y-104616190D02*
X27131600Y-104711428D01*
X27131600Y-104711428D02*
X27083980Y-104759047D01*
X27083980Y-104759047D02*
X26941123Y-104854285D01*
X26941123Y-104854285D02*
X26750647Y-104901904D01*
X26750647Y-104901904D02*
X26369695Y-104901904D01*
X26369695Y-104901904D02*
X26274457Y-104854285D01*
X26274457Y-104854285D02*
X26226838Y-104806666D01*
X26226838Y-104806666D02*
X26179219Y-104711428D01*
X26179219Y-104711428D02*
X26179219Y-104520952D01*
X26179219Y-104520952D02*
X26226838Y-104425714D01*
X26226838Y-104425714D02*
X26274457Y-104378095D01*
X26274457Y-104378095D02*
X26369695Y-104330476D01*
X26369695Y-104330476D02*
X26607790Y-104330476D01*
X26607790Y-104330476D02*
X26703028Y-104378095D01*
X26703028Y-104378095D02*
X26750647Y-104425714D01*
X26750647Y-104425714D02*
X26798266Y-104520952D01*
X26798266Y-104520952D02*
X26798266Y-104711428D01*
X26798266Y-104711428D02*
X26750647Y-104806666D01*
X26750647Y-104806666D02*
X26703028Y-104854285D01*
X26703028Y-104854285D02*
X26607790Y-104901904D01*
X-3777281Y-121475714D02*
X-4777281Y-121475714D01*
X-4777281Y-121475714D02*
X-4777281Y-121713809D01*
X-4777281Y-121713809D02*
X-4729662Y-121856666D01*
X-4729662Y-121856666D02*
X-4634424Y-121951904D01*
X-4634424Y-121951904D02*
X-4539186Y-121999523D01*
X-4539186Y-121999523D02*
X-4348710Y-122047142D01*
X-4348710Y-122047142D02*
X-4205853Y-122047142D01*
X-4205853Y-122047142D02*
X-4015377Y-121999523D01*
X-4015377Y-121999523D02*
X-3920139Y-121951904D01*
X-3920139Y-121951904D02*
X-3824900Y-121856666D01*
X-3824900Y-121856666D02*
X-3777281Y-121713809D01*
X-3777281Y-121713809D02*
X-3777281Y-121475714D01*
X-3777281Y-122999523D02*
X-3777281Y-122428095D01*
X-3777281Y-122713809D02*
X-4777281Y-122713809D01*
X-4777281Y-122713809D02*
X-4634424Y-122618571D01*
X-4634424Y-122618571D02*
X-4539186Y-122523333D01*
X-4539186Y-122523333D02*
X-4491567Y-122428095D01*
X-4777281Y-123904285D02*
X-4777281Y-123428095D01*
X-4777281Y-123428095D02*
X-4301091Y-123380476D01*
X-4301091Y-123380476D02*
X-4348710Y-123428095D01*
X-4348710Y-123428095D02*
X-4396329Y-123523333D01*
X-4396329Y-123523333D02*
X-4396329Y-123761428D01*
X-4396329Y-123761428D02*
X-4348710Y-123856666D01*
X-4348710Y-123856666D02*
X-4301091Y-123904285D01*
X-4301091Y-123904285D02*
X-4205853Y-123951904D01*
X-4205853Y-123951904D02*
X-3967758Y-123951904D01*
X-3967758Y-123951904D02*
X-3872520Y-123904285D01*
X-3872520Y-123904285D02*
X-3824900Y-123856666D01*
X-3824900Y-123856666D02*
X-3777281Y-123761428D01*
X-3777281Y-123761428D02*
X-3777281Y-123523333D01*
X-3777281Y-123523333D02*
X-3824900Y-123428095D01*
X-3824900Y-123428095D02*
X-3872520Y-123380476D01*
X23664598Y-38487083D02*
X23712218Y-38439464D01*
X23712218Y-38439464D02*
X23759837Y-38296607D01*
X23759837Y-38296607D02*
X23759837Y-38201369D01*
X23759837Y-38201369D02*
X23712218Y-38058512D01*
X23712218Y-38058512D02*
X23616979Y-37963274D01*
X23616979Y-37963274D02*
X23521741Y-37915655D01*
X23521741Y-37915655D02*
X23331265Y-37868036D01*
X23331265Y-37868036D02*
X23188408Y-37868036D01*
X23188408Y-37868036D02*
X22997932Y-37915655D01*
X22997932Y-37915655D02*
X22902694Y-37963274D01*
X22902694Y-37963274D02*
X22807456Y-38058512D01*
X22807456Y-38058512D02*
X22759837Y-38201369D01*
X22759837Y-38201369D02*
X22759837Y-38296607D01*
X22759837Y-38296607D02*
X22807456Y-38439464D01*
X22807456Y-38439464D02*
X22855075Y-38487083D01*
X23759837Y-38963274D02*
X23759837Y-39153750D01*
X23759837Y-39153750D02*
X23712218Y-39248988D01*
X23712218Y-39248988D02*
X23664598Y-39296607D01*
X23664598Y-39296607D02*
X23521741Y-39391845D01*
X23521741Y-39391845D02*
X23331265Y-39439464D01*
X23331265Y-39439464D02*
X22950313Y-39439464D01*
X22950313Y-39439464D02*
X22855075Y-39391845D01*
X22855075Y-39391845D02*
X22807456Y-39344226D01*
X22807456Y-39344226D02*
X22759837Y-39248988D01*
X22759837Y-39248988D02*
X22759837Y-39058512D01*
X22759837Y-39058512D02*
X22807456Y-38963274D01*
X22807456Y-38963274D02*
X22855075Y-38915655D01*
X22855075Y-38915655D02*
X22950313Y-38868036D01*
X22950313Y-38868036D02*
X23188408Y-38868036D01*
X23188408Y-38868036D02*
X23283646Y-38915655D01*
X23283646Y-38915655D02*
X23331265Y-38963274D01*
X23331265Y-38963274D02*
X23378884Y-39058512D01*
X23378884Y-39058512D02*
X23378884Y-39248988D01*
X23378884Y-39248988D02*
X23331265Y-39344226D01*
X23331265Y-39344226D02*
X23283646Y-39391845D01*
X23283646Y-39391845D02*
X23188408Y-39439464D01*
D11*
X-43991667Y-33057419D02*
X-43991667Y-33771704D01*
X-43991667Y-33771704D02*
X-43944048Y-33914561D01*
X-43944048Y-33914561D02*
X-43848810Y-34009800D01*
X-43848810Y-34009800D02*
X-43705953Y-34057419D01*
X-43705953Y-34057419D02*
X-43610715Y-34057419D01*
X-44372620Y-33057419D02*
X-44991667Y-33057419D01*
X-44991667Y-33057419D02*
X-44658334Y-33438371D01*
X-44658334Y-33438371D02*
X-44801191Y-33438371D01*
X-44801191Y-33438371D02*
X-44896429Y-33485990D01*
X-44896429Y-33485990D02*
X-44944048Y-33533609D01*
X-44944048Y-33533609D02*
X-44991667Y-33628847D01*
X-44991667Y-33628847D02*
X-44991667Y-33866942D01*
X-44991667Y-33866942D02*
X-44944048Y-33962180D01*
X-44944048Y-33962180D02*
X-44896429Y-34009800D01*
X-44896429Y-34009800D02*
X-44801191Y-34057419D01*
X-44801191Y-34057419D02*
X-44515477Y-34057419D01*
X-44515477Y-34057419D02*
X-44420239Y-34009800D01*
X-44420239Y-34009800D02*
X-44372620Y-33962180D01*
D10*
X-20445781Y-83851905D02*
X-21445781Y-83851905D01*
X-21445781Y-83851905D02*
X-21445781Y-84090000D01*
X-21445781Y-84090000D02*
X-21398162Y-84232857D01*
X-21398162Y-84232857D02*
X-21302924Y-84328095D01*
X-21302924Y-84328095D02*
X-21207686Y-84375714D01*
X-21207686Y-84375714D02*
X-21017210Y-84423333D01*
X-21017210Y-84423333D02*
X-20874353Y-84423333D01*
X-20874353Y-84423333D02*
X-20683877Y-84375714D01*
X-20683877Y-84375714D02*
X-20588639Y-84328095D01*
X-20588639Y-84328095D02*
X-20493400Y-84232857D01*
X-20493400Y-84232857D02*
X-20445781Y-84090000D01*
X-20445781Y-84090000D02*
X-20445781Y-83851905D01*
X-21017210Y-84994762D02*
X-21064829Y-84899524D01*
X-21064829Y-84899524D02*
X-21112448Y-84851905D01*
X-21112448Y-84851905D02*
X-21207686Y-84804286D01*
X-21207686Y-84804286D02*
X-21255305Y-84804286D01*
X-21255305Y-84804286D02*
X-21350543Y-84851905D01*
X-21350543Y-84851905D02*
X-21398162Y-84899524D01*
X-21398162Y-84899524D02*
X-21445781Y-84994762D01*
X-21445781Y-84994762D02*
X-21445781Y-85185238D01*
X-21445781Y-85185238D02*
X-21398162Y-85280476D01*
X-21398162Y-85280476D02*
X-21350543Y-85328095D01*
X-21350543Y-85328095D02*
X-21255305Y-85375714D01*
X-21255305Y-85375714D02*
X-21207686Y-85375714D01*
X-21207686Y-85375714D02*
X-21112448Y-85328095D01*
X-21112448Y-85328095D02*
X-21064829Y-85280476D01*
X-21064829Y-85280476D02*
X-21017210Y-85185238D01*
X-21017210Y-85185238D02*
X-21017210Y-84994762D01*
X-21017210Y-84994762D02*
X-20969591Y-84899524D01*
X-20969591Y-84899524D02*
X-20921972Y-84851905D01*
X-20921972Y-84851905D02*
X-20826734Y-84804286D01*
X-20826734Y-84804286D02*
X-20636258Y-84804286D01*
X-20636258Y-84804286D02*
X-20541020Y-84851905D01*
X-20541020Y-84851905D02*
X-20493400Y-84899524D01*
X-20493400Y-84899524D02*
X-20445781Y-84994762D01*
X-20445781Y-84994762D02*
X-20445781Y-85185238D01*
X-20445781Y-85185238D02*
X-20493400Y-85280476D01*
X-20493400Y-85280476D02*
X-20541020Y-85328095D01*
X-20541020Y-85328095D02*
X-20636258Y-85375714D01*
X-20636258Y-85375714D02*
X-20826734Y-85375714D01*
X-20826734Y-85375714D02*
X-20921972Y-85328095D01*
X-20921972Y-85328095D02*
X-20969591Y-85280476D01*
X-20969591Y-85280476D02*
X-21017210Y-85185238D01*
X19092598Y-31559292D02*
X19140218Y-31511673D01*
X19140218Y-31511673D02*
X19187837Y-31368816D01*
X19187837Y-31368816D02*
X19187837Y-31273578D01*
X19187837Y-31273578D02*
X19140218Y-31130721D01*
X19140218Y-31130721D02*
X19044979Y-31035483D01*
X19044979Y-31035483D02*
X18949741Y-30987864D01*
X18949741Y-30987864D02*
X18759265Y-30940245D01*
X18759265Y-30940245D02*
X18616408Y-30940245D01*
X18616408Y-30940245D02*
X18425932Y-30987864D01*
X18425932Y-30987864D02*
X18330694Y-31035483D01*
X18330694Y-31035483D02*
X18235456Y-31130721D01*
X18235456Y-31130721D02*
X18187837Y-31273578D01*
X18187837Y-31273578D02*
X18187837Y-31368816D01*
X18187837Y-31368816D02*
X18235456Y-31511673D01*
X18235456Y-31511673D02*
X18283075Y-31559292D01*
X19187837Y-32511673D02*
X19187837Y-31940245D01*
X19187837Y-32225959D02*
X18187837Y-32225959D01*
X18187837Y-32225959D02*
X18330694Y-32130721D01*
X18330694Y-32130721D02*
X18425932Y-32035483D01*
X18425932Y-32035483D02*
X18473551Y-31940245D01*
X18187837Y-32845007D02*
X18187837Y-33464054D01*
X18187837Y-33464054D02*
X18568789Y-33130721D01*
X18568789Y-33130721D02*
X18568789Y-33273578D01*
X18568789Y-33273578D02*
X18616408Y-33368816D01*
X18616408Y-33368816D02*
X18664027Y-33416435D01*
X18664027Y-33416435D02*
X18759265Y-33464054D01*
X18759265Y-33464054D02*
X18997360Y-33464054D01*
X18997360Y-33464054D02*
X19092598Y-33416435D01*
X19092598Y-33416435D02*
X19140218Y-33368816D01*
X19140218Y-33368816D02*
X19187837Y-33273578D01*
X19187837Y-33273578D02*
X19187837Y-32987864D01*
X19187837Y-32987864D02*
X19140218Y-32892626D01*
X19140218Y-32892626D02*
X19092598Y-32845007D01*
X41466719Y-45275714D02*
X40466719Y-45275714D01*
X40466719Y-45275714D02*
X40466719Y-45513809D01*
X40466719Y-45513809D02*
X40514338Y-45656666D01*
X40514338Y-45656666D02*
X40609576Y-45751904D01*
X40609576Y-45751904D02*
X40704814Y-45799523D01*
X40704814Y-45799523D02*
X40895290Y-45847142D01*
X40895290Y-45847142D02*
X41038147Y-45847142D01*
X41038147Y-45847142D02*
X41228623Y-45799523D01*
X41228623Y-45799523D02*
X41323861Y-45751904D01*
X41323861Y-45751904D02*
X41419100Y-45656666D01*
X41419100Y-45656666D02*
X41466719Y-45513809D01*
X41466719Y-45513809D02*
X41466719Y-45275714D01*
X40561957Y-46228095D02*
X40514338Y-46275714D01*
X40514338Y-46275714D02*
X40466719Y-46370952D01*
X40466719Y-46370952D02*
X40466719Y-46609047D01*
X40466719Y-46609047D02*
X40514338Y-46704285D01*
X40514338Y-46704285D02*
X40561957Y-46751904D01*
X40561957Y-46751904D02*
X40657195Y-46799523D01*
X40657195Y-46799523D02*
X40752433Y-46799523D01*
X40752433Y-46799523D02*
X40895290Y-46751904D01*
X40895290Y-46751904D02*
X41466719Y-46180476D01*
X41466719Y-46180476D02*
X41466719Y-46799523D01*
X40466719Y-47656666D02*
X40466719Y-47466190D01*
X40466719Y-47466190D02*
X40514338Y-47370952D01*
X40514338Y-47370952D02*
X40561957Y-47323333D01*
X40561957Y-47323333D02*
X40704814Y-47228095D01*
X40704814Y-47228095D02*
X40895290Y-47180476D01*
X40895290Y-47180476D02*
X41276242Y-47180476D01*
X41276242Y-47180476D02*
X41371480Y-47228095D01*
X41371480Y-47228095D02*
X41419100Y-47275714D01*
X41419100Y-47275714D02*
X41466719Y-47370952D01*
X41466719Y-47370952D02*
X41466719Y-47561428D01*
X41466719Y-47561428D02*
X41419100Y-47656666D01*
X41419100Y-47656666D02*
X41371480Y-47704285D01*
X41371480Y-47704285D02*
X41276242Y-47751904D01*
X41276242Y-47751904D02*
X41038147Y-47751904D01*
X41038147Y-47751904D02*
X40942909Y-47704285D01*
X40942909Y-47704285D02*
X40895290Y-47656666D01*
X40895290Y-47656666D02*
X40847671Y-47561428D01*
X40847671Y-47561428D02*
X40847671Y-47370952D01*
X40847671Y-47370952D02*
X40895290Y-47275714D01*
X40895290Y-47275714D02*
X40942909Y-47228095D01*
X40942909Y-47228095D02*
X41038147Y-47180476D01*
X17654219Y-121475714D02*
X16654219Y-121475714D01*
X16654219Y-121475714D02*
X16654219Y-121713809D01*
X16654219Y-121713809D02*
X16701838Y-121856666D01*
X16701838Y-121856666D02*
X16797076Y-121951904D01*
X16797076Y-121951904D02*
X16892314Y-121999523D01*
X16892314Y-121999523D02*
X17082790Y-122047142D01*
X17082790Y-122047142D02*
X17225647Y-122047142D01*
X17225647Y-122047142D02*
X17416123Y-121999523D01*
X17416123Y-121999523D02*
X17511361Y-121951904D01*
X17511361Y-121951904D02*
X17606600Y-121856666D01*
X17606600Y-121856666D02*
X17654219Y-121713809D01*
X17654219Y-121713809D02*
X17654219Y-121475714D01*
X16749457Y-122428095D02*
X16701838Y-122475714D01*
X16701838Y-122475714D02*
X16654219Y-122570952D01*
X16654219Y-122570952D02*
X16654219Y-122809047D01*
X16654219Y-122809047D02*
X16701838Y-122904285D01*
X16701838Y-122904285D02*
X16749457Y-122951904D01*
X16749457Y-122951904D02*
X16844695Y-122999523D01*
X16844695Y-122999523D02*
X16939933Y-122999523D01*
X16939933Y-122999523D02*
X17082790Y-122951904D01*
X17082790Y-122951904D02*
X17654219Y-122380476D01*
X17654219Y-122380476D02*
X17654219Y-122999523D01*
X16654219Y-123618571D02*
X16654219Y-123713809D01*
X16654219Y-123713809D02*
X16701838Y-123809047D01*
X16701838Y-123809047D02*
X16749457Y-123856666D01*
X16749457Y-123856666D02*
X16844695Y-123904285D01*
X16844695Y-123904285D02*
X17035171Y-123951904D01*
X17035171Y-123951904D02*
X17273266Y-123951904D01*
X17273266Y-123951904D02*
X17463742Y-123904285D01*
X17463742Y-123904285D02*
X17558980Y-123856666D01*
X17558980Y-123856666D02*
X17606600Y-123809047D01*
X17606600Y-123809047D02*
X17654219Y-123713809D01*
X17654219Y-123713809D02*
X17654219Y-123618571D01*
X17654219Y-123618571D02*
X17606600Y-123523333D01*
X17606600Y-123523333D02*
X17558980Y-123475714D01*
X17558980Y-123475714D02*
X17463742Y-123428095D01*
X17463742Y-123428095D02*
X17273266Y-123380476D01*
X17273266Y-123380476D02*
X17035171Y-123380476D01*
X17035171Y-123380476D02*
X16844695Y-123428095D01*
X16844695Y-123428095D02*
X16749457Y-123475714D01*
X16749457Y-123475714D02*
X16701838Y-123523333D01*
X16701838Y-123523333D02*
X16654219Y-123618571D01*
X19092598Y-27184083D02*
X19140218Y-27136464D01*
X19140218Y-27136464D02*
X19187837Y-26993607D01*
X19187837Y-26993607D02*
X19187837Y-26898369D01*
X19187837Y-26898369D02*
X19140218Y-26755512D01*
X19140218Y-26755512D02*
X19044979Y-26660274D01*
X19044979Y-26660274D02*
X18949741Y-26612655D01*
X18949741Y-26612655D02*
X18759265Y-26565036D01*
X18759265Y-26565036D02*
X18616408Y-26565036D01*
X18616408Y-26565036D02*
X18425932Y-26612655D01*
X18425932Y-26612655D02*
X18330694Y-26660274D01*
X18330694Y-26660274D02*
X18235456Y-26755512D01*
X18235456Y-26755512D02*
X18187837Y-26898369D01*
X18187837Y-26898369D02*
X18187837Y-26993607D01*
X18187837Y-26993607D02*
X18235456Y-27136464D01*
X18235456Y-27136464D02*
X18283075Y-27184083D01*
X18187837Y-28088845D02*
X18187837Y-27612655D01*
X18187837Y-27612655D02*
X18664027Y-27565036D01*
X18664027Y-27565036D02*
X18616408Y-27612655D01*
X18616408Y-27612655D02*
X18568789Y-27707893D01*
X18568789Y-27707893D02*
X18568789Y-27945988D01*
X18568789Y-27945988D02*
X18616408Y-28041226D01*
X18616408Y-28041226D02*
X18664027Y-28088845D01*
X18664027Y-28088845D02*
X18759265Y-28136464D01*
X18759265Y-28136464D02*
X18997360Y-28136464D01*
X18997360Y-28136464D02*
X19092598Y-28088845D01*
X19092598Y-28088845D02*
X19140218Y-28041226D01*
X19140218Y-28041226D02*
X19187837Y-27945988D01*
X19187837Y-27945988D02*
X19187837Y-27707893D01*
X19187837Y-27707893D02*
X19140218Y-27612655D01*
X19140218Y-27612655D02*
X19092598Y-27565036D01*
X22140598Y-38518892D02*
X22188218Y-38471273D01*
X22188218Y-38471273D02*
X22235837Y-38328416D01*
X22235837Y-38328416D02*
X22235837Y-38233178D01*
X22235837Y-38233178D02*
X22188218Y-38090321D01*
X22188218Y-38090321D02*
X22092979Y-37995083D01*
X22092979Y-37995083D02*
X21997741Y-37947464D01*
X21997741Y-37947464D02*
X21807265Y-37899845D01*
X21807265Y-37899845D02*
X21664408Y-37899845D01*
X21664408Y-37899845D02*
X21473932Y-37947464D01*
X21473932Y-37947464D02*
X21378694Y-37995083D01*
X21378694Y-37995083D02*
X21283456Y-38090321D01*
X21283456Y-38090321D02*
X21235837Y-38233178D01*
X21235837Y-38233178D02*
X21235837Y-38328416D01*
X21235837Y-38328416D02*
X21283456Y-38471273D01*
X21283456Y-38471273D02*
X21331075Y-38518892D01*
X22235837Y-39471273D02*
X22235837Y-38899845D01*
X22235837Y-39185559D02*
X21235837Y-39185559D01*
X21235837Y-39185559D02*
X21378694Y-39090321D01*
X21378694Y-39090321D02*
X21473932Y-38995083D01*
X21473932Y-38995083D02*
X21521551Y-38899845D01*
X21569170Y-40328416D02*
X22235837Y-40328416D01*
X21188218Y-40090321D02*
X21902503Y-39852226D01*
X21902503Y-39852226D02*
X21902503Y-40471273D01*
X46229219Y-102425714D02*
X45229219Y-102425714D01*
X45229219Y-102425714D02*
X45229219Y-102663809D01*
X45229219Y-102663809D02*
X45276838Y-102806666D01*
X45276838Y-102806666D02*
X45372076Y-102901904D01*
X45372076Y-102901904D02*
X45467314Y-102949523D01*
X45467314Y-102949523D02*
X45657790Y-102997142D01*
X45657790Y-102997142D02*
X45800647Y-102997142D01*
X45800647Y-102997142D02*
X45991123Y-102949523D01*
X45991123Y-102949523D02*
X46086361Y-102901904D01*
X46086361Y-102901904D02*
X46181600Y-102806666D01*
X46181600Y-102806666D02*
X46229219Y-102663809D01*
X46229219Y-102663809D02*
X46229219Y-102425714D01*
X45324457Y-103378095D02*
X45276838Y-103425714D01*
X45276838Y-103425714D02*
X45229219Y-103520952D01*
X45229219Y-103520952D02*
X45229219Y-103759047D01*
X45229219Y-103759047D02*
X45276838Y-103854285D01*
X45276838Y-103854285D02*
X45324457Y-103901904D01*
X45324457Y-103901904D02*
X45419695Y-103949523D01*
X45419695Y-103949523D02*
X45514933Y-103949523D01*
X45514933Y-103949523D02*
X45657790Y-103901904D01*
X45657790Y-103901904D02*
X46229219Y-103330476D01*
X46229219Y-103330476D02*
X46229219Y-103949523D01*
X45562552Y-104806666D02*
X46229219Y-104806666D01*
X45181600Y-104568571D02*
X45895885Y-104330476D01*
X45895885Y-104330476D02*
X45895885Y-104949523D01*
X32554598Y-30517892D02*
X32602218Y-30470273D01*
X32602218Y-30470273D02*
X32649837Y-30327416D01*
X32649837Y-30327416D02*
X32649837Y-30232178D01*
X32649837Y-30232178D02*
X32602218Y-30089321D01*
X32602218Y-30089321D02*
X32506979Y-29994083D01*
X32506979Y-29994083D02*
X32411741Y-29946464D01*
X32411741Y-29946464D02*
X32221265Y-29898845D01*
X32221265Y-29898845D02*
X32078408Y-29898845D01*
X32078408Y-29898845D02*
X31887932Y-29946464D01*
X31887932Y-29946464D02*
X31792694Y-29994083D01*
X31792694Y-29994083D02*
X31697456Y-30089321D01*
X31697456Y-30089321D02*
X31649837Y-30232178D01*
X31649837Y-30232178D02*
X31649837Y-30327416D01*
X31649837Y-30327416D02*
X31697456Y-30470273D01*
X31697456Y-30470273D02*
X31745075Y-30517892D01*
X32649837Y-31470273D02*
X32649837Y-30898845D01*
X32649837Y-31184559D02*
X31649837Y-31184559D01*
X31649837Y-31184559D02*
X31792694Y-31089321D01*
X31792694Y-31089321D02*
X31887932Y-30994083D01*
X31887932Y-30994083D02*
X31935551Y-30898845D01*
X31649837Y-32089321D02*
X31649837Y-32184559D01*
X31649837Y-32184559D02*
X31697456Y-32279797D01*
X31697456Y-32279797D02*
X31745075Y-32327416D01*
X31745075Y-32327416D02*
X31840313Y-32375035D01*
X31840313Y-32375035D02*
X32030789Y-32422654D01*
X32030789Y-32422654D02*
X32268884Y-32422654D01*
X32268884Y-32422654D02*
X32459360Y-32375035D01*
X32459360Y-32375035D02*
X32554598Y-32327416D01*
X32554598Y-32327416D02*
X32602218Y-32279797D01*
X32602218Y-32279797D02*
X32649837Y-32184559D01*
X32649837Y-32184559D02*
X32649837Y-32089321D01*
X32649837Y-32089321D02*
X32602218Y-31994083D01*
X32602218Y-31994083D02*
X32554598Y-31946464D01*
X32554598Y-31946464D02*
X32459360Y-31898845D01*
X32459360Y-31898845D02*
X32268884Y-31851226D01*
X32268884Y-31851226D02*
X32030789Y-31851226D01*
X32030789Y-31851226D02*
X31840313Y-31898845D01*
X31840313Y-31898845D02*
X31745075Y-31946464D01*
X31745075Y-31946464D02*
X31697456Y-31994083D01*
X31697456Y-31994083D02*
X31649837Y-32089321D01*
X38922037Y-36276033D02*
X38445846Y-35942700D01*
X38922037Y-35704605D02*
X37922037Y-35704605D01*
X37922037Y-35704605D02*
X37922037Y-36085557D01*
X37922037Y-36085557D02*
X37969656Y-36180795D01*
X37969656Y-36180795D02*
X38017275Y-36228414D01*
X38017275Y-36228414D02*
X38112513Y-36276033D01*
X38112513Y-36276033D02*
X38255370Y-36276033D01*
X38255370Y-36276033D02*
X38350608Y-36228414D01*
X38350608Y-36228414D02*
X38398227Y-36180795D01*
X38398227Y-36180795D02*
X38445846Y-36085557D01*
X38445846Y-36085557D02*
X38445846Y-35704605D01*
X38017275Y-36656986D02*
X37969656Y-36704605D01*
X37969656Y-36704605D02*
X37922037Y-36799843D01*
X37922037Y-36799843D02*
X37922037Y-37037938D01*
X37922037Y-37037938D02*
X37969656Y-37133176D01*
X37969656Y-37133176D02*
X38017275Y-37180795D01*
X38017275Y-37180795D02*
X38112513Y-37228414D01*
X38112513Y-37228414D02*
X38207751Y-37228414D01*
X38207751Y-37228414D02*
X38350608Y-37180795D01*
X38350608Y-37180795D02*
X38922037Y-36609367D01*
X38922037Y-36609367D02*
X38922037Y-37228414D01*
X20870598Y-35312083D02*
X20918218Y-35264464D01*
X20918218Y-35264464D02*
X20965837Y-35121607D01*
X20965837Y-35121607D02*
X20965837Y-35026369D01*
X20965837Y-35026369D02*
X20918218Y-34883512D01*
X20918218Y-34883512D02*
X20822979Y-34788274D01*
X20822979Y-34788274D02*
X20727741Y-34740655D01*
X20727741Y-34740655D02*
X20537265Y-34693036D01*
X20537265Y-34693036D02*
X20394408Y-34693036D01*
X20394408Y-34693036D02*
X20203932Y-34740655D01*
X20203932Y-34740655D02*
X20108694Y-34788274D01*
X20108694Y-34788274D02*
X20013456Y-34883512D01*
X20013456Y-34883512D02*
X19965837Y-35026369D01*
X19965837Y-35026369D02*
X19965837Y-35121607D01*
X19965837Y-35121607D02*
X20013456Y-35264464D01*
X20013456Y-35264464D02*
X20061075Y-35312083D01*
X20394408Y-35883512D02*
X20346789Y-35788274D01*
X20346789Y-35788274D02*
X20299170Y-35740655D01*
X20299170Y-35740655D02*
X20203932Y-35693036D01*
X20203932Y-35693036D02*
X20156313Y-35693036D01*
X20156313Y-35693036D02*
X20061075Y-35740655D01*
X20061075Y-35740655D02*
X20013456Y-35788274D01*
X20013456Y-35788274D02*
X19965837Y-35883512D01*
X19965837Y-35883512D02*
X19965837Y-36073988D01*
X19965837Y-36073988D02*
X20013456Y-36169226D01*
X20013456Y-36169226D02*
X20061075Y-36216845D01*
X20061075Y-36216845D02*
X20156313Y-36264464D01*
X20156313Y-36264464D02*
X20203932Y-36264464D01*
X20203932Y-36264464D02*
X20299170Y-36216845D01*
X20299170Y-36216845D02*
X20346789Y-36169226D01*
X20346789Y-36169226D02*
X20394408Y-36073988D01*
X20394408Y-36073988D02*
X20394408Y-35883512D01*
X20394408Y-35883512D02*
X20442027Y-35788274D01*
X20442027Y-35788274D02*
X20489646Y-35740655D01*
X20489646Y-35740655D02*
X20584884Y-35693036D01*
X20584884Y-35693036D02*
X20775360Y-35693036D01*
X20775360Y-35693036D02*
X20870598Y-35740655D01*
X20870598Y-35740655D02*
X20918218Y-35788274D01*
X20918218Y-35788274D02*
X20965837Y-35883512D01*
X20965837Y-35883512D02*
X20965837Y-36073988D01*
X20965837Y-36073988D02*
X20918218Y-36169226D01*
X20918218Y-36169226D02*
X20870598Y-36216845D01*
X20870598Y-36216845D02*
X20775360Y-36264464D01*
X20775360Y-36264464D02*
X20584884Y-36264464D01*
X20584884Y-36264464D02*
X20489646Y-36216845D01*
X20489646Y-36216845D02*
X20442027Y-36169226D01*
X20442027Y-36169226D02*
X20394408Y-36073988D01*
X17654219Y-83375714D02*
X16654219Y-83375714D01*
X16654219Y-83375714D02*
X16654219Y-83613809D01*
X16654219Y-83613809D02*
X16701838Y-83756666D01*
X16701838Y-83756666D02*
X16797076Y-83851904D01*
X16797076Y-83851904D02*
X16892314Y-83899523D01*
X16892314Y-83899523D02*
X17082790Y-83947142D01*
X17082790Y-83947142D02*
X17225647Y-83947142D01*
X17225647Y-83947142D02*
X17416123Y-83899523D01*
X17416123Y-83899523D02*
X17511361Y-83851904D01*
X17511361Y-83851904D02*
X17606600Y-83756666D01*
X17606600Y-83756666D02*
X17654219Y-83613809D01*
X17654219Y-83613809D02*
X17654219Y-83375714D01*
X17654219Y-84899523D02*
X17654219Y-84328095D01*
X17654219Y-84613809D02*
X16654219Y-84613809D01*
X16654219Y-84613809D02*
X16797076Y-84518571D01*
X16797076Y-84518571D02*
X16892314Y-84423333D01*
X16892314Y-84423333D02*
X16939933Y-84328095D01*
X17082790Y-85470952D02*
X17035171Y-85375714D01*
X17035171Y-85375714D02*
X16987552Y-85328095D01*
X16987552Y-85328095D02*
X16892314Y-85280476D01*
X16892314Y-85280476D02*
X16844695Y-85280476D01*
X16844695Y-85280476D02*
X16749457Y-85328095D01*
X16749457Y-85328095D02*
X16701838Y-85375714D01*
X16701838Y-85375714D02*
X16654219Y-85470952D01*
X16654219Y-85470952D02*
X16654219Y-85661428D01*
X16654219Y-85661428D02*
X16701838Y-85756666D01*
X16701838Y-85756666D02*
X16749457Y-85804285D01*
X16749457Y-85804285D02*
X16844695Y-85851904D01*
X16844695Y-85851904D02*
X16892314Y-85851904D01*
X16892314Y-85851904D02*
X16987552Y-85804285D01*
X16987552Y-85804285D02*
X17035171Y-85756666D01*
X17035171Y-85756666D02*
X17082790Y-85661428D01*
X17082790Y-85661428D02*
X17082790Y-85470952D01*
X17082790Y-85470952D02*
X17130409Y-85375714D01*
X17130409Y-85375714D02*
X17178028Y-85328095D01*
X17178028Y-85328095D02*
X17273266Y-85280476D01*
X17273266Y-85280476D02*
X17463742Y-85280476D01*
X17463742Y-85280476D02*
X17558980Y-85328095D01*
X17558980Y-85328095D02*
X17606600Y-85375714D01*
X17606600Y-85375714D02*
X17654219Y-85470952D01*
X17654219Y-85470952D02*
X17654219Y-85661428D01*
X17654219Y-85661428D02*
X17606600Y-85756666D01*
X17606600Y-85756666D02*
X17558980Y-85804285D01*
X17558980Y-85804285D02*
X17463742Y-85851904D01*
X17463742Y-85851904D02*
X17273266Y-85851904D01*
X17273266Y-85851904D02*
X17178028Y-85804285D01*
X17178028Y-85804285D02*
X17130409Y-85756666D01*
X17130409Y-85756666D02*
X17082790Y-85661428D01*
X-3958334Y-31129819D02*
X-3625001Y-30653628D01*
X-3386906Y-31129819D02*
X-3386906Y-30129819D01*
X-3386906Y-30129819D02*
X-3767858Y-30129819D01*
X-3767858Y-30129819D02*
X-3863096Y-30177438D01*
X-3863096Y-30177438D02*
X-3910715Y-30225057D01*
X-3910715Y-30225057D02*
X-3958334Y-30320295D01*
X-3958334Y-30320295D02*
X-3958334Y-30463152D01*
X-3958334Y-30463152D02*
X-3910715Y-30558390D01*
X-3910715Y-30558390D02*
X-3863096Y-30606009D01*
X-3863096Y-30606009D02*
X-3767858Y-30653628D01*
X-3767858Y-30653628D02*
X-3386906Y-30653628D01*
X-4815477Y-30463152D02*
X-4815477Y-31129819D01*
X-4577382Y-30082200D02*
X-4339287Y-30796485D01*
X-4339287Y-30796485D02*
X-4958334Y-30796485D01*
X-30192262Y-22850057D02*
X-30097024Y-22802438D01*
X-30097024Y-22802438D02*
X-30001786Y-22707200D01*
X-30001786Y-22707200D02*
X-29858929Y-22564342D01*
X-29858929Y-22564342D02*
X-29763691Y-22516723D01*
X-29763691Y-22516723D02*
X-29668453Y-22516723D01*
X-29716072Y-22754819D02*
X-29620834Y-22707200D01*
X-29620834Y-22707200D02*
X-29525596Y-22611961D01*
X-29525596Y-22611961D02*
X-29477977Y-22421485D01*
X-29477977Y-22421485D02*
X-29477977Y-22088152D01*
X-29477977Y-22088152D02*
X-29525596Y-21897676D01*
X-29525596Y-21897676D02*
X-29620834Y-21802438D01*
X-29620834Y-21802438D02*
X-29716072Y-21754819D01*
X-29716072Y-21754819D02*
X-29906548Y-21754819D01*
X-29906548Y-21754819D02*
X-30001786Y-21802438D01*
X-30001786Y-21802438D02*
X-30097024Y-21897676D01*
X-30097024Y-21897676D02*
X-30144643Y-22088152D01*
X-30144643Y-22088152D02*
X-30144643Y-22421485D01*
X-30144643Y-22421485D02*
X-30097024Y-22611961D01*
X-30097024Y-22611961D02*
X-30001786Y-22707200D01*
X-30001786Y-22707200D02*
X-29906548Y-22754819D01*
X-29906548Y-22754819D02*
X-29716072Y-22754819D01*
X-31097024Y-22754819D02*
X-30525596Y-22754819D01*
X-30811310Y-22754819D02*
X-30811310Y-21754819D01*
X-30811310Y-21754819D02*
X-30716072Y-21897676D01*
X-30716072Y-21897676D02*
X-30620834Y-21992914D01*
X-30620834Y-21992914D02*
X-30525596Y-22040533D01*
X30769225Y-37416804D02*
X30769225Y-37484148D01*
X30769225Y-37484148D02*
X30836569Y-37618835D01*
X30836569Y-37618835D02*
X30903912Y-37686178D01*
X30903912Y-37686178D02*
X31038599Y-37753522D01*
X31038599Y-37753522D02*
X31173286Y-37753522D01*
X31173286Y-37753522D02*
X31274301Y-37719850D01*
X31274301Y-37719850D02*
X31442660Y-37618835D01*
X31442660Y-37618835D02*
X31543675Y-37517820D01*
X31543675Y-37517820D02*
X31644691Y-37349461D01*
X31644691Y-37349461D02*
X31678362Y-37248446D01*
X31678362Y-37248446D02*
X31678362Y-37113759D01*
X31678362Y-37113759D02*
X31611019Y-36979072D01*
X31611019Y-36979072D02*
X31543675Y-36911728D01*
X31543675Y-36911728D02*
X31408988Y-36844385D01*
X31408988Y-36844385D02*
X31341645Y-36844385D01*
X30028447Y-36810713D02*
X30432508Y-37214774D01*
X30230477Y-37012743D02*
X30937584Y-36305637D01*
X30937584Y-36305637D02*
X30903912Y-36473995D01*
X30903912Y-36473995D02*
X30903912Y-36608682D01*
X30903912Y-36608682D02*
X30937584Y-36709698D01*
X29355011Y-36137278D02*
X29759072Y-36541339D01*
X29557042Y-36339308D02*
X30264149Y-35632201D01*
X30264149Y-35632201D02*
X30230477Y-35800560D01*
X30230477Y-35800560D02*
X30230477Y-35935247D01*
X30230477Y-35935247D02*
X30264149Y-36036262D01*
X15105559Y-34484819D02*
X15438892Y-34008628D01*
X15676987Y-34484819D02*
X15676987Y-33484819D01*
X15676987Y-33484819D02*
X15296035Y-33484819D01*
X15296035Y-33484819D02*
X15200797Y-33532438D01*
X15200797Y-33532438D02*
X15153178Y-33580057D01*
X15153178Y-33580057D02*
X15105559Y-33675295D01*
X15105559Y-33675295D02*
X15105559Y-33818152D01*
X15105559Y-33818152D02*
X15153178Y-33913390D01*
X15153178Y-33913390D02*
X15200797Y-33961009D01*
X15200797Y-33961009D02*
X15296035Y-34008628D01*
X15296035Y-34008628D02*
X15676987Y-34008628D01*
X14248416Y-33484819D02*
X14438892Y-33484819D01*
X14438892Y-33484819D02*
X14534130Y-33532438D01*
X14534130Y-33532438D02*
X14581749Y-33580057D01*
X14581749Y-33580057D02*
X14676987Y-33722914D01*
X14676987Y-33722914D02*
X14724606Y-33913390D01*
X14724606Y-33913390D02*
X14724606Y-34294342D01*
X14724606Y-34294342D02*
X14676987Y-34389580D01*
X14676987Y-34389580D02*
X14629368Y-34437200D01*
X14629368Y-34437200D02*
X14534130Y-34484819D01*
X14534130Y-34484819D02*
X14343654Y-34484819D01*
X14343654Y-34484819D02*
X14248416Y-34437200D01*
X14248416Y-34437200D02*
X14200797Y-34389580D01*
X14200797Y-34389580D02*
X14153178Y-34294342D01*
X14153178Y-34294342D02*
X14153178Y-34056247D01*
X14153178Y-34056247D02*
X14200797Y-33961009D01*
X14200797Y-33961009D02*
X14248416Y-33913390D01*
X14248416Y-33913390D02*
X14343654Y-33865771D01*
X14343654Y-33865771D02*
X14534130Y-33865771D01*
X14534130Y-33865771D02*
X14629368Y-33913390D01*
X14629368Y-33913390D02*
X14676987Y-33961009D01*
X14676987Y-33961009D02*
X14724606Y-34056247D01*
X12891719Y-64325714D02*
X11891719Y-64325714D01*
X11891719Y-64325714D02*
X11891719Y-64563809D01*
X11891719Y-64563809D02*
X11939338Y-64706666D01*
X11939338Y-64706666D02*
X12034576Y-64801904D01*
X12034576Y-64801904D02*
X12129814Y-64849523D01*
X12129814Y-64849523D02*
X12320290Y-64897142D01*
X12320290Y-64897142D02*
X12463147Y-64897142D01*
X12463147Y-64897142D02*
X12653623Y-64849523D01*
X12653623Y-64849523D02*
X12748861Y-64801904D01*
X12748861Y-64801904D02*
X12844100Y-64706666D01*
X12844100Y-64706666D02*
X12891719Y-64563809D01*
X12891719Y-64563809D02*
X12891719Y-64325714D01*
X12891719Y-65849523D02*
X12891719Y-65278095D01*
X12891719Y-65563809D02*
X11891719Y-65563809D01*
X11891719Y-65563809D02*
X12034576Y-65468571D01*
X12034576Y-65468571D02*
X12129814Y-65373333D01*
X12129814Y-65373333D02*
X12177433Y-65278095D01*
X11891719Y-66182857D02*
X11891719Y-66849523D01*
X11891719Y-66849523D02*
X12891719Y-66420952D01*
D11*
X53908333Y-32957419D02*
X53908333Y-33671704D01*
X53908333Y-33671704D02*
X53955952Y-33814561D01*
X53955952Y-33814561D02*
X54051190Y-33909800D01*
X54051190Y-33909800D02*
X54194047Y-33957419D01*
X54194047Y-33957419D02*
X54289285Y-33957419D01*
X53003571Y-33290752D02*
X53003571Y-33957419D01*
X53241666Y-32909800D02*
X53479761Y-33624085D01*
X53479761Y-33624085D02*
X52860714Y-33624085D01*
D10*
X-9882213Y-28357908D02*
X-10358404Y-28024575D01*
X-9882213Y-27786480D02*
X-10882213Y-27786480D01*
X-10882213Y-27786480D02*
X-10882213Y-28167432D01*
X-10882213Y-28167432D02*
X-10834594Y-28262670D01*
X-10834594Y-28262670D02*
X-10786975Y-28310289D01*
X-10786975Y-28310289D02*
X-10691737Y-28357908D01*
X-10691737Y-28357908D02*
X-10548880Y-28357908D01*
X-10548880Y-28357908D02*
X-10453642Y-28310289D01*
X-10453642Y-28310289D02*
X-10406023Y-28262670D01*
X-10406023Y-28262670D02*
X-10358404Y-28167432D01*
X-10358404Y-28167432D02*
X-10358404Y-27786480D01*
X-10882213Y-28691242D02*
X-10882213Y-29310289D01*
X-10882213Y-29310289D02*
X-10501261Y-28976956D01*
X-10501261Y-28976956D02*
X-10501261Y-29119813D01*
X-10501261Y-29119813D02*
X-10453642Y-29215051D01*
X-10453642Y-29215051D02*
X-10406023Y-29262670D01*
X-10406023Y-29262670D02*
X-10310785Y-29310289D01*
X-10310785Y-29310289D02*
X-10072690Y-29310289D01*
X-10072690Y-29310289D02*
X-9977452Y-29262670D01*
X-9977452Y-29262670D02*
X-9929832Y-29215051D01*
X-9929832Y-29215051D02*
X-9882213Y-29119813D01*
X-9882213Y-29119813D02*
X-9882213Y-28834099D01*
X-9882213Y-28834099D02*
X-9929832Y-28738861D01*
X-9929832Y-28738861D02*
X-9977452Y-28691242D01*
X3750998Y-37096492D02*
X3798618Y-37048873D01*
X3798618Y-37048873D02*
X3846237Y-36906016D01*
X3846237Y-36906016D02*
X3846237Y-36810778D01*
X3846237Y-36810778D02*
X3798618Y-36667921D01*
X3798618Y-36667921D02*
X3703379Y-36572683D01*
X3703379Y-36572683D02*
X3608141Y-36525064D01*
X3608141Y-36525064D02*
X3417665Y-36477445D01*
X3417665Y-36477445D02*
X3274808Y-36477445D01*
X3274808Y-36477445D02*
X3084332Y-36525064D01*
X3084332Y-36525064D02*
X2989094Y-36572683D01*
X2989094Y-36572683D02*
X2893856Y-36667921D01*
X2893856Y-36667921D02*
X2846237Y-36810778D01*
X2846237Y-36810778D02*
X2846237Y-36906016D01*
X2846237Y-36906016D02*
X2893856Y-37048873D01*
X2893856Y-37048873D02*
X2941475Y-37096492D01*
X3846237Y-38048873D02*
X3846237Y-37477445D01*
X3846237Y-37763159D02*
X2846237Y-37763159D01*
X2846237Y-37763159D02*
X2989094Y-37667921D01*
X2989094Y-37667921D02*
X3084332Y-37572683D01*
X3084332Y-37572683D02*
X3131951Y-37477445D01*
X2846237Y-38906016D02*
X2846237Y-38715540D01*
X2846237Y-38715540D02*
X2893856Y-38620302D01*
X2893856Y-38620302D02*
X2941475Y-38572683D01*
X2941475Y-38572683D02*
X3084332Y-38477445D01*
X3084332Y-38477445D02*
X3274808Y-38429826D01*
X3274808Y-38429826D02*
X3655760Y-38429826D01*
X3655760Y-38429826D02*
X3750998Y-38477445D01*
X3750998Y-38477445D02*
X3798618Y-38525064D01*
X3798618Y-38525064D02*
X3846237Y-38620302D01*
X3846237Y-38620302D02*
X3846237Y-38810778D01*
X3846237Y-38810778D02*
X3798618Y-38906016D01*
X3798618Y-38906016D02*
X3750998Y-38953635D01*
X3750998Y-38953635D02*
X3655760Y-39001254D01*
X3655760Y-39001254D02*
X3417665Y-39001254D01*
X3417665Y-39001254D02*
X3322427Y-38953635D01*
X3322427Y-38953635D02*
X3274808Y-38906016D01*
X3274808Y-38906016D02*
X3227189Y-38810778D01*
X3227189Y-38810778D02*
X3227189Y-38620302D01*
X3227189Y-38620302D02*
X3274808Y-38525064D01*
X3274808Y-38525064D02*
X3322427Y-38477445D01*
X3322427Y-38477445D02*
X3417665Y-38429826D01*
X65279219Y-102425714D02*
X64279219Y-102425714D01*
X64279219Y-102425714D02*
X64279219Y-102663809D01*
X64279219Y-102663809D02*
X64326838Y-102806666D01*
X64326838Y-102806666D02*
X64422076Y-102901904D01*
X64422076Y-102901904D02*
X64517314Y-102949523D01*
X64517314Y-102949523D02*
X64707790Y-102997142D01*
X64707790Y-102997142D02*
X64850647Y-102997142D01*
X64850647Y-102997142D02*
X65041123Y-102949523D01*
X65041123Y-102949523D02*
X65136361Y-102901904D01*
X65136361Y-102901904D02*
X65231600Y-102806666D01*
X65231600Y-102806666D02*
X65279219Y-102663809D01*
X65279219Y-102663809D02*
X65279219Y-102425714D01*
X64374457Y-103378095D02*
X64326838Y-103425714D01*
X64326838Y-103425714D02*
X64279219Y-103520952D01*
X64279219Y-103520952D02*
X64279219Y-103759047D01*
X64279219Y-103759047D02*
X64326838Y-103854285D01*
X64326838Y-103854285D02*
X64374457Y-103901904D01*
X64374457Y-103901904D02*
X64469695Y-103949523D01*
X64469695Y-103949523D02*
X64564933Y-103949523D01*
X64564933Y-103949523D02*
X64707790Y-103901904D01*
X64707790Y-103901904D02*
X65279219Y-103330476D01*
X65279219Y-103330476D02*
X65279219Y-103949523D01*
X65279219Y-104425714D02*
X65279219Y-104616190D01*
X65279219Y-104616190D02*
X65231600Y-104711428D01*
X65231600Y-104711428D02*
X65183980Y-104759047D01*
X65183980Y-104759047D02*
X65041123Y-104854285D01*
X65041123Y-104854285D02*
X64850647Y-104901904D01*
X64850647Y-104901904D02*
X64469695Y-104901904D01*
X64469695Y-104901904D02*
X64374457Y-104854285D01*
X64374457Y-104854285D02*
X64326838Y-104806666D01*
X64326838Y-104806666D02*
X64279219Y-104711428D01*
X64279219Y-104711428D02*
X64279219Y-104520952D01*
X64279219Y-104520952D02*
X64326838Y-104425714D01*
X64326838Y-104425714D02*
X64374457Y-104378095D01*
X64374457Y-104378095D02*
X64469695Y-104330476D01*
X64469695Y-104330476D02*
X64707790Y-104330476D01*
X64707790Y-104330476D02*
X64803028Y-104378095D01*
X64803028Y-104378095D02*
X64850647Y-104425714D01*
X64850647Y-104425714D02*
X64898266Y-104520952D01*
X64898266Y-104520952D02*
X64898266Y-104711428D01*
X64898266Y-104711428D02*
X64850647Y-104806666D01*
X64850647Y-104806666D02*
X64803028Y-104854285D01*
X64803028Y-104854285D02*
X64707790Y-104901904D01*
X-28307143Y-29459580D02*
X-28259524Y-29507200D01*
X-28259524Y-29507200D02*
X-28116667Y-29554819D01*
X-28116667Y-29554819D02*
X-28021429Y-29554819D01*
X-28021429Y-29554819D02*
X-27878572Y-29507200D01*
X-27878572Y-29507200D02*
X-27783334Y-29411961D01*
X-27783334Y-29411961D02*
X-27735715Y-29316723D01*
X-27735715Y-29316723D02*
X-27688096Y-29126247D01*
X-27688096Y-29126247D02*
X-27688096Y-28983390D01*
X-27688096Y-28983390D02*
X-27735715Y-28792914D01*
X-27735715Y-28792914D02*
X-27783334Y-28697676D01*
X-27783334Y-28697676D02*
X-27878572Y-28602438D01*
X-27878572Y-28602438D02*
X-28021429Y-28554819D01*
X-28021429Y-28554819D02*
X-28116667Y-28554819D01*
X-28116667Y-28554819D02*
X-28259524Y-28602438D01*
X-28259524Y-28602438D02*
X-28307143Y-28650057D01*
X-29259524Y-29554819D02*
X-28688096Y-29554819D01*
X-28973810Y-29554819D02*
X-28973810Y-28554819D01*
X-28973810Y-28554819D02*
X-28878572Y-28697676D01*
X-28878572Y-28697676D02*
X-28783334Y-28792914D01*
X-28783334Y-28792914D02*
X-28688096Y-28840533D01*
X-29735715Y-29554819D02*
X-29926191Y-29554819D01*
X-29926191Y-29554819D02*
X-30021429Y-29507200D01*
X-30021429Y-29507200D02*
X-30069048Y-29459580D01*
X-30069048Y-29459580D02*
X-30164286Y-29316723D01*
X-30164286Y-29316723D02*
X-30211905Y-29126247D01*
X-30211905Y-29126247D02*
X-30211905Y-28745295D01*
X-30211905Y-28745295D02*
X-30164286Y-28650057D01*
X-30164286Y-28650057D02*
X-30116667Y-28602438D01*
X-30116667Y-28602438D02*
X-30021429Y-28554819D01*
X-30021429Y-28554819D02*
X-29830953Y-28554819D01*
X-29830953Y-28554819D02*
X-29735715Y-28602438D01*
X-29735715Y-28602438D02*
X-29688096Y-28650057D01*
X-29688096Y-28650057D02*
X-29640477Y-28745295D01*
X-29640477Y-28745295D02*
X-29640477Y-28983390D01*
X-29640477Y-28983390D02*
X-29688096Y-29078628D01*
X-29688096Y-29078628D02*
X-29735715Y-29126247D01*
X-29735715Y-29126247D02*
X-29830953Y-29173866D01*
X-29830953Y-29173866D02*
X-30021429Y-29173866D01*
X-30021429Y-29173866D02*
X-30116667Y-29126247D01*
X-30116667Y-29126247D02*
X-30164286Y-29078628D01*
X-30164286Y-29078628D02*
X-30211905Y-28983390D01*
X-6158281Y-64325714D02*
X-7158281Y-64325714D01*
X-7158281Y-64325714D02*
X-7158281Y-64563809D01*
X-7158281Y-64563809D02*
X-7110662Y-64706666D01*
X-7110662Y-64706666D02*
X-7015424Y-64801904D01*
X-7015424Y-64801904D02*
X-6920186Y-64849523D01*
X-6920186Y-64849523D02*
X-6729710Y-64897142D01*
X-6729710Y-64897142D02*
X-6586853Y-64897142D01*
X-6586853Y-64897142D02*
X-6396377Y-64849523D01*
X-6396377Y-64849523D02*
X-6301139Y-64801904D01*
X-6301139Y-64801904D02*
X-6205900Y-64706666D01*
X-6205900Y-64706666D02*
X-6158281Y-64563809D01*
X-6158281Y-64563809D02*
X-6158281Y-64325714D01*
X-6158281Y-65849523D02*
X-6158281Y-65278095D01*
X-6158281Y-65563809D02*
X-7158281Y-65563809D01*
X-7158281Y-65563809D02*
X-7015424Y-65468571D01*
X-7015424Y-65468571D02*
X-6920186Y-65373333D01*
X-6920186Y-65373333D02*
X-6872567Y-65278095D01*
X-7063043Y-66230476D02*
X-7110662Y-66278095D01*
X-7110662Y-66278095D02*
X-7158281Y-66373333D01*
X-7158281Y-66373333D02*
X-7158281Y-66611428D01*
X-7158281Y-66611428D02*
X-7110662Y-66706666D01*
X-7110662Y-66706666D02*
X-7063043Y-66754285D01*
X-7063043Y-66754285D02*
X-6967805Y-66801904D01*
X-6967805Y-66801904D02*
X-6872567Y-66801904D01*
X-6872567Y-66801904D02*
X-6729710Y-66754285D01*
X-6729710Y-66754285D02*
X-6158281Y-66182857D01*
X-6158281Y-66182857D02*
X-6158281Y-66801904D01*
X60516719Y-45275714D02*
X59516719Y-45275714D01*
X59516719Y-45275714D02*
X59516719Y-45513809D01*
X59516719Y-45513809D02*
X59564338Y-45656666D01*
X59564338Y-45656666D02*
X59659576Y-45751904D01*
X59659576Y-45751904D02*
X59754814Y-45799523D01*
X59754814Y-45799523D02*
X59945290Y-45847142D01*
X59945290Y-45847142D02*
X60088147Y-45847142D01*
X60088147Y-45847142D02*
X60278623Y-45799523D01*
X60278623Y-45799523D02*
X60373861Y-45751904D01*
X60373861Y-45751904D02*
X60469100Y-45656666D01*
X60469100Y-45656666D02*
X60516719Y-45513809D01*
X60516719Y-45513809D02*
X60516719Y-45275714D01*
X59516719Y-46180476D02*
X59516719Y-46799523D01*
X59516719Y-46799523D02*
X59897671Y-46466190D01*
X59897671Y-46466190D02*
X59897671Y-46609047D01*
X59897671Y-46609047D02*
X59945290Y-46704285D01*
X59945290Y-46704285D02*
X59992909Y-46751904D01*
X59992909Y-46751904D02*
X60088147Y-46799523D01*
X60088147Y-46799523D02*
X60326242Y-46799523D01*
X60326242Y-46799523D02*
X60421480Y-46751904D01*
X60421480Y-46751904D02*
X60469100Y-46704285D01*
X60469100Y-46704285D02*
X60516719Y-46609047D01*
X60516719Y-46609047D02*
X60516719Y-46323333D01*
X60516719Y-46323333D02*
X60469100Y-46228095D01*
X60469100Y-46228095D02*
X60421480Y-46180476D01*
X59516719Y-47418571D02*
X59516719Y-47513809D01*
X59516719Y-47513809D02*
X59564338Y-47609047D01*
X59564338Y-47609047D02*
X59611957Y-47656666D01*
X59611957Y-47656666D02*
X59707195Y-47704285D01*
X59707195Y-47704285D02*
X59897671Y-47751904D01*
X59897671Y-47751904D02*
X60135766Y-47751904D01*
X60135766Y-47751904D02*
X60326242Y-47704285D01*
X60326242Y-47704285D02*
X60421480Y-47656666D01*
X60421480Y-47656666D02*
X60469100Y-47609047D01*
X60469100Y-47609047D02*
X60516719Y-47513809D01*
X60516719Y-47513809D02*
X60516719Y-47418571D01*
X60516719Y-47418571D02*
X60469100Y-47323333D01*
X60469100Y-47323333D02*
X60421480Y-47275714D01*
X60421480Y-47275714D02*
X60326242Y-47228095D01*
X60326242Y-47228095D02*
X60135766Y-47180476D01*
X60135766Y-47180476D02*
X59897671Y-47180476D01*
X59897671Y-47180476D02*
X59707195Y-47228095D01*
X59707195Y-47228095D02*
X59611957Y-47275714D01*
X59611957Y-47275714D02*
X59564338Y-47323333D01*
X59564338Y-47323333D02*
X59516719Y-47418571D01*
X61356800Y-23679409D02*
X61404419Y-23822266D01*
X61404419Y-23822266D02*
X61404419Y-24060361D01*
X61404419Y-24060361D02*
X61356800Y-24155599D01*
X61356800Y-24155599D02*
X61309180Y-24203218D01*
X61309180Y-24203218D02*
X61213942Y-24250837D01*
X61213942Y-24250837D02*
X61118704Y-24250837D01*
X61118704Y-24250837D02*
X61023466Y-24203218D01*
X61023466Y-24203218D02*
X60975847Y-24155599D01*
X60975847Y-24155599D02*
X60928228Y-24060361D01*
X60928228Y-24060361D02*
X60880609Y-23869885D01*
X60880609Y-23869885D02*
X60832990Y-23774647D01*
X60832990Y-23774647D02*
X60785371Y-23727028D01*
X60785371Y-23727028D02*
X60690133Y-23679409D01*
X60690133Y-23679409D02*
X60594895Y-23679409D01*
X60594895Y-23679409D02*
X60499657Y-23727028D01*
X60499657Y-23727028D02*
X60452038Y-23774647D01*
X60452038Y-23774647D02*
X60404419Y-23869885D01*
X60404419Y-23869885D02*
X60404419Y-24107980D01*
X60404419Y-24107980D02*
X60452038Y-24250837D01*
X60404419Y-24584171D02*
X61404419Y-24822266D01*
X61404419Y-24822266D02*
X60690133Y-25012742D01*
X60690133Y-25012742D02*
X61404419Y-25203218D01*
X61404419Y-25203218D02*
X60404419Y-25441314D01*
X61499657Y-25584171D02*
X61499657Y-26346075D01*
X61404419Y-27155599D02*
X60928228Y-26822266D01*
X61404419Y-26584171D02*
X60404419Y-26584171D01*
X60404419Y-26584171D02*
X60404419Y-26965123D01*
X60404419Y-26965123D02*
X60452038Y-27060361D01*
X60452038Y-27060361D02*
X60499657Y-27107980D01*
X60499657Y-27107980D02*
X60594895Y-27155599D01*
X60594895Y-27155599D02*
X60737752Y-27155599D01*
X60737752Y-27155599D02*
X60832990Y-27107980D01*
X60832990Y-27107980D02*
X60880609Y-27060361D01*
X60880609Y-27060361D02*
X60928228Y-26965123D01*
X60928228Y-26965123D02*
X60928228Y-26584171D01*
X60880609Y-27584171D02*
X60880609Y-27917504D01*
X61404419Y-28060361D02*
X61404419Y-27584171D01*
X61404419Y-27584171D02*
X60404419Y-27584171D01*
X60404419Y-27584171D02*
X60404419Y-28060361D01*
X61356800Y-28441314D02*
X61404419Y-28584171D01*
X61404419Y-28584171D02*
X61404419Y-28822266D01*
X61404419Y-28822266D02*
X61356800Y-28917504D01*
X61356800Y-28917504D02*
X61309180Y-28965123D01*
X61309180Y-28965123D02*
X61213942Y-29012742D01*
X61213942Y-29012742D02*
X61118704Y-29012742D01*
X61118704Y-29012742D02*
X61023466Y-28965123D01*
X61023466Y-28965123D02*
X60975847Y-28917504D01*
X60975847Y-28917504D02*
X60928228Y-28822266D01*
X60928228Y-28822266D02*
X60880609Y-28631790D01*
X60880609Y-28631790D02*
X60832990Y-28536552D01*
X60832990Y-28536552D02*
X60785371Y-28488933D01*
X60785371Y-28488933D02*
X60690133Y-28441314D01*
X60690133Y-28441314D02*
X60594895Y-28441314D01*
X60594895Y-28441314D02*
X60499657Y-28488933D01*
X60499657Y-28488933D02*
X60452038Y-28536552D01*
X60452038Y-28536552D02*
X60404419Y-28631790D01*
X60404419Y-28631790D02*
X60404419Y-28869885D01*
X60404419Y-28869885D02*
X60452038Y-29012742D01*
X60880609Y-29441314D02*
X60880609Y-29774647D01*
X61404419Y-29917504D02*
X61404419Y-29441314D01*
X61404419Y-29441314D02*
X60404419Y-29441314D01*
X60404419Y-29441314D02*
X60404419Y-29917504D01*
X60404419Y-30203219D02*
X60404419Y-30774647D01*
X61404419Y-30488933D02*
X60404419Y-30488933D01*
X61404419Y-31631790D02*
X61404419Y-31060362D01*
X61404419Y-31346076D02*
X60404419Y-31346076D01*
X60404419Y-31346076D02*
X60547276Y-31250838D01*
X60547276Y-31250838D02*
X60642514Y-31155600D01*
X60642514Y-31155600D02*
X60690133Y-31060362D01*
X-41802681Y-102901905D02*
X-42802681Y-102901905D01*
X-42802681Y-102901905D02*
X-42802681Y-103140000D01*
X-42802681Y-103140000D02*
X-42755062Y-103282857D01*
X-42755062Y-103282857D02*
X-42659824Y-103378095D01*
X-42659824Y-103378095D02*
X-42564586Y-103425714D01*
X-42564586Y-103425714D02*
X-42374110Y-103473333D01*
X-42374110Y-103473333D02*
X-42231253Y-103473333D01*
X-42231253Y-103473333D02*
X-42040777Y-103425714D01*
X-42040777Y-103425714D02*
X-41945539Y-103378095D01*
X-41945539Y-103378095D02*
X-41850300Y-103282857D01*
X-41850300Y-103282857D02*
X-41802681Y-103140000D01*
X-41802681Y-103140000D02*
X-41802681Y-102901905D01*
X-42469348Y-104330476D02*
X-41802681Y-104330476D01*
X-42850300Y-104092381D02*
X-42136015Y-103854286D01*
X-42136015Y-103854286D02*
X-42136015Y-104473333D01*
X38330684Y-23392330D02*
X38378303Y-23439950D01*
X38378303Y-23439950D02*
X38521160Y-23487569D01*
X38521160Y-23487569D02*
X38616398Y-23487569D01*
X38616398Y-23487569D02*
X38759255Y-23439950D01*
X38759255Y-23439950D02*
X38854493Y-23344711D01*
X38854493Y-23344711D02*
X38902112Y-23249473D01*
X38902112Y-23249473D02*
X38949731Y-23058997D01*
X38949731Y-23058997D02*
X38949731Y-22916140D01*
X38949731Y-22916140D02*
X38902112Y-22725664D01*
X38902112Y-22725664D02*
X38854493Y-22630426D01*
X38854493Y-22630426D02*
X38759255Y-22535188D01*
X38759255Y-22535188D02*
X38616398Y-22487569D01*
X38616398Y-22487569D02*
X38521160Y-22487569D01*
X38521160Y-22487569D02*
X38378303Y-22535188D01*
X38378303Y-22535188D02*
X38330684Y-22582807D01*
X37949731Y-22582807D02*
X37902112Y-22535188D01*
X37902112Y-22535188D02*
X37806874Y-22487569D01*
X37806874Y-22487569D02*
X37568779Y-22487569D01*
X37568779Y-22487569D02*
X37473541Y-22535188D01*
X37473541Y-22535188D02*
X37425922Y-22582807D01*
X37425922Y-22582807D02*
X37378303Y-22678045D01*
X37378303Y-22678045D02*
X37378303Y-22773283D01*
X37378303Y-22773283D02*
X37425922Y-22916140D01*
X37425922Y-22916140D02*
X37997350Y-23487569D01*
X37997350Y-23487569D02*
X37378303Y-23487569D01*
X-6325449Y-19962519D02*
X-6325449Y-20676804D01*
X-6325449Y-20676804D02*
X-6277830Y-20819661D01*
X-6277830Y-20819661D02*
X-6182592Y-20914900D01*
X-6182592Y-20914900D02*
X-6039735Y-20962519D01*
X-6039735Y-20962519D02*
X-5944497Y-20962519D01*
X-7325449Y-20962519D02*
X-6754021Y-20962519D01*
X-7039735Y-20962519D02*
X-7039735Y-19962519D01*
X-7039735Y-19962519D02*
X-6944497Y-20105376D01*
X-6944497Y-20105376D02*
X-6849259Y-20200614D01*
X-6849259Y-20200614D02*
X-6754021Y-20248233D01*
X3694418Y-21089843D02*
X3742037Y-21232700D01*
X3742037Y-21232700D02*
X3742037Y-21470795D01*
X3742037Y-21470795D02*
X3694418Y-21566033D01*
X3694418Y-21566033D02*
X3646798Y-21613652D01*
X3646798Y-21613652D02*
X3551560Y-21661271D01*
X3551560Y-21661271D02*
X3456322Y-21661271D01*
X3456322Y-21661271D02*
X3361084Y-21613652D01*
X3361084Y-21613652D02*
X3313465Y-21566033D01*
X3313465Y-21566033D02*
X3265846Y-21470795D01*
X3265846Y-21470795D02*
X3218227Y-21280319D01*
X3218227Y-21280319D02*
X3170608Y-21185081D01*
X3170608Y-21185081D02*
X3122989Y-21137462D01*
X3122989Y-21137462D02*
X3027751Y-21089843D01*
X3027751Y-21089843D02*
X2932513Y-21089843D01*
X2932513Y-21089843D02*
X2837275Y-21137462D01*
X2837275Y-21137462D02*
X2789656Y-21185081D01*
X2789656Y-21185081D02*
X2742037Y-21280319D01*
X2742037Y-21280319D02*
X2742037Y-21518414D01*
X2742037Y-21518414D02*
X2789656Y-21661271D01*
X2742037Y-21994605D02*
X3742037Y-22232700D01*
X3742037Y-22232700D02*
X3027751Y-22423176D01*
X3027751Y-22423176D02*
X3742037Y-22613652D01*
X3742037Y-22613652D02*
X2742037Y-22851748D01*
X3837275Y-22994605D02*
X3837275Y-23756509D01*
X3218227Y-24327938D02*
X3265846Y-24470795D01*
X3265846Y-24470795D02*
X3313465Y-24518414D01*
X3313465Y-24518414D02*
X3408703Y-24566033D01*
X3408703Y-24566033D02*
X3551560Y-24566033D01*
X3551560Y-24566033D02*
X3646798Y-24518414D01*
X3646798Y-24518414D02*
X3694418Y-24470795D01*
X3694418Y-24470795D02*
X3742037Y-24375557D01*
X3742037Y-24375557D02*
X3742037Y-23994605D01*
X3742037Y-23994605D02*
X2742037Y-23994605D01*
X2742037Y-23994605D02*
X2742037Y-24327938D01*
X2742037Y-24327938D02*
X2789656Y-24423176D01*
X2789656Y-24423176D02*
X2837275Y-24470795D01*
X2837275Y-24470795D02*
X2932513Y-24518414D01*
X2932513Y-24518414D02*
X3027751Y-24518414D01*
X3027751Y-24518414D02*
X3122989Y-24470795D01*
X3122989Y-24470795D02*
X3170608Y-24423176D01*
X3170608Y-24423176D02*
X3218227Y-24327938D01*
X3218227Y-24327938D02*
X3218227Y-23994605D01*
X2742037Y-25185081D02*
X2742037Y-25375557D01*
X2742037Y-25375557D02*
X2789656Y-25470795D01*
X2789656Y-25470795D02*
X2884894Y-25566033D01*
X2884894Y-25566033D02*
X3075370Y-25613652D01*
X3075370Y-25613652D02*
X3408703Y-25613652D01*
X3408703Y-25613652D02*
X3599179Y-25566033D01*
X3599179Y-25566033D02*
X3694418Y-25470795D01*
X3694418Y-25470795D02*
X3742037Y-25375557D01*
X3742037Y-25375557D02*
X3742037Y-25185081D01*
X3742037Y-25185081D02*
X3694418Y-25089843D01*
X3694418Y-25089843D02*
X3599179Y-24994605D01*
X3599179Y-24994605D02*
X3408703Y-24946986D01*
X3408703Y-24946986D02*
X3075370Y-24946986D01*
X3075370Y-24946986D02*
X2884894Y-24994605D01*
X2884894Y-24994605D02*
X2789656Y-25089843D01*
X2789656Y-25089843D02*
X2742037Y-25185081D01*
X2742037Y-26232700D02*
X2742037Y-26423176D01*
X2742037Y-26423176D02*
X2789656Y-26518414D01*
X2789656Y-26518414D02*
X2884894Y-26613652D01*
X2884894Y-26613652D02*
X3075370Y-26661271D01*
X3075370Y-26661271D02*
X3408703Y-26661271D01*
X3408703Y-26661271D02*
X3599179Y-26613652D01*
X3599179Y-26613652D02*
X3694418Y-26518414D01*
X3694418Y-26518414D02*
X3742037Y-26423176D01*
X3742037Y-26423176D02*
X3742037Y-26232700D01*
X3742037Y-26232700D02*
X3694418Y-26137462D01*
X3694418Y-26137462D02*
X3599179Y-26042224D01*
X3599179Y-26042224D02*
X3408703Y-25994605D01*
X3408703Y-25994605D02*
X3075370Y-25994605D01*
X3075370Y-25994605D02*
X2884894Y-26042224D01*
X2884894Y-26042224D02*
X2789656Y-26137462D01*
X2789656Y-26137462D02*
X2742037Y-26232700D01*
X2742037Y-26946986D02*
X2742037Y-27518414D01*
X3742037Y-27232700D02*
X2742037Y-27232700D01*
X3742037Y-28375557D02*
X3742037Y-27804129D01*
X3742037Y-28089843D02*
X2742037Y-28089843D01*
X2742037Y-28089843D02*
X2884894Y-27994605D01*
X2884894Y-27994605D02*
X2980132Y-27899367D01*
X2980132Y-27899367D02*
X3027751Y-27804129D01*
X-51402281Y-121951905D02*
X-52402281Y-121951905D01*
X-52402281Y-121951905D02*
X-52402281Y-122190000D01*
X-52402281Y-122190000D02*
X-52354662Y-122332857D01*
X-52354662Y-122332857D02*
X-52259424Y-122428095D01*
X-52259424Y-122428095D02*
X-52164186Y-122475714D01*
X-52164186Y-122475714D02*
X-51973710Y-122523333D01*
X-51973710Y-122523333D02*
X-51830853Y-122523333D01*
X-51830853Y-122523333D02*
X-51640377Y-122475714D01*
X-51640377Y-122475714D02*
X-51545139Y-122428095D01*
X-51545139Y-122428095D02*
X-51449900Y-122332857D01*
X-51449900Y-122332857D02*
X-51402281Y-122190000D01*
X-51402281Y-122190000D02*
X-51402281Y-121951905D01*
X-52402281Y-123428095D02*
X-52402281Y-122951905D01*
X-52402281Y-122951905D02*
X-51926091Y-122904286D01*
X-51926091Y-122904286D02*
X-51973710Y-122951905D01*
X-51973710Y-122951905D02*
X-52021329Y-123047143D01*
X-52021329Y-123047143D02*
X-52021329Y-123285238D01*
X-52021329Y-123285238D02*
X-51973710Y-123380476D01*
X-51973710Y-123380476D02*
X-51926091Y-123428095D01*
X-51926091Y-123428095D02*
X-51830853Y-123475714D01*
X-51830853Y-123475714D02*
X-51592758Y-123475714D01*
X-51592758Y-123475714D02*
X-51497520Y-123428095D01*
X-51497520Y-123428095D02*
X-51449900Y-123380476D01*
X-51449900Y-123380476D02*
X-51402281Y-123285238D01*
X-51402281Y-123285238D02*
X-51402281Y-123047143D01*
X-51402281Y-123047143D02*
X-51449900Y-122951905D01*
X-51449900Y-122951905D02*
X-51497520Y-122904286D01*
X6503837Y-31796345D02*
X7313360Y-31796345D01*
X7313360Y-31796345D02*
X7408598Y-31843964D01*
X7408598Y-31843964D02*
X7456218Y-31891583D01*
X7456218Y-31891583D02*
X7503837Y-31986821D01*
X7503837Y-31986821D02*
X7503837Y-32177297D01*
X7503837Y-32177297D02*
X7456218Y-32272535D01*
X7456218Y-32272535D02*
X7408598Y-32320154D01*
X7408598Y-32320154D02*
X7313360Y-32367773D01*
X7313360Y-32367773D02*
X6503837Y-32367773D01*
X6837170Y-33272535D02*
X7503837Y-33272535D01*
X6456218Y-33034440D02*
X7170503Y-32796345D01*
X7170503Y-32796345D02*
X7170503Y-33415392D01*
X22416719Y-45275714D02*
X21416719Y-45275714D01*
X21416719Y-45275714D02*
X21416719Y-45513809D01*
X21416719Y-45513809D02*
X21464338Y-45656666D01*
X21464338Y-45656666D02*
X21559576Y-45751904D01*
X21559576Y-45751904D02*
X21654814Y-45799523D01*
X21654814Y-45799523D02*
X21845290Y-45847142D01*
X21845290Y-45847142D02*
X21988147Y-45847142D01*
X21988147Y-45847142D02*
X22178623Y-45799523D01*
X22178623Y-45799523D02*
X22273861Y-45751904D01*
X22273861Y-45751904D02*
X22369100Y-45656666D01*
X22369100Y-45656666D02*
X22416719Y-45513809D01*
X22416719Y-45513809D02*
X22416719Y-45275714D01*
X21511957Y-46228095D02*
X21464338Y-46275714D01*
X21464338Y-46275714D02*
X21416719Y-46370952D01*
X21416719Y-46370952D02*
X21416719Y-46609047D01*
X21416719Y-46609047D02*
X21464338Y-46704285D01*
X21464338Y-46704285D02*
X21511957Y-46751904D01*
X21511957Y-46751904D02*
X21607195Y-46799523D01*
X21607195Y-46799523D02*
X21702433Y-46799523D01*
X21702433Y-46799523D02*
X21845290Y-46751904D01*
X21845290Y-46751904D02*
X22416719Y-46180476D01*
X22416719Y-46180476D02*
X22416719Y-46799523D01*
X22416719Y-47751904D02*
X22416719Y-47180476D01*
X22416719Y-47466190D02*
X21416719Y-47466190D01*
X21416719Y-47466190D02*
X21559576Y-47370952D01*
X21559576Y-47370952D02*
X21654814Y-47275714D01*
X21654814Y-47275714D02*
X21702433Y-47180476D01*
X40322878Y-27537809D02*
X40799069Y-27537809D01*
X39799069Y-27204476D02*
X40322878Y-27537809D01*
X40322878Y-27537809D02*
X39799069Y-27871142D01*
X40799069Y-28728285D02*
X40799069Y-28156857D01*
X40799069Y-28442571D02*
X39799069Y-28442571D01*
X39799069Y-28442571D02*
X39941926Y-28347333D01*
X39941926Y-28347333D02*
X40037164Y-28252095D01*
X40037164Y-28252095D02*
X40084783Y-28156857D01*
X48684819Y-121475714D02*
X47684819Y-121475714D01*
X47684819Y-121475714D02*
X47684819Y-121713809D01*
X47684819Y-121713809D02*
X47732438Y-121856666D01*
X47732438Y-121856666D02*
X47827676Y-121951904D01*
X47827676Y-121951904D02*
X47922914Y-121999523D01*
X47922914Y-121999523D02*
X48113390Y-122047142D01*
X48113390Y-122047142D02*
X48256247Y-122047142D01*
X48256247Y-122047142D02*
X48446723Y-121999523D01*
X48446723Y-121999523D02*
X48541961Y-121951904D01*
X48541961Y-121951904D02*
X48637200Y-121856666D01*
X48637200Y-121856666D02*
X48684819Y-121713809D01*
X48684819Y-121713809D02*
X48684819Y-121475714D01*
X47780057Y-122428095D02*
X47732438Y-122475714D01*
X47732438Y-122475714D02*
X47684819Y-122570952D01*
X47684819Y-122570952D02*
X47684819Y-122809047D01*
X47684819Y-122809047D02*
X47732438Y-122904285D01*
X47732438Y-122904285D02*
X47780057Y-122951904D01*
X47780057Y-122951904D02*
X47875295Y-122999523D01*
X47875295Y-122999523D02*
X47970533Y-122999523D01*
X47970533Y-122999523D02*
X48113390Y-122951904D01*
X48113390Y-122951904D02*
X48684819Y-122380476D01*
X48684819Y-122380476D02*
X48684819Y-122999523D01*
X47684819Y-123904285D02*
X47684819Y-123428095D01*
X47684819Y-123428095D02*
X48161009Y-123380476D01*
X48161009Y-123380476D02*
X48113390Y-123428095D01*
X48113390Y-123428095D02*
X48065771Y-123523333D01*
X48065771Y-123523333D02*
X48065771Y-123761428D01*
X48065771Y-123761428D02*
X48113390Y-123856666D01*
X48113390Y-123856666D02*
X48161009Y-123904285D01*
X48161009Y-123904285D02*
X48256247Y-123951904D01*
X48256247Y-123951904D02*
X48494342Y-123951904D01*
X48494342Y-123951904D02*
X48589580Y-123904285D01*
X48589580Y-123904285D02*
X48637200Y-123856666D01*
X48637200Y-123856666D02*
X48684819Y-123761428D01*
X48684819Y-123761428D02*
X48684819Y-123523333D01*
X48684819Y-123523333D02*
X48637200Y-123428095D01*
X48637200Y-123428095D02*
X48589580Y-123380476D01*
X-168991Y-29866666D02*
X-168991Y-29533333D01*
X354819Y-29533333D02*
X-645181Y-29533333D01*
X-645181Y-29533333D02*
X-645181Y-30009523D01*
X354819Y-30914285D02*
X354819Y-30342857D01*
X354819Y-30628571D02*
X-645181Y-30628571D01*
X-645181Y-30628571D02*
X-502324Y-30533333D01*
X-502324Y-30533333D02*
X-407086Y-30438095D01*
X-407086Y-30438095D02*
X-359467Y-30342857D01*
X38269598Y-32645083D02*
X38317218Y-32597464D01*
X38317218Y-32597464D02*
X38364837Y-32454607D01*
X38364837Y-32454607D02*
X38364837Y-32359369D01*
X38364837Y-32359369D02*
X38317218Y-32216512D01*
X38317218Y-32216512D02*
X38221979Y-32121274D01*
X38221979Y-32121274D02*
X38126741Y-32073655D01*
X38126741Y-32073655D02*
X37936265Y-32026036D01*
X37936265Y-32026036D02*
X37793408Y-32026036D01*
X37793408Y-32026036D02*
X37602932Y-32073655D01*
X37602932Y-32073655D02*
X37507694Y-32121274D01*
X37507694Y-32121274D02*
X37412456Y-32216512D01*
X37412456Y-32216512D02*
X37364837Y-32359369D01*
X37364837Y-32359369D02*
X37364837Y-32454607D01*
X37364837Y-32454607D02*
X37412456Y-32597464D01*
X37412456Y-32597464D02*
X37460075Y-32645083D01*
X37364837Y-32978417D02*
X37364837Y-33597464D01*
X37364837Y-33597464D02*
X37745789Y-33264131D01*
X37745789Y-33264131D02*
X37745789Y-33406988D01*
X37745789Y-33406988D02*
X37793408Y-33502226D01*
X37793408Y-33502226D02*
X37841027Y-33549845D01*
X37841027Y-33549845D02*
X37936265Y-33597464D01*
X37936265Y-33597464D02*
X38174360Y-33597464D01*
X38174360Y-33597464D02*
X38269598Y-33549845D01*
X38269598Y-33549845D02*
X38317218Y-33502226D01*
X38317218Y-33502226D02*
X38364837Y-33406988D01*
X38364837Y-33406988D02*
X38364837Y-33121274D01*
X38364837Y-33121274D02*
X38317218Y-33026036D01*
X38317218Y-33026036D02*
X38269598Y-32978417D01*
X10955998Y-29926433D02*
X11003618Y-29878814D01*
X11003618Y-29878814D02*
X11051237Y-29735957D01*
X11051237Y-29735957D02*
X11051237Y-29640719D01*
X11051237Y-29640719D02*
X11003618Y-29497862D01*
X11003618Y-29497862D02*
X10908379Y-29402624D01*
X10908379Y-29402624D02*
X10813141Y-29355005D01*
X10813141Y-29355005D02*
X10622665Y-29307386D01*
X10622665Y-29307386D02*
X10479808Y-29307386D01*
X10479808Y-29307386D02*
X10289332Y-29355005D01*
X10289332Y-29355005D02*
X10194094Y-29402624D01*
X10194094Y-29402624D02*
X10098856Y-29497862D01*
X10098856Y-29497862D02*
X10051237Y-29640719D01*
X10051237Y-29640719D02*
X10051237Y-29735957D01*
X10051237Y-29735957D02*
X10098856Y-29878814D01*
X10098856Y-29878814D02*
X10146475Y-29926433D01*
X11051237Y-30878814D02*
X11051237Y-30307386D01*
X11051237Y-30593100D02*
X10051237Y-30593100D01*
X10051237Y-30593100D02*
X10194094Y-30497862D01*
X10194094Y-30497862D02*
X10289332Y-30402624D01*
X10289332Y-30402624D02*
X10336951Y-30307386D01*
X50991719Y-64325714D02*
X49991719Y-64325714D01*
X49991719Y-64325714D02*
X49991719Y-64563809D01*
X49991719Y-64563809D02*
X50039338Y-64706666D01*
X50039338Y-64706666D02*
X50134576Y-64801904D01*
X50134576Y-64801904D02*
X50229814Y-64849523D01*
X50229814Y-64849523D02*
X50420290Y-64897142D01*
X50420290Y-64897142D02*
X50563147Y-64897142D01*
X50563147Y-64897142D02*
X50753623Y-64849523D01*
X50753623Y-64849523D02*
X50848861Y-64801904D01*
X50848861Y-64801904D02*
X50944100Y-64706666D01*
X50944100Y-64706666D02*
X50991719Y-64563809D01*
X50991719Y-64563809D02*
X50991719Y-64325714D01*
X50086957Y-65278095D02*
X50039338Y-65325714D01*
X50039338Y-65325714D02*
X49991719Y-65420952D01*
X49991719Y-65420952D02*
X49991719Y-65659047D01*
X49991719Y-65659047D02*
X50039338Y-65754285D01*
X50039338Y-65754285D02*
X50086957Y-65801904D01*
X50086957Y-65801904D02*
X50182195Y-65849523D01*
X50182195Y-65849523D02*
X50277433Y-65849523D01*
X50277433Y-65849523D02*
X50420290Y-65801904D01*
X50420290Y-65801904D02*
X50991719Y-65230476D01*
X50991719Y-65230476D02*
X50991719Y-65849523D01*
X49991719Y-66182857D02*
X49991719Y-66849523D01*
X49991719Y-66849523D02*
X50991719Y-66420952D01*
X-15683281Y-45275714D02*
X-16683281Y-45275714D01*
X-16683281Y-45275714D02*
X-16683281Y-45513809D01*
X-16683281Y-45513809D02*
X-16635662Y-45656666D01*
X-16635662Y-45656666D02*
X-16540424Y-45751904D01*
X-16540424Y-45751904D02*
X-16445186Y-45799523D01*
X-16445186Y-45799523D02*
X-16254710Y-45847142D01*
X-16254710Y-45847142D02*
X-16111853Y-45847142D01*
X-16111853Y-45847142D02*
X-15921377Y-45799523D01*
X-15921377Y-45799523D02*
X-15826139Y-45751904D01*
X-15826139Y-45751904D02*
X-15730900Y-45656666D01*
X-15730900Y-45656666D02*
X-15683281Y-45513809D01*
X-15683281Y-45513809D02*
X-15683281Y-45275714D01*
X-15683281Y-46799523D02*
X-15683281Y-46228095D01*
X-15683281Y-46513809D02*
X-16683281Y-46513809D01*
X-16683281Y-46513809D02*
X-16540424Y-46418571D01*
X-16540424Y-46418571D02*
X-16445186Y-46323333D01*
X-16445186Y-46323333D02*
X-16397567Y-46228095D01*
X-15683281Y-47751904D02*
X-15683281Y-47180476D01*
X-15683281Y-47466190D02*
X-16683281Y-47466190D01*
X-16683281Y-47466190D02*
X-16540424Y-47370952D01*
X-16540424Y-47370952D02*
X-16445186Y-47275714D01*
X-16445186Y-47275714D02*
X-16397567Y-47180476D01*
X36704219Y-83375714D02*
X35704219Y-83375714D01*
X35704219Y-83375714D02*
X35704219Y-83613809D01*
X35704219Y-83613809D02*
X35751838Y-83756666D01*
X35751838Y-83756666D02*
X35847076Y-83851904D01*
X35847076Y-83851904D02*
X35942314Y-83899523D01*
X35942314Y-83899523D02*
X36132790Y-83947142D01*
X36132790Y-83947142D02*
X36275647Y-83947142D01*
X36275647Y-83947142D02*
X36466123Y-83899523D01*
X36466123Y-83899523D02*
X36561361Y-83851904D01*
X36561361Y-83851904D02*
X36656600Y-83756666D01*
X36656600Y-83756666D02*
X36704219Y-83613809D01*
X36704219Y-83613809D02*
X36704219Y-83375714D01*
X35799457Y-84328095D02*
X35751838Y-84375714D01*
X35751838Y-84375714D02*
X35704219Y-84470952D01*
X35704219Y-84470952D02*
X35704219Y-84709047D01*
X35704219Y-84709047D02*
X35751838Y-84804285D01*
X35751838Y-84804285D02*
X35799457Y-84851904D01*
X35799457Y-84851904D02*
X35894695Y-84899523D01*
X35894695Y-84899523D02*
X35989933Y-84899523D01*
X35989933Y-84899523D02*
X36132790Y-84851904D01*
X36132790Y-84851904D02*
X36704219Y-84280476D01*
X36704219Y-84280476D02*
X36704219Y-84899523D01*
X35704219Y-85232857D02*
X35704219Y-85851904D01*
X35704219Y-85851904D02*
X36085171Y-85518571D01*
X36085171Y-85518571D02*
X36085171Y-85661428D01*
X36085171Y-85661428D02*
X36132790Y-85756666D01*
X36132790Y-85756666D02*
X36180409Y-85804285D01*
X36180409Y-85804285D02*
X36275647Y-85851904D01*
X36275647Y-85851904D02*
X36513742Y-85851904D01*
X36513742Y-85851904D02*
X36608980Y-85804285D01*
X36608980Y-85804285D02*
X36656600Y-85756666D01*
X36656600Y-85756666D02*
X36704219Y-85661428D01*
X36704219Y-85661428D02*
X36704219Y-85375714D01*
X36704219Y-85375714D02*
X36656600Y-85280476D01*
X36656600Y-85280476D02*
X36608980Y-85232857D01*
X21362837Y-29509845D02*
X22172360Y-29509845D01*
X22172360Y-29509845D02*
X22267598Y-29557464D01*
X22267598Y-29557464D02*
X22315218Y-29605083D01*
X22315218Y-29605083D02*
X22362837Y-29700321D01*
X22362837Y-29700321D02*
X22362837Y-29890797D01*
X22362837Y-29890797D02*
X22315218Y-29986035D01*
X22315218Y-29986035D02*
X22267598Y-30033654D01*
X22267598Y-30033654D02*
X22172360Y-30081273D01*
X22172360Y-30081273D02*
X21362837Y-30081273D01*
X21362837Y-30462226D02*
X21362837Y-31081273D01*
X21362837Y-31081273D02*
X21743789Y-30747940D01*
X21743789Y-30747940D02*
X21743789Y-30890797D01*
X21743789Y-30890797D02*
X21791408Y-30986035D01*
X21791408Y-30986035D02*
X21839027Y-31033654D01*
X21839027Y-31033654D02*
X21934265Y-31081273D01*
X21934265Y-31081273D02*
X22172360Y-31081273D01*
X22172360Y-31081273D02*
X22267598Y-31033654D01*
X22267598Y-31033654D02*
X22315218Y-30986035D01*
X22315218Y-30986035D02*
X22362837Y-30890797D01*
X22362837Y-30890797D02*
X22362837Y-30605083D01*
X22362837Y-30605083D02*
X22315218Y-30509845D01*
X22315218Y-30509845D02*
X22267598Y-30462226D01*
X11107473Y-37344142D02*
X11155093Y-37296523D01*
X11155093Y-37296523D02*
X11202712Y-37153666D01*
X11202712Y-37153666D02*
X11202712Y-37058428D01*
X11202712Y-37058428D02*
X11155093Y-36915571D01*
X11155093Y-36915571D02*
X11059854Y-36820333D01*
X11059854Y-36820333D02*
X10964616Y-36772714D01*
X10964616Y-36772714D02*
X10774140Y-36725095D01*
X10774140Y-36725095D02*
X10631283Y-36725095D01*
X10631283Y-36725095D02*
X10440807Y-36772714D01*
X10440807Y-36772714D02*
X10345569Y-36820333D01*
X10345569Y-36820333D02*
X10250331Y-36915571D01*
X10250331Y-36915571D02*
X10202712Y-37058428D01*
X10202712Y-37058428D02*
X10202712Y-37153666D01*
X10202712Y-37153666D02*
X10250331Y-37296523D01*
X10250331Y-37296523D02*
X10297950Y-37344142D01*
X11202712Y-38296523D02*
X11202712Y-37725095D01*
X11202712Y-38010809D02*
X10202712Y-38010809D01*
X10202712Y-38010809D02*
X10345569Y-37915571D01*
X10345569Y-37915571D02*
X10440807Y-37820333D01*
X10440807Y-37820333D02*
X10488426Y-37725095D01*
X10202712Y-38629857D02*
X10202712Y-39296523D01*
X10202712Y-39296523D02*
X11202712Y-38867952D01*
X34427837Y-27438083D02*
X33951646Y-27104750D01*
X34427837Y-26866655D02*
X33427837Y-26866655D01*
X33427837Y-26866655D02*
X33427837Y-27247607D01*
X33427837Y-27247607D02*
X33475456Y-27342845D01*
X33475456Y-27342845D02*
X33523075Y-27390464D01*
X33523075Y-27390464D02*
X33618313Y-27438083D01*
X33618313Y-27438083D02*
X33761170Y-27438083D01*
X33761170Y-27438083D02*
X33856408Y-27390464D01*
X33856408Y-27390464D02*
X33904027Y-27342845D01*
X33904027Y-27342845D02*
X33951646Y-27247607D01*
X33951646Y-27247607D02*
X33951646Y-26866655D01*
X33427837Y-27771417D02*
X33427837Y-28438083D01*
X33427837Y-28438083D02*
X34427837Y-28009512D01*
X17229819Y-23913095D02*
X18039342Y-23913095D01*
X18039342Y-23913095D02*
X18134580Y-23960714D01*
X18134580Y-23960714D02*
X18182200Y-24008333D01*
X18182200Y-24008333D02*
X18229819Y-24103571D01*
X18229819Y-24103571D02*
X18229819Y-24294047D01*
X18229819Y-24294047D02*
X18182200Y-24389285D01*
X18182200Y-24389285D02*
X18134580Y-24436904D01*
X18134580Y-24436904D02*
X18039342Y-24484523D01*
X18039342Y-24484523D02*
X17229819Y-24484523D01*
X18229819Y-25484523D02*
X18229819Y-24913095D01*
X18229819Y-25198809D02*
X17229819Y-25198809D01*
X17229819Y-25198809D02*
X17372676Y-25103571D01*
X17372676Y-25103571D02*
X17467914Y-25008333D01*
X17467914Y-25008333D02*
X17515533Y-24913095D01*
X-25208281Y-64801905D02*
X-26208281Y-64801905D01*
X-26208281Y-64801905D02*
X-26208281Y-65040000D01*
X-26208281Y-65040000D02*
X-26160662Y-65182857D01*
X-26160662Y-65182857D02*
X-26065424Y-65278095D01*
X-26065424Y-65278095D02*
X-25970186Y-65325714D01*
X-25970186Y-65325714D02*
X-25779710Y-65373333D01*
X-25779710Y-65373333D02*
X-25636853Y-65373333D01*
X-25636853Y-65373333D02*
X-25446377Y-65325714D01*
X-25446377Y-65325714D02*
X-25351139Y-65278095D01*
X-25351139Y-65278095D02*
X-25255900Y-65182857D01*
X-25255900Y-65182857D02*
X-25208281Y-65040000D01*
X-25208281Y-65040000D02*
X-25208281Y-64801905D01*
X-26208281Y-65706667D02*
X-26208281Y-66373333D01*
X-26208281Y-66373333D02*
X-25208281Y-65944762D01*
X-32545181Y-22808333D02*
X-33021372Y-22475000D01*
X-32545181Y-22236905D02*
X-33545181Y-22236905D01*
X-33545181Y-22236905D02*
X-33545181Y-22617857D01*
X-33545181Y-22617857D02*
X-33497562Y-22713095D01*
X-33497562Y-22713095D02*
X-33449943Y-22760714D01*
X-33449943Y-22760714D02*
X-33354705Y-22808333D01*
X-33354705Y-22808333D02*
X-33211848Y-22808333D01*
X-33211848Y-22808333D02*
X-33116610Y-22760714D01*
X-33116610Y-22760714D02*
X-33068991Y-22713095D01*
X-33068991Y-22713095D02*
X-33021372Y-22617857D01*
X-33021372Y-22617857D02*
X-33021372Y-22236905D01*
X-32545181Y-23284524D02*
X-32545181Y-23475000D01*
X-32545181Y-23475000D02*
X-32592800Y-23570238D01*
X-32592800Y-23570238D02*
X-32640420Y-23617857D01*
X-32640420Y-23617857D02*
X-32783277Y-23713095D01*
X-32783277Y-23713095D02*
X-32973753Y-23760714D01*
X-32973753Y-23760714D02*
X-33354705Y-23760714D01*
X-33354705Y-23760714D02*
X-33449943Y-23713095D01*
X-33449943Y-23713095D02*
X-33497562Y-23665476D01*
X-33497562Y-23665476D02*
X-33545181Y-23570238D01*
X-33545181Y-23570238D02*
X-33545181Y-23379762D01*
X-33545181Y-23379762D02*
X-33497562Y-23284524D01*
X-33497562Y-23284524D02*
X-33449943Y-23236905D01*
X-33449943Y-23236905D02*
X-33354705Y-23189286D01*
X-33354705Y-23189286D02*
X-33116610Y-23189286D01*
X-33116610Y-23189286D02*
X-33021372Y-23236905D01*
X-33021372Y-23236905D02*
X-32973753Y-23284524D01*
X-32973753Y-23284524D02*
X-32926134Y-23379762D01*
X-32926134Y-23379762D02*
X-32926134Y-23570238D01*
X-32926134Y-23570238D02*
X-32973753Y-23665476D01*
X-32973753Y-23665476D02*
X-33021372Y-23713095D01*
X-33021372Y-23713095D02*
X-33116610Y-23760714D01*
X10091473Y-33502333D02*
X10139093Y-33454714D01*
X10139093Y-33454714D02*
X10186712Y-33311857D01*
X10186712Y-33311857D02*
X10186712Y-33216619D01*
X10186712Y-33216619D02*
X10139093Y-33073762D01*
X10139093Y-33073762D02*
X10043854Y-32978524D01*
X10043854Y-32978524D02*
X9948616Y-32930905D01*
X9948616Y-32930905D02*
X9758140Y-32883286D01*
X9758140Y-32883286D02*
X9615283Y-32883286D01*
X9615283Y-32883286D02*
X9424807Y-32930905D01*
X9424807Y-32930905D02*
X9329569Y-32978524D01*
X9329569Y-32978524D02*
X9234331Y-33073762D01*
X9234331Y-33073762D02*
X9186712Y-33216619D01*
X9186712Y-33216619D02*
X9186712Y-33311857D01*
X9186712Y-33311857D02*
X9234331Y-33454714D01*
X9234331Y-33454714D02*
X9281950Y-33502333D01*
X9186712Y-33835667D02*
X9186712Y-34502333D01*
X9186712Y-34502333D02*
X10186712Y-34073762D01*
X-10920781Y-102901905D02*
X-11920781Y-102901905D01*
X-11920781Y-102901905D02*
X-11920781Y-103140000D01*
X-11920781Y-103140000D02*
X-11873162Y-103282857D01*
X-11873162Y-103282857D02*
X-11777924Y-103378095D01*
X-11777924Y-103378095D02*
X-11682686Y-103425714D01*
X-11682686Y-103425714D02*
X-11492210Y-103473333D01*
X-11492210Y-103473333D02*
X-11349353Y-103473333D01*
X-11349353Y-103473333D02*
X-11158877Y-103425714D01*
X-11158877Y-103425714D02*
X-11063639Y-103378095D01*
X-11063639Y-103378095D02*
X-10968400Y-103282857D01*
X-10968400Y-103282857D02*
X-10920781Y-103140000D01*
X-10920781Y-103140000D02*
X-10920781Y-102901905D01*
X-10920781Y-103949524D02*
X-10920781Y-104140000D01*
X-10920781Y-104140000D02*
X-10968400Y-104235238D01*
X-10968400Y-104235238D02*
X-11016020Y-104282857D01*
X-11016020Y-104282857D02*
X-11158877Y-104378095D01*
X-11158877Y-104378095D02*
X-11349353Y-104425714D01*
X-11349353Y-104425714D02*
X-11730305Y-104425714D01*
X-11730305Y-104425714D02*
X-11825543Y-104378095D01*
X-11825543Y-104378095D02*
X-11873162Y-104330476D01*
X-11873162Y-104330476D02*
X-11920781Y-104235238D01*
X-11920781Y-104235238D02*
X-11920781Y-104044762D01*
X-11920781Y-104044762D02*
X-11873162Y-103949524D01*
X-11873162Y-103949524D02*
X-11825543Y-103901905D01*
X-11825543Y-103901905D02*
X-11730305Y-103854286D01*
X-11730305Y-103854286D02*
X-11492210Y-103854286D01*
X-11492210Y-103854286D02*
X-11396972Y-103901905D01*
X-11396972Y-103901905D02*
X-11349353Y-103949524D01*
X-11349353Y-103949524D02*
X-11301734Y-104044762D01*
X-11301734Y-104044762D02*
X-11301734Y-104235238D01*
X-11301734Y-104235238D02*
X-11349353Y-104330476D01*
X-11349353Y-104330476D02*
X-11396972Y-104378095D01*
X-11396972Y-104378095D02*
X-11492210Y-104425714D01*
X-53783281Y-45751905D02*
X-54783281Y-45751905D01*
X-54783281Y-45751905D02*
X-54783281Y-45990000D01*
X-54783281Y-45990000D02*
X-54735662Y-46132857D01*
X-54735662Y-46132857D02*
X-54640424Y-46228095D01*
X-54640424Y-46228095D02*
X-54545186Y-46275714D01*
X-54545186Y-46275714D02*
X-54354710Y-46323333D01*
X-54354710Y-46323333D02*
X-54211853Y-46323333D01*
X-54211853Y-46323333D02*
X-54021377Y-46275714D01*
X-54021377Y-46275714D02*
X-53926139Y-46228095D01*
X-53926139Y-46228095D02*
X-53830900Y-46132857D01*
X-53830900Y-46132857D02*
X-53783281Y-45990000D01*
X-53783281Y-45990000D02*
X-53783281Y-45751905D01*
X-53783281Y-47275714D02*
X-53783281Y-46704286D01*
X-53783281Y-46990000D02*
X-54783281Y-46990000D01*
X-54783281Y-46990000D02*
X-54640424Y-46894762D01*
X-54640424Y-46894762D02*
X-54545186Y-46799524D01*
X-54545186Y-46799524D02*
X-54497567Y-46704286D01*
X23029598Y-22516892D02*
X23077218Y-22469273D01*
X23077218Y-22469273D02*
X23124837Y-22326416D01*
X23124837Y-22326416D02*
X23124837Y-22231178D01*
X23124837Y-22231178D02*
X23077218Y-22088321D01*
X23077218Y-22088321D02*
X22981979Y-21993083D01*
X22981979Y-21993083D02*
X22886741Y-21945464D01*
X22886741Y-21945464D02*
X22696265Y-21897845D01*
X22696265Y-21897845D02*
X22553408Y-21897845D01*
X22553408Y-21897845D02*
X22362932Y-21945464D01*
X22362932Y-21945464D02*
X22267694Y-21993083D01*
X22267694Y-21993083D02*
X22172456Y-22088321D01*
X22172456Y-22088321D02*
X22124837Y-22231178D01*
X22124837Y-22231178D02*
X22124837Y-22326416D01*
X22124837Y-22326416D02*
X22172456Y-22469273D01*
X22172456Y-22469273D02*
X22220075Y-22516892D01*
X23124837Y-23469273D02*
X23124837Y-22897845D01*
X23124837Y-23183559D02*
X22124837Y-23183559D01*
X22124837Y-23183559D02*
X22267694Y-23088321D01*
X22267694Y-23088321D02*
X22362932Y-22993083D01*
X22362932Y-22993083D02*
X22410551Y-22897845D01*
X22124837Y-24374035D02*
X22124837Y-23897845D01*
X22124837Y-23897845D02*
X22601027Y-23850226D01*
X22601027Y-23850226D02*
X22553408Y-23897845D01*
X22553408Y-23897845D02*
X22505789Y-23993083D01*
X22505789Y-23993083D02*
X22505789Y-24231178D01*
X22505789Y-24231178D02*
X22553408Y-24326416D01*
X22553408Y-24326416D02*
X22601027Y-24374035D01*
X22601027Y-24374035D02*
X22696265Y-24421654D01*
X22696265Y-24421654D02*
X22934360Y-24421654D01*
X22934360Y-24421654D02*
X23029598Y-24374035D01*
X23029598Y-24374035D02*
X23077218Y-24326416D01*
X23077218Y-24326416D02*
X23124837Y-24231178D01*
X23124837Y-24231178D02*
X23124837Y-23993083D01*
X23124837Y-23993083D02*
X23077218Y-23897845D01*
X23077218Y-23897845D02*
X23029598Y-23850226D01*
X20870598Y-31502083D02*
X20918218Y-31454464D01*
X20918218Y-31454464D02*
X20965837Y-31311607D01*
X20965837Y-31311607D02*
X20965837Y-31216369D01*
X20965837Y-31216369D02*
X20918218Y-31073512D01*
X20918218Y-31073512D02*
X20822979Y-30978274D01*
X20822979Y-30978274D02*
X20727741Y-30930655D01*
X20727741Y-30930655D02*
X20537265Y-30883036D01*
X20537265Y-30883036D02*
X20394408Y-30883036D01*
X20394408Y-30883036D02*
X20203932Y-30930655D01*
X20203932Y-30930655D02*
X20108694Y-30978274D01*
X20108694Y-30978274D02*
X20013456Y-31073512D01*
X20013456Y-31073512D02*
X19965837Y-31216369D01*
X19965837Y-31216369D02*
X19965837Y-31311607D01*
X19965837Y-31311607D02*
X20013456Y-31454464D01*
X20013456Y-31454464D02*
X20061075Y-31502083D01*
X20299170Y-32359226D02*
X20965837Y-32359226D01*
X19918218Y-32121131D02*
X20632503Y-31883036D01*
X20632503Y-31883036D02*
X20632503Y-32502083D01*
X-34733281Y-45751905D02*
X-35733281Y-45751905D01*
X-35733281Y-45751905D02*
X-35733281Y-45990000D01*
X-35733281Y-45990000D02*
X-35685662Y-46132857D01*
X-35685662Y-46132857D02*
X-35590424Y-46228095D01*
X-35590424Y-46228095D02*
X-35495186Y-46275714D01*
X-35495186Y-46275714D02*
X-35304710Y-46323333D01*
X-35304710Y-46323333D02*
X-35161853Y-46323333D01*
X-35161853Y-46323333D02*
X-34971377Y-46275714D01*
X-34971377Y-46275714D02*
X-34876139Y-46228095D01*
X-34876139Y-46228095D02*
X-34780900Y-46132857D01*
X-34780900Y-46132857D02*
X-34733281Y-45990000D01*
X-34733281Y-45990000D02*
X-34733281Y-45751905D01*
X-35733281Y-47180476D02*
X-35733281Y-46990000D01*
X-35733281Y-46990000D02*
X-35685662Y-46894762D01*
X-35685662Y-46894762D02*
X-35638043Y-46847143D01*
X-35638043Y-46847143D02*
X-35495186Y-46751905D01*
X-35495186Y-46751905D02*
X-35304710Y-46704286D01*
X-35304710Y-46704286D02*
X-34923758Y-46704286D01*
X-34923758Y-46704286D02*
X-34828520Y-46751905D01*
X-34828520Y-46751905D02*
X-34780900Y-46799524D01*
X-34780900Y-46799524D02*
X-34733281Y-46894762D01*
X-34733281Y-46894762D02*
X-34733281Y-47085238D01*
X-34733281Y-47085238D02*
X-34780900Y-47180476D01*
X-34780900Y-47180476D02*
X-34828520Y-47228095D01*
X-34828520Y-47228095D02*
X-34923758Y-47275714D01*
X-34923758Y-47275714D02*
X-35161853Y-47275714D01*
X-35161853Y-47275714D02*
X-35257091Y-47228095D01*
X-35257091Y-47228095D02*
X-35304710Y-47180476D01*
X-35304710Y-47180476D02*
X-35352329Y-47085238D01*
X-35352329Y-47085238D02*
X-35352329Y-46894762D01*
X-35352329Y-46894762D02*
X-35304710Y-46799524D01*
X-35304710Y-46799524D02*
X-35257091Y-46751905D01*
X-35257091Y-46751905D02*
X-35161853Y-46704286D01*
X12516666Y-32054819D02*
X12849999Y-31578628D01*
X13088094Y-32054819D02*
X13088094Y-31054819D01*
X13088094Y-31054819D02*
X12707142Y-31054819D01*
X12707142Y-31054819D02*
X12611904Y-31102438D01*
X12611904Y-31102438D02*
X12564285Y-31150057D01*
X12564285Y-31150057D02*
X12516666Y-31245295D01*
X12516666Y-31245295D02*
X12516666Y-31388152D01*
X12516666Y-31388152D02*
X12564285Y-31483390D01*
X12564285Y-31483390D02*
X12611904Y-31531009D01*
X12611904Y-31531009D02*
X12707142Y-31578628D01*
X12707142Y-31578628D02*
X13088094Y-31578628D01*
X11611904Y-31054819D02*
X12088094Y-31054819D01*
X12088094Y-31054819D02*
X12135713Y-31531009D01*
X12135713Y-31531009D02*
X12088094Y-31483390D01*
X12088094Y-31483390D02*
X11992856Y-31435771D01*
X11992856Y-31435771D02*
X11754761Y-31435771D01*
X11754761Y-31435771D02*
X11659523Y-31483390D01*
X11659523Y-31483390D02*
X11611904Y-31531009D01*
X11611904Y-31531009D02*
X11564285Y-31626247D01*
X11564285Y-31626247D02*
X11564285Y-31864342D01*
X11564285Y-31864342D02*
X11611904Y-31959580D01*
X11611904Y-31959580D02*
X11659523Y-32007200D01*
X11659523Y-32007200D02*
X11754761Y-32054819D01*
X11754761Y-32054819D02*
X11992856Y-32054819D01*
X11992856Y-32054819D02*
X12088094Y-32007200D01*
X12088094Y-32007200D02*
X12135713Y-31959580D01*
X11179819Y-23608333D02*
X10703628Y-23275000D01*
X11179819Y-23036905D02*
X10179819Y-23036905D01*
X10179819Y-23036905D02*
X10179819Y-23417857D01*
X10179819Y-23417857D02*
X10227438Y-23513095D01*
X10227438Y-23513095D02*
X10275057Y-23560714D01*
X10275057Y-23560714D02*
X10370295Y-23608333D01*
X10370295Y-23608333D02*
X10513152Y-23608333D01*
X10513152Y-23608333D02*
X10608390Y-23560714D01*
X10608390Y-23560714D02*
X10656009Y-23513095D01*
X10656009Y-23513095D02*
X10703628Y-23417857D01*
X10703628Y-23417857D02*
X10703628Y-23036905D01*
X11179819Y-24560714D02*
X11179819Y-23989286D01*
X11179819Y-24275000D02*
X10179819Y-24275000D01*
X10179819Y-24275000D02*
X10322676Y-24179762D01*
X10322676Y-24179762D02*
X10417914Y-24084524D01*
X10417914Y-24084524D02*
X10465533Y-23989286D01*
X28379472Y-21723142D02*
X28427092Y-21675523D01*
X28427092Y-21675523D02*
X28474711Y-21532666D01*
X28474711Y-21532666D02*
X28474711Y-21437428D01*
X28474711Y-21437428D02*
X28427092Y-21294571D01*
X28427092Y-21294571D02*
X28331853Y-21199333D01*
X28331853Y-21199333D02*
X28236615Y-21151714D01*
X28236615Y-21151714D02*
X28046139Y-21104095D01*
X28046139Y-21104095D02*
X27903282Y-21104095D01*
X27903282Y-21104095D02*
X27712806Y-21151714D01*
X27712806Y-21151714D02*
X27617568Y-21199333D01*
X27617568Y-21199333D02*
X27522330Y-21294571D01*
X27522330Y-21294571D02*
X27474711Y-21437428D01*
X27474711Y-21437428D02*
X27474711Y-21532666D01*
X27474711Y-21532666D02*
X27522330Y-21675523D01*
X27522330Y-21675523D02*
X27569949Y-21723142D01*
X28474711Y-22675523D02*
X28474711Y-22104095D01*
X28474711Y-22389809D02*
X27474711Y-22389809D01*
X27474711Y-22389809D02*
X27617568Y-22294571D01*
X27617568Y-22294571D02*
X27712806Y-22199333D01*
X27712806Y-22199333D02*
X27760425Y-22104095D01*
X27569949Y-23056476D02*
X27522330Y-23104095D01*
X27522330Y-23104095D02*
X27474711Y-23199333D01*
X27474711Y-23199333D02*
X27474711Y-23437428D01*
X27474711Y-23437428D02*
X27522330Y-23532666D01*
X27522330Y-23532666D02*
X27569949Y-23580285D01*
X27569949Y-23580285D02*
X27665187Y-23627904D01*
X27665187Y-23627904D02*
X27760425Y-23627904D01*
X27760425Y-23627904D02*
X27903282Y-23580285D01*
X27903282Y-23580285D02*
X28474711Y-23008857D01*
X28474711Y-23008857D02*
X28474711Y-23627904D01*
X-34682143Y-29184580D02*
X-34634524Y-29232200D01*
X-34634524Y-29232200D02*
X-34491667Y-29279819D01*
X-34491667Y-29279819D02*
X-34396429Y-29279819D01*
X-34396429Y-29279819D02*
X-34253572Y-29232200D01*
X-34253572Y-29232200D02*
X-34158334Y-29136961D01*
X-34158334Y-29136961D02*
X-34110715Y-29041723D01*
X-34110715Y-29041723D02*
X-34063096Y-28851247D01*
X-34063096Y-28851247D02*
X-34063096Y-28708390D01*
X-34063096Y-28708390D02*
X-34110715Y-28517914D01*
X-34110715Y-28517914D02*
X-34158334Y-28422676D01*
X-34158334Y-28422676D02*
X-34253572Y-28327438D01*
X-34253572Y-28327438D02*
X-34396429Y-28279819D01*
X-34396429Y-28279819D02*
X-34491667Y-28279819D01*
X-34491667Y-28279819D02*
X-34634524Y-28327438D01*
X-34634524Y-28327438D02*
X-34682143Y-28375057D01*
X-35634524Y-29279819D02*
X-35063096Y-29279819D01*
X-35348810Y-29279819D02*
X-35348810Y-28279819D01*
X-35348810Y-28279819D02*
X-35253572Y-28422676D01*
X-35253572Y-28422676D02*
X-35158334Y-28517914D01*
X-35158334Y-28517914D02*
X-35063096Y-28565533D01*
X-36205953Y-28708390D02*
X-36110715Y-28660771D01*
X-36110715Y-28660771D02*
X-36063096Y-28613152D01*
X-36063096Y-28613152D02*
X-36015477Y-28517914D01*
X-36015477Y-28517914D02*
X-36015477Y-28470295D01*
X-36015477Y-28470295D02*
X-36063096Y-28375057D01*
X-36063096Y-28375057D02*
X-36110715Y-28327438D01*
X-36110715Y-28327438D02*
X-36205953Y-28279819D01*
X-36205953Y-28279819D02*
X-36396429Y-28279819D01*
X-36396429Y-28279819D02*
X-36491667Y-28327438D01*
X-36491667Y-28327438D02*
X-36539286Y-28375057D01*
X-36539286Y-28375057D02*
X-36586905Y-28470295D01*
X-36586905Y-28470295D02*
X-36586905Y-28517914D01*
X-36586905Y-28517914D02*
X-36539286Y-28613152D01*
X-36539286Y-28613152D02*
X-36491667Y-28660771D01*
X-36491667Y-28660771D02*
X-36396429Y-28708390D01*
X-36396429Y-28708390D02*
X-36205953Y-28708390D01*
X-36205953Y-28708390D02*
X-36110715Y-28756009D01*
X-36110715Y-28756009D02*
X-36063096Y-28803628D01*
X-36063096Y-28803628D02*
X-36015477Y-28898866D01*
X-36015477Y-28898866D02*
X-36015477Y-29089342D01*
X-36015477Y-29089342D02*
X-36063096Y-29184580D01*
X-36063096Y-29184580D02*
X-36110715Y-29232200D01*
X-36110715Y-29232200D02*
X-36205953Y-29279819D01*
X-36205953Y-29279819D02*
X-36396429Y-29279819D01*
X-36396429Y-29279819D02*
X-36491667Y-29232200D01*
X-36491667Y-29232200D02*
X-36539286Y-29184580D01*
X-36539286Y-29184580D02*
X-36586905Y-29089342D01*
X-36586905Y-29089342D02*
X-36586905Y-28898866D01*
X-36586905Y-28898866D02*
X-36539286Y-28803628D01*
X-36539286Y-28803628D02*
X-36491667Y-28756009D01*
X-36491667Y-28756009D02*
X-36396429Y-28708390D01*
X-27589781Y-121475714D02*
X-28589781Y-121475714D01*
X-28589781Y-121475714D02*
X-28589781Y-121713809D01*
X-28589781Y-121713809D02*
X-28542162Y-121856666D01*
X-28542162Y-121856666D02*
X-28446924Y-121951904D01*
X-28446924Y-121951904D02*
X-28351686Y-121999523D01*
X-28351686Y-121999523D02*
X-28161210Y-122047142D01*
X-28161210Y-122047142D02*
X-28018353Y-122047142D01*
X-28018353Y-122047142D02*
X-27827877Y-121999523D01*
X-27827877Y-121999523D02*
X-27732639Y-121951904D01*
X-27732639Y-121951904D02*
X-27637400Y-121856666D01*
X-27637400Y-121856666D02*
X-27589781Y-121713809D01*
X-27589781Y-121713809D02*
X-27589781Y-121475714D01*
X-27589781Y-122999523D02*
X-27589781Y-122428095D01*
X-27589781Y-122713809D02*
X-28589781Y-122713809D01*
X-28589781Y-122713809D02*
X-28446924Y-122618571D01*
X-28446924Y-122618571D02*
X-28351686Y-122523333D01*
X-28351686Y-122523333D02*
X-28304067Y-122428095D01*
X-28589781Y-123618571D02*
X-28589781Y-123713809D01*
X-28589781Y-123713809D02*
X-28542162Y-123809047D01*
X-28542162Y-123809047D02*
X-28494543Y-123856666D01*
X-28494543Y-123856666D02*
X-28399305Y-123904285D01*
X-28399305Y-123904285D02*
X-28208829Y-123951904D01*
X-28208829Y-123951904D02*
X-27970734Y-123951904D01*
X-27970734Y-123951904D02*
X-27780258Y-123904285D01*
X-27780258Y-123904285D02*
X-27685020Y-123856666D01*
X-27685020Y-123856666D02*
X-27637400Y-123809047D01*
X-27637400Y-123809047D02*
X-27589781Y-123713809D01*
X-27589781Y-123713809D02*
X-27589781Y-123618571D01*
X-27589781Y-123618571D02*
X-27637400Y-123523333D01*
X-27637400Y-123523333D02*
X-27685020Y-123475714D01*
X-27685020Y-123475714D02*
X-27780258Y-123428095D01*
X-27780258Y-123428095D02*
X-27970734Y-123380476D01*
X-27970734Y-123380476D02*
X-28208829Y-123380476D01*
X-28208829Y-123380476D02*
X-28399305Y-123428095D01*
X-28399305Y-123428095D02*
X-28494543Y-123475714D01*
X-28494543Y-123475714D02*
X-28542162Y-123523333D01*
X-28542162Y-123523333D02*
X-28589781Y-123618571D01*
X-20757143Y-29234580D02*
X-20709524Y-29282200D01*
X-20709524Y-29282200D02*
X-20566667Y-29329819D01*
X-20566667Y-29329819D02*
X-20471429Y-29329819D01*
X-20471429Y-29329819D02*
X-20328572Y-29282200D01*
X-20328572Y-29282200D02*
X-20233334Y-29186961D01*
X-20233334Y-29186961D02*
X-20185715Y-29091723D01*
X-20185715Y-29091723D02*
X-20138096Y-28901247D01*
X-20138096Y-28901247D02*
X-20138096Y-28758390D01*
X-20138096Y-28758390D02*
X-20185715Y-28567914D01*
X-20185715Y-28567914D02*
X-20233334Y-28472676D01*
X-20233334Y-28472676D02*
X-20328572Y-28377438D01*
X-20328572Y-28377438D02*
X-20471429Y-28329819D01*
X-20471429Y-28329819D02*
X-20566667Y-28329819D01*
X-20566667Y-28329819D02*
X-20709524Y-28377438D01*
X-20709524Y-28377438D02*
X-20757143Y-28425057D01*
X-21138096Y-28425057D02*
X-21185715Y-28377438D01*
X-21185715Y-28377438D02*
X-21280953Y-28329819D01*
X-21280953Y-28329819D02*
X-21519048Y-28329819D01*
X-21519048Y-28329819D02*
X-21614286Y-28377438D01*
X-21614286Y-28377438D02*
X-21661905Y-28425057D01*
X-21661905Y-28425057D02*
X-21709524Y-28520295D01*
X-21709524Y-28520295D02*
X-21709524Y-28615533D01*
X-21709524Y-28615533D02*
X-21661905Y-28758390D01*
X-21661905Y-28758390D02*
X-21090477Y-29329819D01*
X-21090477Y-29329819D02*
X-21709524Y-29329819D01*
X-22328572Y-28329819D02*
X-22423810Y-28329819D01*
X-22423810Y-28329819D02*
X-22519048Y-28377438D01*
X-22519048Y-28377438D02*
X-22566667Y-28425057D01*
X-22566667Y-28425057D02*
X-22614286Y-28520295D01*
X-22614286Y-28520295D02*
X-22661905Y-28710771D01*
X-22661905Y-28710771D02*
X-22661905Y-28948866D01*
X-22661905Y-28948866D02*
X-22614286Y-29139342D01*
X-22614286Y-29139342D02*
X-22566667Y-29234580D01*
X-22566667Y-29234580D02*
X-22519048Y-29282200D01*
X-22519048Y-29282200D02*
X-22423810Y-29329819D01*
X-22423810Y-29329819D02*
X-22328572Y-29329819D01*
X-22328572Y-29329819D02*
X-22233334Y-29282200D01*
X-22233334Y-29282200D02*
X-22185715Y-29234580D01*
X-22185715Y-29234580D02*
X-22138096Y-29139342D01*
X-22138096Y-29139342D02*
X-22090477Y-28948866D01*
X-22090477Y-28948866D02*
X-22090477Y-28710771D01*
X-22090477Y-28710771D02*
X-22138096Y-28520295D01*
X-22138096Y-28520295D02*
X-22185715Y-28425057D01*
X-22185715Y-28425057D02*
X-22233334Y-28377438D01*
X-22233334Y-28377438D02*
X-22328572Y-28329819D01*
X3366719Y-45275714D02*
X2366719Y-45275714D01*
X2366719Y-45275714D02*
X2366719Y-45513809D01*
X2366719Y-45513809D02*
X2414338Y-45656666D01*
X2414338Y-45656666D02*
X2509576Y-45751904D01*
X2509576Y-45751904D02*
X2604814Y-45799523D01*
X2604814Y-45799523D02*
X2795290Y-45847142D01*
X2795290Y-45847142D02*
X2938147Y-45847142D01*
X2938147Y-45847142D02*
X3128623Y-45799523D01*
X3128623Y-45799523D02*
X3223861Y-45751904D01*
X3223861Y-45751904D02*
X3319100Y-45656666D01*
X3319100Y-45656666D02*
X3366719Y-45513809D01*
X3366719Y-45513809D02*
X3366719Y-45275714D01*
X3366719Y-46799523D02*
X3366719Y-46228095D01*
X3366719Y-46513809D02*
X2366719Y-46513809D01*
X2366719Y-46513809D02*
X2509576Y-46418571D01*
X2509576Y-46418571D02*
X2604814Y-46323333D01*
X2604814Y-46323333D02*
X2652433Y-46228095D01*
X2366719Y-47656666D02*
X2366719Y-47466190D01*
X2366719Y-47466190D02*
X2414338Y-47370952D01*
X2414338Y-47370952D02*
X2461957Y-47323333D01*
X2461957Y-47323333D02*
X2604814Y-47228095D01*
X2604814Y-47228095D02*
X2795290Y-47180476D01*
X2795290Y-47180476D02*
X3176242Y-47180476D01*
X3176242Y-47180476D02*
X3271480Y-47228095D01*
X3271480Y-47228095D02*
X3319100Y-47275714D01*
X3319100Y-47275714D02*
X3366719Y-47370952D01*
X3366719Y-47370952D02*
X3366719Y-47561428D01*
X3366719Y-47561428D02*
X3319100Y-47656666D01*
X3319100Y-47656666D02*
X3271480Y-47704285D01*
X3271480Y-47704285D02*
X3176242Y-47751904D01*
X3176242Y-47751904D02*
X2938147Y-47751904D01*
X2938147Y-47751904D02*
X2842909Y-47704285D01*
X2842909Y-47704285D02*
X2795290Y-47656666D01*
X2795290Y-47656666D02*
X2747671Y-47561428D01*
X2747671Y-47561428D02*
X2747671Y-47370952D01*
X2747671Y-47370952D02*
X2795290Y-47275714D01*
X2795290Y-47275714D02*
X2842909Y-47228095D01*
X2842909Y-47228095D02*
X2938147Y-47180476D01*
X55754219Y-83375714D02*
X54754219Y-83375714D01*
X54754219Y-83375714D02*
X54754219Y-83613809D01*
X54754219Y-83613809D02*
X54801838Y-83756666D01*
X54801838Y-83756666D02*
X54897076Y-83851904D01*
X54897076Y-83851904D02*
X54992314Y-83899523D01*
X54992314Y-83899523D02*
X55182790Y-83947142D01*
X55182790Y-83947142D02*
X55325647Y-83947142D01*
X55325647Y-83947142D02*
X55516123Y-83899523D01*
X55516123Y-83899523D02*
X55611361Y-83851904D01*
X55611361Y-83851904D02*
X55706600Y-83756666D01*
X55706600Y-83756666D02*
X55754219Y-83613809D01*
X55754219Y-83613809D02*
X55754219Y-83375714D01*
X54849457Y-84328095D02*
X54801838Y-84375714D01*
X54801838Y-84375714D02*
X54754219Y-84470952D01*
X54754219Y-84470952D02*
X54754219Y-84709047D01*
X54754219Y-84709047D02*
X54801838Y-84804285D01*
X54801838Y-84804285D02*
X54849457Y-84851904D01*
X54849457Y-84851904D02*
X54944695Y-84899523D01*
X54944695Y-84899523D02*
X55039933Y-84899523D01*
X55039933Y-84899523D02*
X55182790Y-84851904D01*
X55182790Y-84851904D02*
X55754219Y-84280476D01*
X55754219Y-84280476D02*
X55754219Y-84899523D01*
X55182790Y-85470952D02*
X55135171Y-85375714D01*
X55135171Y-85375714D02*
X55087552Y-85328095D01*
X55087552Y-85328095D02*
X54992314Y-85280476D01*
X54992314Y-85280476D02*
X54944695Y-85280476D01*
X54944695Y-85280476D02*
X54849457Y-85328095D01*
X54849457Y-85328095D02*
X54801838Y-85375714D01*
X54801838Y-85375714D02*
X54754219Y-85470952D01*
X54754219Y-85470952D02*
X54754219Y-85661428D01*
X54754219Y-85661428D02*
X54801838Y-85756666D01*
X54801838Y-85756666D02*
X54849457Y-85804285D01*
X54849457Y-85804285D02*
X54944695Y-85851904D01*
X54944695Y-85851904D02*
X54992314Y-85851904D01*
X54992314Y-85851904D02*
X55087552Y-85804285D01*
X55087552Y-85804285D02*
X55135171Y-85756666D01*
X55135171Y-85756666D02*
X55182790Y-85661428D01*
X55182790Y-85661428D02*
X55182790Y-85470952D01*
X55182790Y-85470952D02*
X55230409Y-85375714D01*
X55230409Y-85375714D02*
X55278028Y-85328095D01*
X55278028Y-85328095D02*
X55373266Y-85280476D01*
X55373266Y-85280476D02*
X55563742Y-85280476D01*
X55563742Y-85280476D02*
X55658980Y-85328095D01*
X55658980Y-85328095D02*
X55706600Y-85375714D01*
X55706600Y-85375714D02*
X55754219Y-85470952D01*
X55754219Y-85470952D02*
X55754219Y-85661428D01*
X55754219Y-85661428D02*
X55706600Y-85756666D01*
X55706600Y-85756666D02*
X55658980Y-85804285D01*
X55658980Y-85804285D02*
X55563742Y-85851904D01*
X55563742Y-85851904D02*
X55373266Y-85851904D01*
X55373266Y-85851904D02*
X55278028Y-85804285D01*
X55278028Y-85804285D02*
X55230409Y-85756666D01*
X55230409Y-85756666D02*
X55182790Y-85661428D01*
X-1395781Y-83375714D02*
X-2395781Y-83375714D01*
X-2395781Y-83375714D02*
X-2395781Y-83613809D01*
X-2395781Y-83613809D02*
X-2348162Y-83756666D01*
X-2348162Y-83756666D02*
X-2252924Y-83851904D01*
X-2252924Y-83851904D02*
X-2157686Y-83899523D01*
X-2157686Y-83899523D02*
X-1967210Y-83947142D01*
X-1967210Y-83947142D02*
X-1824353Y-83947142D01*
X-1824353Y-83947142D02*
X-1633877Y-83899523D01*
X-1633877Y-83899523D02*
X-1538639Y-83851904D01*
X-1538639Y-83851904D02*
X-1443400Y-83756666D01*
X-1443400Y-83756666D02*
X-1395781Y-83613809D01*
X-1395781Y-83613809D02*
X-1395781Y-83375714D01*
X-1395781Y-84899523D02*
X-1395781Y-84328095D01*
X-1395781Y-84613809D02*
X-2395781Y-84613809D01*
X-2395781Y-84613809D02*
X-2252924Y-84518571D01*
X-2252924Y-84518571D02*
X-2157686Y-84423333D01*
X-2157686Y-84423333D02*
X-2110067Y-84328095D01*
X-2395781Y-85232857D02*
X-2395781Y-85851904D01*
X-2395781Y-85851904D02*
X-2014829Y-85518571D01*
X-2014829Y-85518571D02*
X-2014829Y-85661428D01*
X-2014829Y-85661428D02*
X-1967210Y-85756666D01*
X-1967210Y-85756666D02*
X-1919591Y-85804285D01*
X-1919591Y-85804285D02*
X-1824353Y-85851904D01*
X-1824353Y-85851904D02*
X-1586258Y-85851904D01*
X-1586258Y-85851904D02*
X-1491020Y-85804285D01*
X-1491020Y-85804285D02*
X-1443400Y-85756666D01*
X-1443400Y-85756666D02*
X-1395781Y-85661428D01*
X-1395781Y-85661428D02*
X-1395781Y-85375714D01*
X-1395781Y-85375714D02*
X-1443400Y-85280476D01*
X-1443400Y-85280476D02*
X-1491020Y-85232857D01*
X-46639281Y-83851905D02*
X-47639281Y-83851905D01*
X-47639281Y-83851905D02*
X-47639281Y-84090000D01*
X-47639281Y-84090000D02*
X-47591662Y-84232857D01*
X-47591662Y-84232857D02*
X-47496424Y-84328095D01*
X-47496424Y-84328095D02*
X-47401186Y-84375714D01*
X-47401186Y-84375714D02*
X-47210710Y-84423333D01*
X-47210710Y-84423333D02*
X-47067853Y-84423333D01*
X-47067853Y-84423333D02*
X-46877377Y-84375714D01*
X-46877377Y-84375714D02*
X-46782139Y-84328095D01*
X-46782139Y-84328095D02*
X-46686900Y-84232857D01*
X-46686900Y-84232857D02*
X-46639281Y-84090000D01*
X-46639281Y-84090000D02*
X-46639281Y-83851905D01*
X-47639281Y-84756667D02*
X-47639281Y-85375714D01*
X-47639281Y-85375714D02*
X-47258329Y-85042381D01*
X-47258329Y-85042381D02*
X-47258329Y-85185238D01*
X-47258329Y-85185238D02*
X-47210710Y-85280476D01*
X-47210710Y-85280476D02*
X-47163091Y-85328095D01*
X-47163091Y-85328095D02*
X-47067853Y-85375714D01*
X-47067853Y-85375714D02*
X-46829758Y-85375714D01*
X-46829758Y-85375714D02*
X-46734520Y-85328095D01*
X-46734520Y-85328095D02*
X-46686900Y-85280476D01*
X-46686900Y-85280476D02*
X-46639281Y-85185238D01*
X-46639281Y-85185238D02*
X-46639281Y-84899524D01*
X-46639281Y-84899524D02*
X-46686900Y-84804286D01*
X-46686900Y-84804286D02*
X-46734520Y-84756667D01*
X-5896878Y-32281519D02*
X-5896878Y-33091042D01*
X-5896878Y-33091042D02*
X-5944497Y-33186280D01*
X-5944497Y-33186280D02*
X-5992116Y-33233900D01*
X-5992116Y-33233900D02*
X-6087354Y-33281519D01*
X-6087354Y-33281519D02*
X-6277830Y-33281519D01*
X-6277830Y-33281519D02*
X-6373068Y-33233900D01*
X-6373068Y-33233900D02*
X-6420687Y-33186280D01*
X-6420687Y-33186280D02*
X-6468306Y-33091042D01*
X-6468306Y-33091042D02*
X-6468306Y-32281519D01*
X-6896878Y-32376757D02*
X-6944497Y-32329138D01*
X-6944497Y-32329138D02*
X-7039735Y-32281519D01*
X-7039735Y-32281519D02*
X-7277830Y-32281519D01*
X-7277830Y-32281519D02*
X-7373068Y-32329138D01*
X-7373068Y-32329138D02*
X-7420687Y-32376757D01*
X-7420687Y-32376757D02*
X-7468306Y-32471995D01*
X-7468306Y-32471995D02*
X-7468306Y-32567233D01*
X-7468306Y-32567233D02*
X-7420687Y-32710090D01*
X-7420687Y-32710090D02*
X-6849259Y-33281519D01*
X-6849259Y-33281519D02*
X-7468306Y-33281519D01*
D12*
%TO.C,D31*%
X66886900Y-67150000D02*
X66886900Y-64490000D01*
X68586900Y-67150000D02*
X66886900Y-67150000D01*
X68586900Y-67150000D02*
X68586900Y-64490000D01*
%TO.C,D22*%
X28786900Y-67150000D02*
X28786900Y-64490000D01*
X30486900Y-67150000D02*
X28786900Y-67150000D01*
X30486900Y-67150000D02*
X30486900Y-64490000D01*
%TO.C,C6*%
X34230414Y-32353000D02*
X34446086Y-32353000D01*
X34230414Y-33073000D02*
X34446086Y-33073000D01*
%TO.C,D2*%
X-52175100Y-67150000D02*
X-52175100Y-64490000D01*
X-50475100Y-67150000D02*
X-52175100Y-67150000D01*
X-50475100Y-67150000D02*
X-50475100Y-64490000D01*
%TO.C,D32*%
X71649400Y-86200000D02*
X71649400Y-83540000D01*
X73349400Y-86200000D02*
X71649400Y-86200000D01*
X73349400Y-86200000D02*
X73349400Y-83540000D01*
%TO.C,R8*%
X-26827500Y-24445276D02*
X-26827500Y-24954724D01*
X-27872500Y-24445276D02*
X-27872500Y-24954724D01*
%TO.C,D14*%
X4974400Y-105250000D02*
X4974400Y-102590000D01*
X6674400Y-105250000D02*
X4974400Y-105250000D01*
X6674400Y-105250000D02*
X6674400Y-102590000D01*
%TO.C,D19*%
X24024400Y-105250000D02*
X24024400Y-102590000D01*
X25724400Y-105250000D02*
X24024400Y-105250000D01*
X25724400Y-105250000D02*
X25724400Y-102590000D01*
%TO.C,D15*%
X-6932100Y-124300000D02*
X-6932100Y-121640000D01*
X-5232100Y-124300000D02*
X-6932100Y-124300000D01*
X-5232100Y-124300000D02*
X-5232100Y-121640000D01*
%TO.C,C9*%
X23649250Y-36669164D02*
X23649250Y-36884836D01*
X22929250Y-36669164D02*
X22929250Y-36884836D01*
%TO.C,D8*%
X-23600600Y-86200000D02*
X-23600600Y-83540000D01*
X-21900600Y-86200000D02*
X-23600600Y-86200000D01*
X-21900600Y-86200000D02*
X-21900600Y-83540000D01*
%TO.C,C13*%
X18825086Y-30660000D02*
X18609414Y-30660000D01*
X18825086Y-29940000D02*
X18609414Y-29940000D01*
%TO.C,D26*%
X38311900Y-48100000D02*
X38311900Y-45440000D01*
X40011900Y-48100000D02*
X38311900Y-48100000D01*
X40011900Y-48100000D02*
X40011900Y-45440000D01*
%TO.C,D20*%
X14499400Y-124300000D02*
X14499400Y-121640000D01*
X16199400Y-124300000D02*
X14499400Y-124300000D01*
X16199400Y-124300000D02*
X16199400Y-121640000D01*
%TO.C,C5*%
X18825086Y-29136000D02*
X18609414Y-29136000D01*
X18825086Y-28416000D02*
X18609414Y-28416000D01*
%TO.C,C14*%
X22125250Y-36669164D02*
X22125250Y-36884836D01*
X21405250Y-36669164D02*
X21405250Y-36884836D01*
%TO.C,D24*%
X43074400Y-105250000D02*
X43074400Y-102590000D01*
X44774400Y-105250000D02*
X43074400Y-105250000D01*
X44774400Y-105250000D02*
X44774400Y-102590000D01*
%TO.C,C10*%
X34230414Y-30829000D02*
X34446086Y-30829000D01*
X34230414Y-31549000D02*
X34446086Y-31549000D01*
%TO.C,R2*%
X40017218Y-36289059D02*
X40017218Y-36596341D01*
X39257218Y-36289059D02*
X39257218Y-36596341D01*
%TO.C,C8*%
X20618854Y-34441750D02*
X20403182Y-34441750D01*
X20618854Y-33721750D02*
X20403182Y-33721750D01*
%TO.C,D18*%
X14499400Y-86200000D02*
X14499400Y-83540000D01*
X16199400Y-86200000D02*
X14499400Y-86200000D01*
X16199400Y-86200000D02*
X16199400Y-83540000D01*
%TO.C,R4*%
X-3834032Y-28370934D02*
X-3834032Y-28678216D01*
X-4594032Y-28370934D02*
X-4594032Y-28678216D01*
%TO.C,Q1*%
X-30287500Y-26260000D02*
X-29637500Y-26260000D01*
X-30287500Y-26260000D02*
X-30937500Y-26260000D01*
X-30287500Y-23140000D02*
X-28612500Y-23140000D01*
X-30287500Y-23140000D02*
X-30937500Y-23140000D01*
%TO.C,C11*%
X29849200Y-37275190D02*
X30001703Y-37427693D01*
X29340083Y-37784307D02*
X29492586Y-37936810D01*
%TO.C,R6*%
X14701635Y-32077500D02*
X15176151Y-32077500D01*
X14701635Y-33122500D02*
X15176151Y-33122500D01*
%TO.C,D17*%
X9736900Y-67150000D02*
X9736900Y-64490000D01*
X11436900Y-67150000D02*
X9736900Y-67150000D01*
X11436900Y-67150000D02*
X11436900Y-64490000D01*
%TO.C,R3*%
X-8787032Y-28370934D02*
X-8787032Y-28678216D01*
X-9547032Y-28370934D02*
X-9547032Y-28678216D01*
%TO.C,C16*%
X3908018Y-36095086D02*
X3908018Y-35879414D01*
X4628018Y-36095086D02*
X4628018Y-35879414D01*
%TO.C,D29*%
X62124400Y-105250000D02*
X62124400Y-102590000D01*
X63824400Y-105250000D02*
X62124400Y-105250000D01*
X63824400Y-105250000D02*
X63824400Y-102590000D01*
%TO.C,C19*%
X-28727836Y-26690000D02*
X-28512164Y-26690000D01*
X-28727836Y-27410000D02*
X-28512164Y-27410000D01*
%TO.C,D12*%
X-9313100Y-67150000D02*
X-9313100Y-64490000D01*
X-7613100Y-67150000D02*
X-9313100Y-67150000D01*
X-7613100Y-67150000D02*
X-7613100Y-64490000D01*
%TO.C,D30*%
X57361900Y-48100000D02*
X57361900Y-45440000D01*
X59061900Y-48100000D02*
X57361900Y-48100000D01*
X59061900Y-48100000D02*
X59061900Y-45440000D01*
%TO.C,SW_RESET1*%
X68900000Y-29350000D02*
X68900000Y-31350000D01*
X67850000Y-32650000D02*
X67400000Y-33100000D01*
X67850000Y-28050000D02*
X67400000Y-27600000D01*
X67400000Y-33100000D02*
X64900000Y-33100000D01*
X67400000Y-27600000D02*
X64900000Y-27600000D01*
X64450000Y-32650000D02*
X64900000Y-33100000D01*
X64450000Y-28050000D02*
X64900000Y-27600000D01*
X63400000Y-29350000D02*
X63400000Y-31350000D01*
%TO.C,D4*%
X-44957500Y-105250000D02*
X-44957500Y-102590000D01*
X-43257500Y-105250000D02*
X-44957500Y-105250000D01*
X-43257500Y-105250000D02*
X-43257500Y-102590000D01*
%TO.C,C2*%
X38056182Y-24225000D02*
X38271854Y-24225000D01*
X38056182Y-24945000D02*
X38271854Y-24945000D01*
%TO.C,J1*%
X-11454032Y-17655450D02*
X-2054032Y-17655450D01*
X-11454032Y-19555450D02*
X-11454032Y-17655450D01*
X-11454032Y-23455450D02*
X-11454032Y-21455450D01*
X-2054032Y-19555450D02*
X-2054032Y-17655450D01*
X-2054032Y-23455450D02*
X-2054032Y-21455450D01*
%TO.C,SW_BOOT1*%
X6037218Y-21982700D02*
X8037218Y-21982700D01*
X9337218Y-23032700D02*
X9787218Y-23482700D01*
X4737218Y-23032700D02*
X4287218Y-23482700D01*
X9787218Y-23482700D02*
X9787218Y-25982700D01*
X4287218Y-23482700D02*
X4287218Y-25982700D01*
X9337218Y-26432700D02*
X9787218Y-25982700D01*
X4737218Y-26432700D02*
X4287218Y-25982700D01*
X6037218Y-27482700D02*
X8037218Y-27482700D01*
%TO.C,D5*%
X-54557100Y-124300000D02*
X-54557100Y-121640000D01*
X-52857100Y-124300000D02*
X-54557100Y-124300000D01*
X-52857100Y-124300000D02*
X-52857100Y-121640000D01*
%TO.C,U4*%
X7062018Y-36785250D02*
X7712018Y-36785250D01*
X7062018Y-36785250D02*
X6412018Y-36785250D01*
X7062018Y-33665250D02*
X8737018Y-33665250D01*
X7062018Y-33665250D02*
X6412018Y-33665250D01*
%TO.C,D21*%
X19261900Y-48100000D02*
X19261900Y-45440000D01*
X20961900Y-48100000D02*
X19261900Y-48100000D01*
X20961900Y-48100000D02*
X20961900Y-45440000D01*
%TO.C,Y1*%
X36244250Y-30014000D02*
X36244250Y-26014000D01*
X39544250Y-30014000D02*
X36244250Y-30014000D01*
%TO.C,D25*%
X45530000Y-124300000D02*
X45530000Y-121640000D01*
X47230000Y-124300000D02*
X45530000Y-124300000D01*
X47230000Y-124300000D02*
X47230000Y-121640000D01*
%TO.C,F1*%
X-1252782Y-29630636D02*
X-1252782Y-30834764D01*
X-3072782Y-29630636D02*
X-3072782Y-30834764D01*
%TO.C,C3*%
X38017854Y-31647750D02*
X37802182Y-31647750D01*
X38017854Y-30927750D02*
X37802182Y-30927750D01*
%TO.C,C1*%
X10287218Y-28397536D02*
X10287218Y-28181864D01*
X11007218Y-28397536D02*
X11007218Y-28181864D01*
%TO.C,D27*%
X47836900Y-67150000D02*
X47836900Y-64490000D01*
X49536900Y-67150000D02*
X47836900Y-67150000D01*
X49536900Y-67150000D02*
X49536900Y-64490000D01*
%TO.C,D11*%
X-18838100Y-48100000D02*
X-18838100Y-45440000D01*
X-17138100Y-48100000D02*
X-18838100Y-48100000D01*
X-17138100Y-48100000D02*
X-17138100Y-45440000D01*
%TO.C,D23*%
X33549400Y-86200000D02*
X33549400Y-83540000D01*
X35249400Y-86200000D02*
X33549400Y-86200000D01*
X35249400Y-86200000D02*
X35249400Y-83540000D01*
%TO.C,U3*%
X30360000Y-26690000D02*
X29710000Y-26690000D01*
X30360000Y-27340000D02*
X30360000Y-26690000D01*
X23140000Y-27340000D02*
X23140000Y-26690000D01*
X30360000Y-33260000D02*
X30360000Y-33910000D01*
X23140000Y-33260000D02*
X23140000Y-33910000D01*
X30360000Y-33910000D02*
X29710000Y-33910000D01*
X23140000Y-33910000D02*
X23790000Y-33910000D01*
%TO.C,C17*%
X11107893Y-35593164D02*
X11107893Y-35808836D01*
X10387893Y-35593164D02*
X10387893Y-35808836D01*
%TO.C,R7*%
X34491891Y-29537000D02*
X34184609Y-29537000D01*
X34491891Y-28777000D02*
X34184609Y-28777000D01*
%TO.C,U1*%
X16927218Y-22087700D02*
X16667218Y-22087700D01*
X11737218Y-22087700D02*
X11737218Y-20412700D01*
X11477218Y-22087700D02*
X11737218Y-22087700D01*
X16927218Y-24812700D02*
X16927218Y-22087700D01*
X16927218Y-24812700D02*
X16927218Y-27537700D01*
X11477218Y-24812700D02*
X11477218Y-22087700D01*
X11477218Y-24812700D02*
X11477218Y-27537700D01*
X16927218Y-27537700D02*
X16667218Y-27537700D01*
X11477218Y-27537700D02*
X11737218Y-27537700D01*
%TO.C,D7*%
X-28363100Y-67150000D02*
X-28363100Y-64490000D01*
X-26663100Y-67150000D02*
X-28363100Y-67150000D01*
X-26663100Y-67150000D02*
X-26663100Y-64490000D01*
%TO.C,R9*%
X-33522500Y-26042224D02*
X-33522500Y-25532776D01*
X-32477500Y-26042224D02*
X-32477500Y-25532776D01*
%TO.C,C7*%
X9371893Y-35808836D02*
X9371893Y-35593164D01*
X10091893Y-35808836D02*
X10091893Y-35593164D01*
%TO.C,D9*%
X-14075600Y-105250000D02*
X-14075600Y-102590000D01*
X-12375600Y-105250000D02*
X-14075600Y-105250000D01*
X-12375600Y-105250000D02*
X-12375600Y-102590000D01*
%TO.C,D1*%
X-56938100Y-48100000D02*
X-56938100Y-45440000D01*
X-55238100Y-48100000D02*
X-56938100Y-48100000D01*
X-55238100Y-48100000D02*
X-55238100Y-45440000D01*
%TO.C,C15*%
X23158854Y-25424750D02*
X22943182Y-25424750D01*
X23158854Y-24704750D02*
X22943182Y-24704750D01*
%TO.C,C4*%
X20618854Y-33425750D02*
X20403182Y-33425750D01*
X20618854Y-32705750D02*
X20403182Y-32705750D01*
%TO.C,D6*%
X-37888100Y-48100000D02*
X-37888100Y-45440000D01*
X-36188100Y-48100000D02*
X-37888100Y-48100000D01*
X-36188100Y-48100000D02*
X-36188100Y-45440000D01*
%TO.C,R5*%
X14701635Y-30426500D02*
X15176151Y-30426500D01*
X14701635Y-31471500D02*
X15176151Y-31471500D01*
%TO.C,R1*%
X10357218Y-21986341D02*
X10357218Y-21679059D01*
X11117218Y-21986341D02*
X11117218Y-21679059D01*
%TO.C,C12*%
X28562208Y-23870443D02*
X28714711Y-23717940D01*
X29071325Y-24379560D02*
X29223828Y-24227057D01*
%TO.C,C18*%
X-35357836Y-26590000D02*
X-35142164Y-26590000D01*
X-35357836Y-27310000D02*
X-35142164Y-27310000D01*
%TO.C,D10*%
X-30744600Y-124300000D02*
X-30744600Y-121640000D01*
X-29044600Y-124300000D02*
X-30744600Y-124300000D01*
X-29044600Y-124300000D02*
X-29044600Y-121640000D01*
%TO.C,C20*%
X-22137836Y-26740000D02*
X-21922164Y-26740000D01*
X-22137836Y-27460000D02*
X-21922164Y-27460000D01*
%TO.C,D16*%
X211900Y-48100000D02*
X211900Y-45440000D01*
X1911900Y-48100000D02*
X211900Y-48100000D01*
X1911900Y-48100000D02*
X1911900Y-45440000D01*
%TO.C,D28*%
X52599400Y-86200000D02*
X52599400Y-83540000D01*
X54299400Y-86200000D02*
X52599400Y-86200000D01*
X54299400Y-86200000D02*
X54299400Y-83540000D01*
%TO.C,D13*%
X-4550600Y-86200000D02*
X-4550600Y-83540000D01*
X-2850600Y-86200000D02*
X-4550600Y-86200000D01*
X-2850600Y-86200000D02*
X-2850600Y-83540000D01*
%TO.C,D3*%
X-49794100Y-86200000D02*
X-49794100Y-83540000D01*
X-48094100Y-86200000D02*
X-49794100Y-86200000D01*
X-48094100Y-86200000D02*
X-48094100Y-83540000D01*
%TO.C,U2*%
X-8218782Y-30032700D02*
X-8218782Y-30832700D01*
X-8218782Y-30032700D02*
X-8218782Y-29232700D01*
X-5098782Y-30032700D02*
X-5098782Y-31832700D01*
X-5098782Y-30032700D02*
X-5098782Y-29232700D01*
%TD*%
%LPC*%
D13*
%TO.C,SW12*%
X-10083100Y-62620000D03*
D14*
X-5003100Y-62620000D03*
D13*
X76900Y-62620000D03*
D15*
X-2463100Y-57540000D03*
X-8813100Y-60080000D03*
%TD*%
D16*
%TO.C,J2*%
X43137218Y-31770000D03*
D17*
X43137218Y-29230000D03*
X43137218Y-26690000D03*
X43137218Y-24150000D03*
X43137218Y-21610000D03*
%TD*%
D13*
%TO.C,SW20*%
X13729400Y-119770000D03*
D14*
X18809400Y-119770000D03*
D13*
X23889400Y-119770000D03*
D15*
X21349400Y-114690000D03*
X14999400Y-117230000D03*
%TD*%
D13*
%TO.C,SW31*%
X66116900Y-62620000D03*
D14*
X71196900Y-62620000D03*
D13*
X76276900Y-62620000D03*
D15*
X73736900Y-57540000D03*
X67386900Y-60080000D03*
%TD*%
D13*
%TO.C,SW27*%
X47066900Y-62620000D03*
D14*
X52146900Y-62620000D03*
D13*
X57226900Y-62620000D03*
D15*
X54686900Y-57540000D03*
X48336900Y-60080000D03*
%TD*%
%TO.C,REF\u002A\u002A*%
X68050000Y-129655600D03*
%TD*%
%TO.C,REF\u002A\u002A*%
X-33950000Y-54050000D03*
%TD*%
D18*
%TO.C,SW4*%
X-52547500Y-93720000D03*
D14*
X-52547500Y-108960000D03*
D13*
X-45727500Y-100720000D03*
D14*
X-40647500Y-100720000D03*
D13*
X-35567500Y-100720000D03*
D18*
X-28747500Y-93720000D03*
D14*
X-28747500Y-108960000D03*
D15*
X-38107500Y-95640000D03*
X-44457500Y-98180000D03*
%TD*%
D13*
%TO.C,SW7*%
X-29133100Y-62620000D03*
D14*
X-24053100Y-62620000D03*
D13*
X-18973100Y-62620000D03*
D15*
X-21513100Y-57540000D03*
X-27863100Y-60080000D03*
%TD*%
D13*
%TO.C,SW6*%
X-38658100Y-43570000D03*
D14*
X-33578100Y-43570000D03*
D13*
X-28498100Y-43570000D03*
D15*
X-31038100Y-38490000D03*
X-37388100Y-41030000D03*
%TD*%
D13*
%TO.C,SW26*%
X37541900Y-43570000D03*
D14*
X42621900Y-43570000D03*
D13*
X47701900Y-43570000D03*
D15*
X45161900Y-38490000D03*
X38811900Y-41030000D03*
%TD*%
%TO.C,REF\u002A\u002A*%
X-30800000Y-74200000D03*
%TD*%
D13*
%TO.C,SW29*%
X61354400Y-100720000D03*
D14*
X66434400Y-100720000D03*
D13*
X71514400Y-100720000D03*
D15*
X68974400Y-95640000D03*
X62624400Y-98180000D03*
%TD*%
D13*
%TO.C,SW2*%
X-52945100Y-62620000D03*
D14*
X-47865100Y-62620000D03*
D13*
X-42785100Y-62620000D03*
D15*
X-45325100Y-57540000D03*
X-51675100Y-60080000D03*
%TD*%
D13*
%TO.C,SW15*%
X-7702100Y-119770000D03*
D14*
X-2622100Y-119770000D03*
D13*
X2457900Y-119770000D03*
D15*
X-82100Y-114690000D03*
X-6432100Y-117230000D03*
%TD*%
D13*
%TO.C,SW17*%
X8966900Y-62620000D03*
D14*
X14046900Y-62620000D03*
D13*
X19126900Y-62620000D03*
D15*
X16586900Y-57540000D03*
X10236900Y-60080000D03*
%TD*%
%TO.C,REF\u002A\u002A*%
X29150000Y-119600000D03*
%TD*%
D13*
%TO.C,SW1*%
X-57708100Y-43570000D03*
D14*
X-52628100Y-43570000D03*
D13*
X-47548100Y-43570000D03*
D15*
X-50088100Y-38490000D03*
X-56438100Y-41030000D03*
%TD*%
D13*
%TO.C,SW11*%
X-19608100Y-43570000D03*
D14*
X-14528100Y-43570000D03*
D13*
X-9448100Y-43570000D03*
D15*
X-11988100Y-38490000D03*
X-18338100Y-41030000D03*
%TD*%
D13*
%TO.C,SW21*%
X18491900Y-43570000D03*
D14*
X23571900Y-43570000D03*
D13*
X28651900Y-43570000D03*
D15*
X26111900Y-38490000D03*
X19761900Y-41030000D03*
%TD*%
%TO.C,REF\u002A\u002A*%
X-20800000Y-95550000D03*
%TD*%
%TO.C,REF\u002A\u002A*%
X66999600Y-23655600D03*
%TD*%
%TO.C,REF\u002A\u002A*%
X-58450000Y-110155600D03*
%TD*%
D13*
%TO.C,SW13*%
X-5320600Y-81670000D03*
D14*
X-240600Y-81670000D03*
D13*
X4839400Y-81670000D03*
D15*
X2299400Y-76590000D03*
X-4050600Y-79130000D03*
%TD*%
%TO.C,REF\u002A\u002A*%
X66400000Y-72655600D03*
%TD*%
%TO.C,REF\u002A\u002A*%
X-57950400Y-23655600D03*
%TD*%
D13*
%TO.C,SW10*%
X-31514600Y-119770000D03*
D14*
X-26434600Y-119770000D03*
D13*
X-21354600Y-119770000D03*
D15*
X-23894600Y-114690000D03*
X-30244600Y-117230000D03*
%TD*%
D13*
%TO.C,SW19*%
X23254400Y-100720000D03*
D14*
X28334400Y-100720000D03*
D13*
X33414400Y-100720000D03*
D15*
X30874400Y-95640000D03*
X24524400Y-98180000D03*
%TD*%
D13*
%TO.C,SW18*%
X13729400Y-81670000D03*
D14*
X18809400Y-81670000D03*
D13*
X23889400Y-81670000D03*
D15*
X21349400Y-76590000D03*
X14999400Y-79130000D03*
%TD*%
D13*
%TO.C,SW30*%
X56591900Y-43570000D03*
D14*
X61671900Y-43570000D03*
D13*
X66751900Y-43570000D03*
D15*
X64211900Y-38490000D03*
X57861900Y-41030000D03*
%TD*%
D13*
%TO.C,SW9*%
X-14845600Y-100720000D03*
D14*
X-9765600Y-100720000D03*
D13*
X-4685600Y-100720000D03*
D15*
X-7225600Y-95640000D03*
X-13575600Y-98180000D03*
%TD*%
D13*
%TO.C,SW16*%
X-558100Y-43570000D03*
D14*
X4521900Y-43570000D03*
D13*
X9601900Y-43570000D03*
D15*
X7061900Y-38490000D03*
X711900Y-41030000D03*
%TD*%
D13*
%TO.C,SW22*%
X28016900Y-62620000D03*
D14*
X33096900Y-62620000D03*
D13*
X38176900Y-62620000D03*
D15*
X35636900Y-57540000D03*
X29286900Y-60080000D03*
%TD*%
D18*
%TO.C,SW25*%
X37940000Y-112770000D03*
D14*
X37940000Y-128010000D03*
D13*
X44760000Y-119770000D03*
D14*
X49840000Y-119770000D03*
D13*
X54920000Y-119770000D03*
D18*
X61740000Y-112770000D03*
D14*
X61740000Y-128010000D03*
D15*
X52380000Y-114690000D03*
X46030000Y-117230000D03*
%TD*%
D13*
%TO.C,SW28*%
X51829400Y-81670000D03*
D14*
X56909400Y-81670000D03*
D13*
X61989400Y-81670000D03*
D15*
X59449400Y-76590000D03*
X53099400Y-79130000D03*
%TD*%
D13*
%TO.C,SW23*%
X32779400Y-81670000D03*
D14*
X37859400Y-81670000D03*
D13*
X42939400Y-81670000D03*
D15*
X40399400Y-76590000D03*
X34049400Y-79130000D03*
%TD*%
%TO.C,REF\u002A\u002A*%
X-58050400Y-129655600D03*
%TD*%
D13*
%TO.C,SW8*%
X-24370600Y-81670000D03*
D14*
X-19290600Y-81670000D03*
D13*
X-14210600Y-81670000D03*
D15*
X-16750600Y-76590000D03*
X-23100600Y-79130000D03*
%TD*%
%TO.C,REF\u002A\u002A*%
X23600000Y-53850000D03*
%TD*%
D13*
%TO.C,SW24*%
X42304400Y-100720000D03*
D14*
X47384400Y-100720000D03*
D13*
X52464400Y-100720000D03*
D15*
X49924400Y-95640000D03*
X43574400Y-98180000D03*
%TD*%
D13*
%TO.C,SW32*%
X70879400Y-81670000D03*
D14*
X75959400Y-81670000D03*
D13*
X81039400Y-81670000D03*
D15*
X78499400Y-76590000D03*
X72149400Y-79130000D03*
%TD*%
D13*
%TO.C,SW14*%
X4204400Y-100720000D03*
D14*
X9284400Y-100720000D03*
D13*
X14364400Y-100720000D03*
D15*
X11824400Y-95640000D03*
X5474400Y-98180000D03*
%TD*%
D13*
%TO.C,SW5*%
X-55327100Y-119770000D03*
D14*
X-50247100Y-119770000D03*
D13*
X-45167100Y-119770000D03*
D15*
X-47707100Y-114690000D03*
X-54057100Y-117230000D03*
%TD*%
D13*
%TO.C,SW3*%
X-50564100Y-81670000D03*
D14*
X-45484100Y-81670000D03*
D13*
X-40404100Y-81670000D03*
D15*
X-42944100Y-76590000D03*
X-49294100Y-79130000D03*
%TD*%
%TO.C,REF\u002A\u002A*%
X9200000Y-72900000D03*
%TD*%
D19*
%TO.C,D31*%
X67736900Y-66640000D03*
X67736900Y-64440000D03*
%TD*%
%TO.C,D22*%
X29636900Y-66640000D03*
X29636900Y-64440000D03*
%TD*%
D20*
%TO.C,C6*%
X33858250Y-32713000D03*
X34818250Y-32713000D03*
%TD*%
D19*
%TO.C,D2*%
X-51325100Y-66640000D03*
X-51325100Y-64440000D03*
%TD*%
%TO.C,D32*%
X72499400Y-85690000D03*
X72499400Y-83490000D03*
%TD*%
D21*
%TO.C,R8*%
X-27350000Y-23787500D03*
X-27350000Y-25612500D03*
%TD*%
D19*
%TO.C,D14*%
X5824400Y-104740000D03*
X5824400Y-102540000D03*
%TD*%
%TO.C,D19*%
X24874400Y-104740000D03*
X24874400Y-102540000D03*
%TD*%
%TO.C,D15*%
X-6082100Y-123790000D03*
X-6082100Y-121590000D03*
%TD*%
D22*
%TO.C,C9*%
X23289250Y-36297000D03*
X23289250Y-37257000D03*
%TD*%
D23*
%TO.C,J3*%
X-44600000Y-28550000D03*
X-44600000Y-21550000D03*
D24*
X-40950000Y-30150000D03*
X-40950000Y-24450000D03*
X-48250000Y-21450000D03*
X-40950000Y-21550000D03*
X-48250000Y-30750000D03*
X-48250000Y-28550000D03*
%TD*%
D19*
%TO.C,D8*%
X-22750600Y-85690000D03*
X-22750600Y-83490000D03*
%TD*%
D25*
%TO.C,C13*%
X19197250Y-30300000D03*
X18237250Y-30300000D03*
%TD*%
D19*
%TO.C,D26*%
X39161900Y-47590000D03*
X39161900Y-45390000D03*
%TD*%
%TO.C,D20*%
X15349400Y-123790000D03*
X15349400Y-121590000D03*
%TD*%
D25*
%TO.C,C5*%
X19197250Y-28776000D03*
X18237250Y-28776000D03*
%TD*%
D22*
%TO.C,C14*%
X21765250Y-36297000D03*
X21765250Y-37257000D03*
%TD*%
D19*
%TO.C,D24*%
X43924400Y-104740000D03*
X43924400Y-102540000D03*
%TD*%
D20*
%TO.C,C10*%
X33858250Y-31189000D03*
X34818250Y-31189000D03*
%TD*%
D26*
%TO.C,R2*%
X39637218Y-35932700D03*
X39637218Y-36952700D03*
%TD*%
D25*
%TO.C,C8*%
X20991018Y-34081750D03*
X20031018Y-34081750D03*
%TD*%
D19*
%TO.C,D18*%
X15349400Y-85690000D03*
X15349400Y-83490000D03*
%TD*%
D26*
%TO.C,R4*%
X-4214032Y-28014575D03*
X-4214032Y-29034575D03*
%TD*%
D27*
%TO.C,Q1*%
X-29350000Y-23750000D03*
X-29350000Y-25650000D03*
X-31225000Y-24700000D03*
%TD*%
D28*
%TO.C,C11*%
X29331482Y-37266589D03*
X30010304Y-37945411D03*
%TD*%
D29*
%TO.C,R6*%
X14113893Y-32600000D03*
X15763893Y-32600000D03*
%TD*%
D19*
%TO.C,D17*%
X10586900Y-66640000D03*
X10586900Y-64440000D03*
%TD*%
D23*
%TO.C,J4*%
X53500000Y-28550000D03*
X53500000Y-21550000D03*
D24*
X57150000Y-30150000D03*
X57150000Y-24450000D03*
X49850000Y-21450000D03*
X57150000Y-21550000D03*
X49850000Y-30750000D03*
X49850000Y-28550000D03*
%TD*%
D26*
%TO.C,R3*%
X-9167032Y-28014575D03*
X-9167032Y-29034575D03*
%TD*%
D30*
%TO.C,C16*%
X4268018Y-36467250D03*
X4268018Y-35507250D03*
%TD*%
D19*
%TO.C,D29*%
X62974400Y-104740000D03*
X62974400Y-102540000D03*
%TD*%
D20*
%TO.C,C19*%
X-29100000Y-27050000D03*
X-28140000Y-27050000D03*
%TD*%
D19*
%TO.C,D12*%
X-8463100Y-66640000D03*
X-8463100Y-64440000D03*
%TD*%
%TO.C,D30*%
X58211900Y-47590000D03*
X58211900Y-45390000D03*
%TD*%
D31*
%TO.C,SW_RESET1*%
X69300000Y-28450000D03*
X63000000Y-28450000D03*
X69300000Y-32250000D03*
X63000000Y-32250000D03*
%TD*%
D19*
%TO.C,D4*%
X-44107500Y-104740000D03*
X-44107500Y-102540000D03*
%TD*%
D20*
%TO.C,C2*%
X37684018Y-24585000D03*
X38644018Y-24585000D03*
%TD*%
D32*
%TO.C,J1*%
X-9644032Y-24155450D03*
X-3864032Y-24155450D03*
D33*
X-10004032Y-25600450D03*
X-9204032Y-25600450D03*
D34*
X-8004032Y-25600450D03*
X-7004032Y-25600450D03*
X-6504032Y-25600450D03*
X-5504032Y-25600450D03*
D33*
X-4304032Y-25600450D03*
X-3504032Y-25600450D03*
X-3504032Y-25600450D03*
X-4304032Y-25600450D03*
D34*
X-5004032Y-25600450D03*
X-6004032Y-25600450D03*
X-7504032Y-25600450D03*
X-8504032Y-25600450D03*
D33*
X-9204032Y-25600450D03*
X-10004032Y-25600450D03*
D35*
X-11074032Y-20505450D03*
D36*
X-11074032Y-24685450D03*
D35*
X-2434032Y-20505450D03*
D36*
X-2434032Y-24685450D03*
%TD*%
D37*
%TO.C,SW_BOOT1*%
X5137218Y-21582700D03*
X5137218Y-27882700D03*
X8937218Y-21582700D03*
X8937218Y-27882700D03*
%TD*%
D19*
%TO.C,D5*%
X-53707100Y-123790000D03*
X-53707100Y-121590000D03*
%TD*%
D27*
%TO.C,U4*%
X7999518Y-34275250D03*
X7999518Y-36175250D03*
X6124518Y-35225250D03*
%TD*%
D19*
%TO.C,D21*%
X20111900Y-47590000D03*
X20111900Y-45390000D03*
%TD*%
D38*
%TO.C,Y1*%
X37044250Y-29114000D03*
X37044250Y-26914000D03*
X38744250Y-26914000D03*
X38744250Y-29114000D03*
%TD*%
D19*
%TO.C,D25*%
X46380000Y-123790000D03*
X46380000Y-121590000D03*
%TD*%
D39*
%TO.C,F1*%
X-2162782Y-28832700D03*
X-2162782Y-31632700D03*
%TD*%
D25*
%TO.C,C3*%
X38390018Y-31287750D03*
X37430018Y-31287750D03*
%TD*%
D30*
%TO.C,C1*%
X10647218Y-28769700D03*
X10647218Y-27809700D03*
%TD*%
D19*
%TO.C,D27*%
X48686900Y-66640000D03*
X48686900Y-64440000D03*
%TD*%
%TO.C,D11*%
X-17988100Y-47590000D03*
X-17988100Y-45390000D03*
%TD*%
%TO.C,D23*%
X34399400Y-85690000D03*
X34399400Y-83490000D03*
%TD*%
D40*
%TO.C,U3*%
X24150000Y-26862500D03*
X24550000Y-26862500D03*
X24950000Y-26862500D03*
X25350000Y-26862500D03*
X25750000Y-26862500D03*
X26150000Y-26862500D03*
X26550000Y-26862500D03*
X26950000Y-26862500D03*
X27350000Y-26862500D03*
X27750000Y-26862500D03*
X28150000Y-26862500D03*
X28550000Y-26862500D03*
X28950000Y-26862500D03*
X29350000Y-26862500D03*
D41*
X30187500Y-27700000D03*
X30187500Y-28100000D03*
X30187500Y-28500000D03*
X30187500Y-28900000D03*
X30187500Y-29300000D03*
X30187500Y-29700000D03*
X30187500Y-30100000D03*
X30187500Y-30500000D03*
X30187500Y-30900000D03*
X30187500Y-31300000D03*
X30187500Y-31700000D03*
X30187500Y-32100000D03*
X30187500Y-32500000D03*
X30187500Y-32900000D03*
D40*
X29350000Y-33737500D03*
X28950000Y-33737500D03*
X28550000Y-33737500D03*
X28150000Y-33737500D03*
X27750000Y-33737500D03*
X27350000Y-33737500D03*
X26950000Y-33737500D03*
X26550000Y-33737500D03*
X26150000Y-33737500D03*
X25750000Y-33737500D03*
X25350000Y-33737500D03*
X24950000Y-33737500D03*
X24550000Y-33737500D03*
X24150000Y-33737500D03*
D41*
X23312500Y-32900000D03*
X23312500Y-32500000D03*
X23312500Y-32100000D03*
X23312500Y-31700000D03*
X23312500Y-31300000D03*
X23312500Y-30900000D03*
X23312500Y-30500000D03*
X23312500Y-30100000D03*
X23312500Y-29700000D03*
X23312500Y-29300000D03*
X23312500Y-28900000D03*
X23312500Y-28500000D03*
X23312500Y-28100000D03*
X23312500Y-27700000D03*
D42*
X26750000Y-30300000D03*
%TD*%
D22*
%TO.C,C17*%
X10747893Y-35221000D03*
X10747893Y-36181000D03*
%TD*%
D43*
%TO.C,R7*%
X34848250Y-29157000D03*
X33828250Y-29157000D03*
%TD*%
D44*
%TO.C,U1*%
X12297218Y-21212700D03*
X13567218Y-21212700D03*
X14837218Y-21212700D03*
X16107218Y-21212700D03*
X16107218Y-28412700D03*
X14837218Y-28412700D03*
X13567218Y-28412700D03*
X12297218Y-28412700D03*
%TD*%
D19*
%TO.C,D7*%
X-27513100Y-66640000D03*
X-27513100Y-64440000D03*
%TD*%
D45*
%TO.C,R9*%
X-33000000Y-26700000D03*
X-33000000Y-24875000D03*
%TD*%
D30*
%TO.C,C7*%
X9731893Y-36181000D03*
X9731893Y-35221000D03*
%TD*%
D19*
%TO.C,D9*%
X-13225600Y-104740000D03*
X-13225600Y-102540000D03*
%TD*%
%TO.C,D1*%
X-56088100Y-47590000D03*
X-56088100Y-45390000D03*
%TD*%
D25*
%TO.C,C15*%
X23531018Y-25064750D03*
X22571018Y-25064750D03*
%TD*%
%TO.C,C4*%
X20991018Y-33065750D03*
X20031018Y-33065750D03*
%TD*%
D19*
%TO.C,D6*%
X-37038100Y-47590000D03*
X-37038100Y-45390000D03*
%TD*%
D29*
%TO.C,R5*%
X14113893Y-30949000D03*
X15763893Y-30949000D03*
%TD*%
D46*
%TO.C,R1*%
X10737218Y-22342700D03*
X10737218Y-21322700D03*
%TD*%
D47*
%TO.C,C12*%
X28553607Y-24388161D03*
X29232429Y-23709339D03*
%TD*%
D20*
%TO.C,C18*%
X-35730000Y-26950000D03*
X-34770000Y-26950000D03*
%TD*%
D19*
%TO.C,D10*%
X-29894600Y-123790000D03*
X-29894600Y-121590000D03*
%TD*%
D20*
%TO.C,C20*%
X-22510000Y-27100000D03*
X-21550000Y-27100000D03*
%TD*%
D19*
%TO.C,D16*%
X1061900Y-47590000D03*
X1061900Y-45390000D03*
%TD*%
%TO.C,D28*%
X53449400Y-85690000D03*
X53449400Y-83490000D03*
%TD*%
%TO.C,D13*%
X-3700600Y-85690000D03*
X-3700600Y-83490000D03*
%TD*%
%TO.C,D3*%
X-48944100Y-85690000D03*
X-48944100Y-83490000D03*
%TD*%
D48*
%TO.C,U2*%
X-5708782Y-31170200D03*
X-6658782Y-31170200D03*
X-7608782Y-31170200D03*
X-7608782Y-28895200D03*
X-6658782Y-28895200D03*
X-5708782Y-28895200D03*
%TD*%
%LPD*%
M02*
