M48
; DRILL file {KiCad 7.0.9} date Sun Jan 14 19:33:28 2024
; FORMAT={-:-/ absolute / inch / decimal}
; #@! TF.CreationDate,2024-01-14T19:33:28+01:00
; #@! TF.GenerationSoftware,Kicad,Pcbnew,7.0.9
; #@! TF.FileFunction,Plated,1,2,PTH
FMAT,2
INCH
; #@! TA.AperFunction,Plated,PTH,ViaDrill
T1C0.0118
; #@! TA.AperFunction,Plated,PTH,ViaDrill
T2C0.0138
; #@! TA.AperFunction,Plated,PTH,ComponentDrill
T3C0.0138
; #@! TA.AperFunction,Plated,PTH,ComponentDrill
T4C0.0236
; #@! TA.AperFunction,Plated,PTH,ComponentDrill
T5C0.0394
; #@! TA.AperFunction,Plated,PTH,ComponentDrill
T6C0.0591
%
G90
G05
T1
X-1.8642Y-0.9114
X-1.8248Y-1.252
X-1.5433Y-0.9154
X-1.4055Y-1.0925
X-1.3543Y-0.9547
X-1.1437Y-1.0965
X-1.0807Y-1.1122
X-0.8839Y-1.0965
X-0.8819Y-0.8504
X-0.4972Y-1.0674
X-0.4035Y-1.1417
X-0.3647Y-1.2099
X-0.1809Y-1.183
X-0.1639Y-1.2414
X-0.1555Y-0.8071
X-0.0472Y-1.0774
X-0.0374Y-0.8091
X0.1274Y-1.3989
X0.1675Y-1.4818
X0.1831Y-1.1606
X0.1831Y-1.2556
X0.3831Y-1.4606
X0.4193Y-1.0551
X0.4231Y-1.3456
X0.5031Y-1.2056
X0.5031Y-1.2906
X0.5125Y-1.0458
X0.5605Y-0.9619
X0.6589Y-0.8989
X0.6731Y-1.2056
X0.6731Y-1.2806
X0.75Y-1.3012
X0.7525Y-1.3418
X0.7925Y-1.2018
X0.8119Y-1.1679
X0.8125Y-1.4668
X0.9449Y-0.8386
X0.9764Y-0.7992
X0.9783Y-0.8366
X1.0236Y-1.0138
X1.1775Y-0.9068
X1.1969Y-1.5315
X1.1978Y-1.5739
X1.1988Y-1.6083
X1.2475Y-1.8307
X1.2815Y-1.8287
X1.2975Y-1.2068
X1.3209Y-1.8287
X1.3325Y-1.3218
X1.3484Y-1.8012
X1.3996Y-1.0787
X1.4075Y-1.2568
X1.4475Y-0.9679
X1.5172Y-1.4147
X1.5525Y-1.2318
X1.5669Y-2.5846
X1.7579Y-1.0492
X1.7756Y-3.3268
X1.9075Y-4.876
X1.9547Y-1.0492
X2.1437Y-4.0906
T2
X0.969Y-1.2218
X1.1358Y-1.2168
T3
X1.003Y-1.1427
X1.003Y-1.1929
X1.003Y-1.2431
X1.0531Y-1.1427
X1.0531Y-1.1929
X1.0531Y-1.2431
X1.1033Y-1.1427
X1.1033Y-1.1929
X1.1033Y-1.2431
T5
X1.6983Y-0.8508
X1.6983Y-0.9508
X1.6983Y-1.0508
X1.6983Y-1.1508
X1.6983Y-1.2508
T6
X-2.222Y-1.6154
X-2.1282Y-4.6154
X-2.0345Y-2.3654
X-1.972Y-1.5154
X-1.9407Y-3.1154
X-1.8782Y-4.5154
X-1.7845Y-2.2654
X-1.7503Y-3.8654
X-1.6907Y-3.0154
X-1.5003Y-3.7654
X-1.472Y-1.6154
X-1.222Y-1.5154
X-1.1907Y-4.6154
X-1.097Y-2.3654
X-0.9407Y-4.5154
X-0.9095Y-3.1154
X-0.847Y-2.2654
X-0.722Y-1.6154
X-0.6595Y-3.0154
X-0.5345Y-3.8654
X-0.472Y-1.5154
X-0.347Y-2.3654
X-0.2845Y-3.7654
X-0.2532Y-4.6154
X-0.1595Y-3.1154
X-0.097Y-2.2654
X-0.0032Y-4.5154
X0.028Y-1.6154
X0.0905Y-3.0154
X0.2155Y-3.8654
X0.278Y-1.5154
X0.403Y-2.3654
X0.4655Y-3.7654
X0.5905Y-3.1154
X0.5905Y-4.6154
X0.653Y-2.2654
X0.778Y-1.6154
X0.8405Y-3.0154
X0.8405Y-4.5154
X0.9655Y-3.8654
X1.028Y-1.5154
X1.153Y-2.3654
X1.2155Y-3.7654
X1.3405Y-3.1154
X1.403Y-2.2654
X1.528Y-1.6154
X1.5905Y-3.0154
X1.7155Y-3.8654
X1.778Y-1.5154
X1.8122Y-4.6154
X1.903Y-2.3654
X1.9655Y-3.7654
X2.0622Y-4.5154
X2.0905Y-3.1154
X2.153Y-2.2654
X2.278Y-1.6154
X2.3405Y-3.0154
X2.4655Y-3.8654
X2.528Y-1.5154
X2.653Y-2.3654
X2.7155Y-3.7654
X2.8405Y-3.1154
X2.903Y-2.2654
X3.0905Y-3.0154
T4
G00X-0.436Y-0.7955
M15
G01X-0.436Y-0.8191
M16
G05
G00X-0.436Y-0.9502
M15
G01X-0.436Y-0.9935
M16
G05
G00X-0.0958Y-0.7955
M15
G01X-0.0958Y-0.8191
M16
G05
G00X-0.0958Y-0.9502
M15
G01X-0.0958Y-0.9935
M16
G05
T0
M30
