%TF.GenerationSoftware,KiCad,Pcbnew,7.0.9*%
%TF.CreationDate,2024-01-14T19:33:28+01:00*%
%TF.ProjectId,left_pcb,6c656674-5f70-4636-922e-6b696361645f,rev?*%
%TF.SameCoordinates,Original*%
%TF.FileFunction,Soldermask,Bot*%
%TF.FilePolarity,Negative*%
%FSLAX46Y46*%
G04 Gerber Fmt 4.6, Leading zero omitted, Abs format (unit mm)*
G04 Created by KiCad (PCBNEW 7.0.9) date 2024-01-14 19:33:28*
%MOMM*%
%LPD*%
G01*
G04 APERTURE LIST*
G04 Aperture macros list*
%AMRoundRect*
0 Rectangle with rounded corners*
0 $1 Rounding radius*
0 $2 $3 $4 $5 $6 $7 $8 $9 X,Y pos of 4 corners*
0 Add a 4 corners polygon primitive as box body*
4,1,4,$2,$3,$4,$5,$6,$7,$8,$9,$2,$3,0*
0 Add four circle primitives for the rounded corners*
1,1,$1+$1,$2,$3*
1,1,$1+$1,$4,$5*
1,1,$1+$1,$6,$7*
1,1,$1+$1,$8,$9*
0 Add four rect primitives between the rounded corners*
20,1,$1+$1,$2,$3,$4,$5,0*
20,1,$1+$1,$4,$5,$6,$7,0*
20,1,$1+$1,$6,$7,$8,$9,0*
20,1,$1+$1,$8,$9,$2,$3,0*%
G04 Aperture macros list end*
%ADD10C,1.700000*%
%ADD11C,4.000000*%
%ADD12C,2.200000*%
%ADD13R,1.700000X1.700000*%
%ADD14O,1.700000X1.700000*%
%ADD15C,3.050000*%
%ADD16RoundRect,0.125000X0.125000X-0.125000X0.125000X0.125000X-0.125000X0.125000X-0.125000X-0.125000X0*%
%ADD17RoundRect,0.140000X-0.140000X-0.170000X0.140000X-0.170000X0.140000X0.170000X-0.140000X0.170000X0*%
%ADD18RoundRect,0.237500X-0.237500X0.250000X-0.237500X-0.250000X0.237500X-0.250000X0.237500X0.250000X0*%
%ADD19RoundRect,0.140000X-0.170000X0.140000X-0.170000X-0.140000X0.170000X-0.140000X0.170000X0.140000X0*%
%ADD20C,1.300000*%
%ADD21RoundRect,0.400000X0.750000X0.400000X-0.750000X0.400000X-0.750000X-0.400000X0.750000X-0.400000X0*%
%ADD22RoundRect,0.140000X0.140000X0.170000X-0.140000X0.170000X-0.140000X-0.170000X0.140000X-0.170000X0*%
%ADD23RoundRect,0.135000X-0.185000X0.135000X-0.185000X-0.135000X0.185000X-0.135000X0.185000X0.135000X0*%
%ADD24RoundRect,0.150000X0.587500X0.150000X-0.587500X0.150000X-0.587500X-0.150000X0.587500X-0.150000X0*%
%ADD25RoundRect,0.140000X-0.219203X-0.021213X-0.021213X-0.219203X0.219203X0.021213X0.021213X0.219203X0*%
%ADD26RoundRect,0.200000X-0.200000X-0.275000X0.200000X-0.275000X0.200000X0.275000X-0.200000X0.275000X0*%
%ADD27RoundRect,0.140000X0.170000X-0.140000X0.170000X0.140000X-0.170000X0.140000X-0.170000X-0.140000X0*%
%ADD28R,1.700000X1.000000*%
%ADD29C,0.650000*%
%ADD30R,0.600000X1.450000*%
%ADD31R,0.300000X1.450000*%
%ADD32O,1.000000X1.600000*%
%ADD33O,1.000000X2.100000*%
%ADD34R,1.000000X1.700000*%
%ADD35R,1.200000X1.400000*%
%ADD36RoundRect,0.250000X-0.625000X0.375000X-0.625000X-0.375000X0.625000X-0.375000X0.625000X0.375000X0*%
%ADD37RoundRect,0.050000X-0.050000X0.387500X-0.050000X-0.387500X0.050000X-0.387500X0.050000X0.387500X0*%
%ADD38RoundRect,0.050000X-0.387500X0.050000X-0.387500X-0.050000X0.387500X-0.050000X0.387500X0.050000X0*%
%ADD39RoundRect,0.144000X-1.456000X1.456000X-1.456000X-1.456000X1.456000X-1.456000X1.456000X1.456000X0*%
%ADD40RoundRect,0.135000X0.135000X0.185000X-0.135000X0.185000X-0.135000X-0.185000X0.135000X-0.185000X0*%
%ADD41RoundRect,0.150000X-0.150000X0.650000X-0.150000X-0.650000X0.150000X-0.650000X0.150000X0.650000X0*%
%ADD42RoundRect,0.237500X0.237500X-0.250000X0.237500X0.250000X-0.237500X0.250000X-0.237500X-0.250000X0*%
%ADD43RoundRect,0.135000X0.185000X-0.135000X0.185000X0.135000X-0.185000X0.135000X-0.185000X-0.135000X0*%
%ADD44RoundRect,0.140000X0.021213X-0.219203X0.219203X-0.021213X-0.021213X0.219203X-0.219203X0.021213X0*%
%ADD45RoundRect,0.150000X0.150000X-0.512500X0.150000X0.512500X-0.150000X0.512500X-0.150000X-0.512500X0*%
G04 APERTURE END LIST*
D10*
%TO.C,SW12*%
X-10083100Y-62620000D03*
D11*
X-5003100Y-62620000D03*
D10*
X76900Y-62620000D03*
D12*
X-2463100Y-57540000D03*
X-8813100Y-60080000D03*
%TD*%
D13*
%TO.C,J2*%
X43137218Y-31770000D03*
D14*
X43137218Y-29230000D03*
X43137218Y-26690000D03*
X43137218Y-24150000D03*
X43137218Y-21610000D03*
%TD*%
D10*
%TO.C,SW20*%
X13729400Y-119770000D03*
D11*
X18809400Y-119770000D03*
D10*
X23889400Y-119770000D03*
D12*
X21349400Y-114690000D03*
X14999400Y-117230000D03*
%TD*%
D10*
%TO.C,SW31*%
X66116900Y-62620000D03*
D11*
X71196900Y-62620000D03*
D10*
X76276900Y-62620000D03*
D12*
X73736900Y-57540000D03*
X67386900Y-60080000D03*
%TD*%
D10*
%TO.C,SW27*%
X47066900Y-62620000D03*
D11*
X52146900Y-62620000D03*
D10*
X57226900Y-62620000D03*
D12*
X54686900Y-57540000D03*
X48336900Y-60080000D03*
%TD*%
%TO.C,REF\u002A\u002A*%
X68050000Y-129655600D03*
%TD*%
%TO.C,REF\u002A\u002A*%
X-33950000Y-54050000D03*
%TD*%
D15*
%TO.C,SW4*%
X-52547500Y-93720000D03*
D11*
X-52547500Y-108960000D03*
D10*
X-45727500Y-100720000D03*
D11*
X-40647500Y-100720000D03*
D10*
X-35567500Y-100720000D03*
D15*
X-28747500Y-93720000D03*
D11*
X-28747500Y-108960000D03*
D12*
X-38107500Y-95640000D03*
X-44457500Y-98180000D03*
%TD*%
D10*
%TO.C,SW7*%
X-29133100Y-62620000D03*
D11*
X-24053100Y-62620000D03*
D10*
X-18973100Y-62620000D03*
D12*
X-21513100Y-57540000D03*
X-27863100Y-60080000D03*
%TD*%
D10*
%TO.C,SW6*%
X-38658100Y-43570000D03*
D11*
X-33578100Y-43570000D03*
D10*
X-28498100Y-43570000D03*
D12*
X-31038100Y-38490000D03*
X-37388100Y-41030000D03*
%TD*%
D10*
%TO.C,SW26*%
X37541900Y-43570000D03*
D11*
X42621900Y-43570000D03*
D10*
X47701900Y-43570000D03*
D12*
X45161900Y-38490000D03*
X38811900Y-41030000D03*
%TD*%
%TO.C,REF\u002A\u002A*%
X-30800000Y-74200000D03*
%TD*%
D10*
%TO.C,SW29*%
X61354400Y-100720000D03*
D11*
X66434400Y-100720000D03*
D10*
X71514400Y-100720000D03*
D12*
X68974400Y-95640000D03*
X62624400Y-98180000D03*
%TD*%
D10*
%TO.C,SW2*%
X-52945100Y-62620000D03*
D11*
X-47865100Y-62620000D03*
D10*
X-42785100Y-62620000D03*
D12*
X-45325100Y-57540000D03*
X-51675100Y-60080000D03*
%TD*%
D10*
%TO.C,SW15*%
X-7702100Y-119770000D03*
D11*
X-2622100Y-119770000D03*
D10*
X2457900Y-119770000D03*
D12*
X-82100Y-114690000D03*
X-6432100Y-117230000D03*
%TD*%
D10*
%TO.C,SW17*%
X8966900Y-62620000D03*
D11*
X14046900Y-62620000D03*
D10*
X19126900Y-62620000D03*
D12*
X16586900Y-57540000D03*
X10236900Y-60080000D03*
%TD*%
%TO.C,REF\u002A\u002A*%
X29150000Y-119600000D03*
%TD*%
D10*
%TO.C,SW1*%
X-57708100Y-43570000D03*
D11*
X-52628100Y-43570000D03*
D10*
X-47548100Y-43570000D03*
D12*
X-50088100Y-38490000D03*
X-56438100Y-41030000D03*
%TD*%
D10*
%TO.C,SW11*%
X-19608100Y-43570000D03*
D11*
X-14528100Y-43570000D03*
D10*
X-9448100Y-43570000D03*
D12*
X-11988100Y-38490000D03*
X-18338100Y-41030000D03*
%TD*%
D10*
%TO.C,SW21*%
X18491900Y-43570000D03*
D11*
X23571900Y-43570000D03*
D10*
X28651900Y-43570000D03*
D12*
X26111900Y-38490000D03*
X19761900Y-41030000D03*
%TD*%
%TO.C,REF\u002A\u002A*%
X-20800000Y-95550000D03*
%TD*%
%TO.C,REF\u002A\u002A*%
X66999600Y-23655600D03*
%TD*%
%TO.C,REF\u002A\u002A*%
X-58450000Y-110155600D03*
%TD*%
D10*
%TO.C,SW13*%
X-5320600Y-81670000D03*
D11*
X-240600Y-81670000D03*
D10*
X4839400Y-81670000D03*
D12*
X2299400Y-76590000D03*
X-4050600Y-79130000D03*
%TD*%
%TO.C,REF\u002A\u002A*%
X66400000Y-72655600D03*
%TD*%
%TO.C,REF\u002A\u002A*%
X-57950400Y-23655600D03*
%TD*%
D10*
%TO.C,SW10*%
X-31514600Y-119770000D03*
D11*
X-26434600Y-119770000D03*
D10*
X-21354600Y-119770000D03*
D12*
X-23894600Y-114690000D03*
X-30244600Y-117230000D03*
%TD*%
D10*
%TO.C,SW19*%
X23254400Y-100720000D03*
D11*
X28334400Y-100720000D03*
D10*
X33414400Y-100720000D03*
D12*
X30874400Y-95640000D03*
X24524400Y-98180000D03*
%TD*%
D10*
%TO.C,SW18*%
X13729400Y-81670000D03*
D11*
X18809400Y-81670000D03*
D10*
X23889400Y-81670000D03*
D12*
X21349400Y-76590000D03*
X14999400Y-79130000D03*
%TD*%
D10*
%TO.C,SW30*%
X56591900Y-43570000D03*
D11*
X61671900Y-43570000D03*
D10*
X66751900Y-43570000D03*
D12*
X64211900Y-38490000D03*
X57861900Y-41030000D03*
%TD*%
D10*
%TO.C,SW9*%
X-14845600Y-100720000D03*
D11*
X-9765600Y-100720000D03*
D10*
X-4685600Y-100720000D03*
D12*
X-7225600Y-95640000D03*
X-13575600Y-98180000D03*
%TD*%
D10*
%TO.C,SW16*%
X-558100Y-43570000D03*
D11*
X4521900Y-43570000D03*
D10*
X9601900Y-43570000D03*
D12*
X7061900Y-38490000D03*
X711900Y-41030000D03*
%TD*%
D10*
%TO.C,SW22*%
X28016900Y-62620000D03*
D11*
X33096900Y-62620000D03*
D10*
X38176900Y-62620000D03*
D12*
X35636900Y-57540000D03*
X29286900Y-60080000D03*
%TD*%
D15*
%TO.C,SW25*%
X37940000Y-112770000D03*
D11*
X37940000Y-128010000D03*
D10*
X44760000Y-119770000D03*
D11*
X49840000Y-119770000D03*
D10*
X54920000Y-119770000D03*
D15*
X61740000Y-112770000D03*
D11*
X61740000Y-128010000D03*
D12*
X52380000Y-114690000D03*
X46030000Y-117230000D03*
%TD*%
D10*
%TO.C,SW28*%
X51829400Y-81670000D03*
D11*
X56909400Y-81670000D03*
D10*
X61989400Y-81670000D03*
D12*
X59449400Y-76590000D03*
X53099400Y-79130000D03*
%TD*%
D10*
%TO.C,SW23*%
X32779400Y-81670000D03*
D11*
X37859400Y-81670000D03*
D10*
X42939400Y-81670000D03*
D12*
X40399400Y-76590000D03*
X34049400Y-79130000D03*
%TD*%
%TO.C,REF\u002A\u002A*%
X-58050400Y-129655600D03*
%TD*%
D10*
%TO.C,SW8*%
X-24370600Y-81670000D03*
D11*
X-19290600Y-81670000D03*
D10*
X-14210600Y-81670000D03*
D12*
X-16750600Y-76590000D03*
X-23100600Y-79130000D03*
%TD*%
%TO.C,REF\u002A\u002A*%
X23600000Y-53850000D03*
%TD*%
D10*
%TO.C,SW24*%
X42304400Y-100720000D03*
D11*
X47384400Y-100720000D03*
D10*
X52464400Y-100720000D03*
D12*
X49924400Y-95640000D03*
X43574400Y-98180000D03*
%TD*%
D10*
%TO.C,SW32*%
X70879400Y-81670000D03*
D11*
X75959400Y-81670000D03*
D10*
X81039400Y-81670000D03*
D12*
X78499400Y-76590000D03*
X72149400Y-79130000D03*
%TD*%
D10*
%TO.C,SW14*%
X4204400Y-100720000D03*
D11*
X9284400Y-100720000D03*
D10*
X14364400Y-100720000D03*
D12*
X11824400Y-95640000D03*
X5474400Y-98180000D03*
%TD*%
D10*
%TO.C,SW5*%
X-55327100Y-119770000D03*
D11*
X-50247100Y-119770000D03*
D10*
X-45167100Y-119770000D03*
D12*
X-47707100Y-114690000D03*
X-54057100Y-117230000D03*
%TD*%
D10*
%TO.C,SW3*%
X-50564100Y-81670000D03*
D11*
X-45484100Y-81670000D03*
D10*
X-40404100Y-81670000D03*
D12*
X-42944100Y-76590000D03*
X-49294100Y-79130000D03*
%TD*%
%TO.C,REF\u002A\u002A*%
X9200000Y-72900000D03*
%TD*%
D16*
%TO.C,D31*%
X67736900Y-66640000D03*
X67736900Y-64440000D03*
%TD*%
%TO.C,D22*%
X29636900Y-66640000D03*
X29636900Y-64440000D03*
%TD*%
D17*
%TO.C,C6*%
X33858250Y-32713000D03*
X34818250Y-32713000D03*
%TD*%
D16*
%TO.C,D2*%
X-51325100Y-66640000D03*
X-51325100Y-64440000D03*
%TD*%
%TO.C,D32*%
X72499400Y-85690000D03*
X72499400Y-83490000D03*
%TD*%
D18*
%TO.C,R8*%
X-27350000Y-23787500D03*
X-27350000Y-25612500D03*
%TD*%
D16*
%TO.C,D14*%
X5824400Y-104740000D03*
X5824400Y-102540000D03*
%TD*%
%TO.C,D19*%
X24874400Y-104740000D03*
X24874400Y-102540000D03*
%TD*%
%TO.C,D15*%
X-6082100Y-123790000D03*
X-6082100Y-121590000D03*
%TD*%
D19*
%TO.C,C9*%
X23289250Y-36297000D03*
X23289250Y-37257000D03*
%TD*%
D20*
%TO.C,J3*%
X-44600000Y-28550000D03*
X-44600000Y-21550000D03*
D21*
X-40950000Y-30150000D03*
X-40950000Y-24450000D03*
X-48250000Y-21450000D03*
X-40950000Y-21550000D03*
X-48250000Y-30750000D03*
X-48250000Y-28550000D03*
%TD*%
D16*
%TO.C,D8*%
X-22750600Y-85690000D03*
X-22750600Y-83490000D03*
%TD*%
D22*
%TO.C,C13*%
X19197250Y-30300000D03*
X18237250Y-30300000D03*
%TD*%
D16*
%TO.C,D26*%
X39161900Y-47590000D03*
X39161900Y-45390000D03*
%TD*%
%TO.C,D20*%
X15349400Y-123790000D03*
X15349400Y-121590000D03*
%TD*%
D22*
%TO.C,C5*%
X19197250Y-28776000D03*
X18237250Y-28776000D03*
%TD*%
D19*
%TO.C,C14*%
X21765250Y-36297000D03*
X21765250Y-37257000D03*
%TD*%
D16*
%TO.C,D24*%
X43924400Y-104740000D03*
X43924400Y-102540000D03*
%TD*%
D17*
%TO.C,C10*%
X33858250Y-31189000D03*
X34818250Y-31189000D03*
%TD*%
D23*
%TO.C,R2*%
X39637218Y-35932700D03*
X39637218Y-36952700D03*
%TD*%
D22*
%TO.C,C8*%
X20991018Y-34081750D03*
X20031018Y-34081750D03*
%TD*%
D16*
%TO.C,D18*%
X15349400Y-85690000D03*
X15349400Y-83490000D03*
%TD*%
D23*
%TO.C,R4*%
X-4214032Y-28014575D03*
X-4214032Y-29034575D03*
%TD*%
D24*
%TO.C,Q1*%
X-29350000Y-23750000D03*
X-29350000Y-25650000D03*
X-31225000Y-24700000D03*
%TD*%
D25*
%TO.C,C11*%
X29331482Y-37266589D03*
X30010304Y-37945411D03*
%TD*%
D26*
%TO.C,R6*%
X14113893Y-32600000D03*
X15763893Y-32600000D03*
%TD*%
D16*
%TO.C,D17*%
X10586900Y-66640000D03*
X10586900Y-64440000D03*
%TD*%
D20*
%TO.C,J4*%
X53500000Y-28550000D03*
X53500000Y-21550000D03*
D21*
X57150000Y-30150000D03*
X57150000Y-24450000D03*
X49850000Y-21450000D03*
X57150000Y-21550000D03*
X49850000Y-30750000D03*
X49850000Y-28550000D03*
%TD*%
D23*
%TO.C,R3*%
X-9167032Y-28014575D03*
X-9167032Y-29034575D03*
%TD*%
D27*
%TO.C,C16*%
X4268018Y-36467250D03*
X4268018Y-35507250D03*
%TD*%
D16*
%TO.C,D29*%
X62974400Y-104740000D03*
X62974400Y-102540000D03*
%TD*%
D17*
%TO.C,C19*%
X-29100000Y-27050000D03*
X-28140000Y-27050000D03*
%TD*%
D16*
%TO.C,D12*%
X-8463100Y-66640000D03*
X-8463100Y-64440000D03*
%TD*%
%TO.C,D30*%
X58211900Y-47590000D03*
X58211900Y-45390000D03*
%TD*%
D28*
%TO.C,SW_RESET1*%
X69300000Y-28450000D03*
X63000000Y-28450000D03*
X69300000Y-32250000D03*
X63000000Y-32250000D03*
%TD*%
D16*
%TO.C,D4*%
X-44107500Y-104740000D03*
X-44107500Y-102540000D03*
%TD*%
D17*
%TO.C,C2*%
X37684018Y-24585000D03*
X38644018Y-24585000D03*
%TD*%
D29*
%TO.C,J1*%
X-9644032Y-24155450D03*
X-3864032Y-24155450D03*
D30*
X-10004032Y-25600450D03*
X-9204032Y-25600450D03*
D31*
X-8004032Y-25600450D03*
X-7004032Y-25600450D03*
X-6504032Y-25600450D03*
X-5504032Y-25600450D03*
D30*
X-4304032Y-25600450D03*
X-3504032Y-25600450D03*
X-3504032Y-25600450D03*
X-4304032Y-25600450D03*
D31*
X-5004032Y-25600450D03*
X-6004032Y-25600450D03*
X-7504032Y-25600450D03*
X-8504032Y-25600450D03*
D30*
X-9204032Y-25600450D03*
X-10004032Y-25600450D03*
D32*
X-11074032Y-20505450D03*
D33*
X-11074032Y-24685450D03*
D32*
X-2434032Y-20505450D03*
D33*
X-2434032Y-24685450D03*
%TD*%
D34*
%TO.C,SW_BOOT1*%
X5137218Y-21582700D03*
X5137218Y-27882700D03*
X8937218Y-21582700D03*
X8937218Y-27882700D03*
%TD*%
D16*
%TO.C,D5*%
X-53707100Y-123790000D03*
X-53707100Y-121590000D03*
%TD*%
D24*
%TO.C,U4*%
X7999518Y-34275250D03*
X7999518Y-36175250D03*
X6124518Y-35225250D03*
%TD*%
D16*
%TO.C,D21*%
X20111900Y-47590000D03*
X20111900Y-45390000D03*
%TD*%
D35*
%TO.C,Y1*%
X37044250Y-29114000D03*
X37044250Y-26914000D03*
X38744250Y-26914000D03*
X38744250Y-29114000D03*
%TD*%
D16*
%TO.C,D25*%
X46380000Y-123790000D03*
X46380000Y-121590000D03*
%TD*%
D36*
%TO.C,F1*%
X-2162782Y-28832700D03*
X-2162782Y-31632700D03*
%TD*%
D22*
%TO.C,C3*%
X38390018Y-31287750D03*
X37430018Y-31287750D03*
%TD*%
D27*
%TO.C,C1*%
X10647218Y-28769700D03*
X10647218Y-27809700D03*
%TD*%
D16*
%TO.C,D27*%
X48686900Y-66640000D03*
X48686900Y-64440000D03*
%TD*%
%TO.C,D11*%
X-17988100Y-47590000D03*
X-17988100Y-45390000D03*
%TD*%
%TO.C,D23*%
X34399400Y-85690000D03*
X34399400Y-83490000D03*
%TD*%
D37*
%TO.C,U3*%
X24150000Y-26862500D03*
X24550000Y-26862500D03*
X24950000Y-26862500D03*
X25350000Y-26862500D03*
X25750000Y-26862500D03*
X26150000Y-26862500D03*
X26550000Y-26862500D03*
X26950000Y-26862500D03*
X27350000Y-26862500D03*
X27750000Y-26862500D03*
X28150000Y-26862500D03*
X28550000Y-26862500D03*
X28950000Y-26862500D03*
X29350000Y-26862500D03*
D38*
X30187500Y-27700000D03*
X30187500Y-28100000D03*
X30187500Y-28500000D03*
X30187500Y-28900000D03*
X30187500Y-29300000D03*
X30187500Y-29700000D03*
X30187500Y-30100000D03*
X30187500Y-30500000D03*
X30187500Y-30900000D03*
X30187500Y-31300000D03*
X30187500Y-31700000D03*
X30187500Y-32100000D03*
X30187500Y-32500000D03*
X30187500Y-32900000D03*
D37*
X29350000Y-33737500D03*
X28950000Y-33737500D03*
X28550000Y-33737500D03*
X28150000Y-33737500D03*
X27750000Y-33737500D03*
X27350000Y-33737500D03*
X26950000Y-33737500D03*
X26550000Y-33737500D03*
X26150000Y-33737500D03*
X25750000Y-33737500D03*
X25350000Y-33737500D03*
X24950000Y-33737500D03*
X24550000Y-33737500D03*
X24150000Y-33737500D03*
D38*
X23312500Y-32900000D03*
X23312500Y-32500000D03*
X23312500Y-32100000D03*
X23312500Y-31700000D03*
X23312500Y-31300000D03*
X23312500Y-30900000D03*
X23312500Y-30500000D03*
X23312500Y-30100000D03*
X23312500Y-29700000D03*
X23312500Y-29300000D03*
X23312500Y-28900000D03*
X23312500Y-28500000D03*
X23312500Y-28100000D03*
X23312500Y-27700000D03*
D39*
X26750000Y-30300000D03*
%TD*%
D19*
%TO.C,C17*%
X10747893Y-35221000D03*
X10747893Y-36181000D03*
%TD*%
D40*
%TO.C,R7*%
X34848250Y-29157000D03*
X33828250Y-29157000D03*
%TD*%
D41*
%TO.C,U1*%
X12297218Y-21212700D03*
X13567218Y-21212700D03*
X14837218Y-21212700D03*
X16107218Y-21212700D03*
X16107218Y-28412700D03*
X14837218Y-28412700D03*
X13567218Y-28412700D03*
X12297218Y-28412700D03*
%TD*%
D16*
%TO.C,D7*%
X-27513100Y-66640000D03*
X-27513100Y-64440000D03*
%TD*%
D42*
%TO.C,R9*%
X-33000000Y-26700000D03*
X-33000000Y-24875000D03*
%TD*%
D27*
%TO.C,C7*%
X9731893Y-36181000D03*
X9731893Y-35221000D03*
%TD*%
D16*
%TO.C,D9*%
X-13225600Y-104740000D03*
X-13225600Y-102540000D03*
%TD*%
%TO.C,D1*%
X-56088100Y-47590000D03*
X-56088100Y-45390000D03*
%TD*%
D22*
%TO.C,C15*%
X23531018Y-25064750D03*
X22571018Y-25064750D03*
%TD*%
%TO.C,C4*%
X20991018Y-33065750D03*
X20031018Y-33065750D03*
%TD*%
D16*
%TO.C,D6*%
X-37038100Y-47590000D03*
X-37038100Y-45390000D03*
%TD*%
D26*
%TO.C,R5*%
X14113893Y-30949000D03*
X15763893Y-30949000D03*
%TD*%
D43*
%TO.C,R1*%
X10737218Y-22342700D03*
X10737218Y-21322700D03*
%TD*%
D44*
%TO.C,C12*%
X28553607Y-24388161D03*
X29232429Y-23709339D03*
%TD*%
D17*
%TO.C,C18*%
X-35730000Y-26950000D03*
X-34770000Y-26950000D03*
%TD*%
D16*
%TO.C,D10*%
X-29894600Y-123790000D03*
X-29894600Y-121590000D03*
%TD*%
D17*
%TO.C,C20*%
X-22510000Y-27100000D03*
X-21550000Y-27100000D03*
%TD*%
D16*
%TO.C,D16*%
X1061900Y-47590000D03*
X1061900Y-45390000D03*
%TD*%
%TO.C,D28*%
X53449400Y-85690000D03*
X53449400Y-83490000D03*
%TD*%
%TO.C,D13*%
X-3700600Y-85690000D03*
X-3700600Y-83490000D03*
%TD*%
%TO.C,D3*%
X-48944100Y-85690000D03*
X-48944100Y-83490000D03*
%TD*%
D45*
%TO.C,U2*%
X-5708782Y-31170200D03*
X-6658782Y-31170200D03*
X-7608782Y-31170200D03*
X-7608782Y-28895200D03*
X-6658782Y-28895200D03*
X-5708782Y-28895200D03*
%TD*%
M02*
