%TF.GenerationSoftware,KiCad,Pcbnew,7.0.9*%
%TF.CreationDate,2024-01-14T19:20:26+01:00*%
%TF.ProjectId,left_plate,6c656674-5f70-46c6-9174-652e6b696361,rev?*%
%TF.SameCoordinates,Original*%
%TF.FileFunction,Legend,Bot*%
%TF.FilePolarity,Positive*%
%FSLAX46Y46*%
G04 Gerber Fmt 4.6, Leading zero omitted, Abs format (unit mm)*
G04 Created by KiCad (PCBNEW 7.0.9) date 2024-01-14 19:20:26*
%MOMM*%
%LPD*%
G01*
G04 APERTURE LIST*
%ADD10C,0.150000*%
%ADD11C,4.500000*%
G04 APERTURE END LIST*
D10*
X143287030Y-63725057D02*
X143287030Y-61725057D01*
X143287030Y-62010771D02*
X143144173Y-61867914D01*
X143144173Y-61867914D02*
X142858458Y-61725057D01*
X142858458Y-61725057D02*
X142429887Y-61725057D01*
X142429887Y-61725057D02*
X142144173Y-61867914D01*
X142144173Y-61867914D02*
X142001316Y-62153628D01*
X142001316Y-62153628D02*
X142001316Y-63725057D01*
X142001316Y-62153628D02*
X141858458Y-61867914D01*
X141858458Y-61867914D02*
X141572744Y-61725057D01*
X141572744Y-61725057D02*
X141144173Y-61725057D01*
X141144173Y-61725057D02*
X140858458Y-61867914D01*
X140858458Y-61867914D02*
X140715601Y-62153628D01*
X140715601Y-62153628D02*
X140715601Y-63725057D01*
X138001316Y-63725057D02*
X138001316Y-62153628D01*
X138001316Y-62153628D02*
X138144173Y-61867914D01*
X138144173Y-61867914D02*
X138429887Y-61725057D01*
X138429887Y-61725057D02*
X139001316Y-61725057D01*
X139001316Y-61725057D02*
X139287030Y-61867914D01*
X138001316Y-63582200D02*
X138287030Y-63725057D01*
X138287030Y-63725057D02*
X139001316Y-63725057D01*
X139001316Y-63725057D02*
X139287030Y-63582200D01*
X139287030Y-63582200D02*
X139429887Y-63296485D01*
X139429887Y-63296485D02*
X139429887Y-63010771D01*
X139429887Y-63010771D02*
X139287030Y-62725057D01*
X139287030Y-62725057D02*
X139001316Y-62582200D01*
X139001316Y-62582200D02*
X138287030Y-62582200D01*
X138287030Y-62582200D02*
X138001316Y-62439342D01*
X136858458Y-61725057D02*
X136144172Y-63725057D01*
X135429887Y-61725057D02*
X136144172Y-63725057D01*
X136144172Y-63725057D02*
X136429887Y-64439342D01*
X136429887Y-64439342D02*
X136572744Y-64582200D01*
X136572744Y-64582200D02*
X136858458Y-64725057D01*
X134287030Y-63725057D02*
X134287030Y-60725057D01*
X134001316Y-62582200D02*
X133144173Y-63725057D01*
X133144173Y-61725057D02*
X134287030Y-62867914D01*
X131858459Y-63725057D02*
X131858459Y-60725057D01*
X131858459Y-61867914D02*
X131572745Y-61725057D01*
X131572745Y-61725057D02*
X131001316Y-61725057D01*
X131001316Y-61725057D02*
X130715602Y-61867914D01*
X130715602Y-61867914D02*
X130572745Y-62010771D01*
X130572745Y-62010771D02*
X130429887Y-62296485D01*
X130429887Y-62296485D02*
X130429887Y-63153628D01*
X130429887Y-63153628D02*
X130572745Y-63439342D01*
X130572745Y-63439342D02*
X130715602Y-63582200D01*
X130715602Y-63582200D02*
X131001316Y-63725057D01*
X131001316Y-63725057D02*
X131572745Y-63725057D01*
X131572745Y-63725057D02*
X131858459Y-63582200D01*
X125572745Y-61725057D02*
X125572745Y-64153628D01*
X125572745Y-64153628D02*
X125715602Y-64439342D01*
X125715602Y-64439342D02*
X125858459Y-64582200D01*
X125858459Y-64582200D02*
X126144173Y-64725057D01*
X126144173Y-64725057D02*
X126572745Y-64725057D01*
X126572745Y-64725057D02*
X126858459Y-64582200D01*
X125572745Y-63582200D02*
X125858459Y-63725057D01*
X125858459Y-63725057D02*
X126429887Y-63725057D01*
X126429887Y-63725057D02*
X126715602Y-63582200D01*
X126715602Y-63582200D02*
X126858459Y-63439342D01*
X126858459Y-63439342D02*
X127001316Y-63153628D01*
X127001316Y-63153628D02*
X127001316Y-62296485D01*
X127001316Y-62296485D02*
X126858459Y-62010771D01*
X126858459Y-62010771D02*
X126715602Y-61867914D01*
X126715602Y-61867914D02*
X126429887Y-61725057D01*
X126429887Y-61725057D02*
X125858459Y-61725057D01*
X125858459Y-61725057D02*
X125572745Y-61867914D01*
X122858459Y-61725057D02*
X122858459Y-63725057D01*
X123572744Y-60582200D02*
X124287030Y-62725057D01*
X124287030Y-62725057D02*
X122429887Y-62725057D01*
X107777506Y-60369819D02*
X107777506Y-61084104D01*
X107777506Y-61084104D02*
X107825125Y-61226961D01*
X107825125Y-61226961D02*
X107920363Y-61322200D01*
X107920363Y-61322200D02*
X108063220Y-61369819D01*
X108063220Y-61369819D02*
X108158458Y-61369819D01*
X106825125Y-61369819D02*
X107301315Y-61369819D01*
X107301315Y-61369819D02*
X107301315Y-60369819D01*
X105920363Y-61274580D02*
X105967982Y-61322200D01*
X105967982Y-61322200D02*
X106110839Y-61369819D01*
X106110839Y-61369819D02*
X106206077Y-61369819D01*
X106206077Y-61369819D02*
X106348934Y-61322200D01*
X106348934Y-61322200D02*
X106444172Y-61226961D01*
X106444172Y-61226961D02*
X106491791Y-61131723D01*
X106491791Y-61131723D02*
X106539410Y-60941247D01*
X106539410Y-60941247D02*
X106539410Y-60798390D01*
X106539410Y-60798390D02*
X106491791Y-60607914D01*
X106491791Y-60607914D02*
X106444172Y-60512676D01*
X106444172Y-60512676D02*
X106348934Y-60417438D01*
X106348934Y-60417438D02*
X106206077Y-60369819D01*
X106206077Y-60369819D02*
X106110839Y-60369819D01*
X106110839Y-60369819D02*
X105967982Y-60417438D01*
X105967982Y-60417438D02*
X105920363Y-60465057D01*
X105206077Y-60369819D02*
X105206077Y-61084104D01*
X105206077Y-61084104D02*
X105253696Y-61226961D01*
X105253696Y-61226961D02*
X105348934Y-61322200D01*
X105348934Y-61322200D02*
X105491791Y-61369819D01*
X105491791Y-61369819D02*
X105587029Y-61369819D01*
X104253696Y-61369819D02*
X104729886Y-61369819D01*
X104729886Y-61369819D02*
X104729886Y-60369819D01*
X103348934Y-61274580D02*
X103396553Y-61322200D01*
X103396553Y-61322200D02*
X103539410Y-61369819D01*
X103539410Y-61369819D02*
X103634648Y-61369819D01*
X103634648Y-61369819D02*
X103777505Y-61322200D01*
X103777505Y-61322200D02*
X103872743Y-61226961D01*
X103872743Y-61226961D02*
X103920362Y-61131723D01*
X103920362Y-61131723D02*
X103967981Y-60941247D01*
X103967981Y-60941247D02*
X103967981Y-60798390D01*
X103967981Y-60798390D02*
X103920362Y-60607914D01*
X103920362Y-60607914D02*
X103872743Y-60512676D01*
X103872743Y-60512676D02*
X103777505Y-60417438D01*
X103777505Y-60417438D02*
X103634648Y-60369819D01*
X103634648Y-60369819D02*
X103539410Y-60369819D01*
X103539410Y-60369819D02*
X103396553Y-60417438D01*
X103396553Y-60417438D02*
X103348934Y-60465057D01*
X102634648Y-60369819D02*
X102634648Y-61084104D01*
X102634648Y-61084104D02*
X102682267Y-61226961D01*
X102682267Y-61226961D02*
X102777505Y-61322200D01*
X102777505Y-61322200D02*
X102920362Y-61369819D01*
X102920362Y-61369819D02*
X103015600Y-61369819D01*
X101682267Y-61369819D02*
X102158457Y-61369819D01*
X102158457Y-61369819D02*
X102158457Y-60369819D01*
X100777505Y-61274580D02*
X100825124Y-61322200D01*
X100825124Y-61322200D02*
X100967981Y-61369819D01*
X100967981Y-61369819D02*
X101063219Y-61369819D01*
X101063219Y-61369819D02*
X101206076Y-61322200D01*
X101206076Y-61322200D02*
X101301314Y-61226961D01*
X101301314Y-61226961D02*
X101348933Y-61131723D01*
X101348933Y-61131723D02*
X101396552Y-60941247D01*
X101396552Y-60941247D02*
X101396552Y-60798390D01*
X101396552Y-60798390D02*
X101348933Y-60607914D01*
X101348933Y-60607914D02*
X101301314Y-60512676D01*
X101301314Y-60512676D02*
X101206076Y-60417438D01*
X101206076Y-60417438D02*
X101063219Y-60369819D01*
X101063219Y-60369819D02*
X100967981Y-60369819D01*
X100967981Y-60369819D02*
X100825124Y-60417438D01*
X100825124Y-60417438D02*
X100777505Y-60465057D01*
X100063219Y-60369819D02*
X100063219Y-61084104D01*
X100063219Y-61084104D02*
X100110838Y-61226961D01*
X100110838Y-61226961D02*
X100206076Y-61322200D01*
X100206076Y-61322200D02*
X100348933Y-61369819D01*
X100348933Y-61369819D02*
X100444171Y-61369819D01*
X99110838Y-61369819D02*
X99587028Y-61369819D01*
X99587028Y-61369819D02*
X99587028Y-60369819D01*
X98206076Y-61274580D02*
X98253695Y-61322200D01*
X98253695Y-61322200D02*
X98396552Y-61369819D01*
X98396552Y-61369819D02*
X98491790Y-61369819D01*
X98491790Y-61369819D02*
X98634647Y-61322200D01*
X98634647Y-61322200D02*
X98729885Y-61226961D01*
X98729885Y-61226961D02*
X98777504Y-61131723D01*
X98777504Y-61131723D02*
X98825123Y-60941247D01*
X98825123Y-60941247D02*
X98825123Y-60798390D01*
X98825123Y-60798390D02*
X98777504Y-60607914D01*
X98777504Y-60607914D02*
X98729885Y-60512676D01*
X98729885Y-60512676D02*
X98634647Y-60417438D01*
X98634647Y-60417438D02*
X98491790Y-60369819D01*
X98491790Y-60369819D02*
X98396552Y-60369819D01*
X98396552Y-60369819D02*
X98253695Y-60417438D01*
X98253695Y-60417438D02*
X98206076Y-60465057D01*
%LPC*%
D11*
%TO.C,H4*%
X121750000Y-153600000D03*
%TD*%
%TO.C,H11*%
X116200000Y-87850000D03*
%TD*%
%TO.C,H3*%
X61800000Y-108200000D03*
%TD*%
%TO.C,H1*%
X160650000Y-163655600D03*
%TD*%
%TO.C,H10*%
X34549600Y-163655600D03*
%TD*%
%TO.C,H2*%
X58650000Y-88050000D03*
%TD*%
%TO.C,H6*%
X159599600Y-57655600D03*
%TD*%
%TO.C,H7*%
X34150000Y-144155600D03*
%TD*%
%TO.C,H5*%
X71800000Y-129550000D03*
%TD*%
%TO.C,H9*%
X34649600Y-57655600D03*
%TD*%
%TO.C,H8*%
X159000000Y-106655600D03*
%TD*%
%TO.C,H12*%
X101800000Y-106900000D03*
%TD*%
%LPD*%
M02*
