<?xml version="1.0" encoding="UTF-8"?>
<!-- Generated by SVGo -->
<svg width="157.639mm" height="105.252mm" viewBox="0.000 0.000 157.639 105.252" xmlns="http://www.w3.org/2000/svg" xmlns:xlink="http://www.w3.org/1999/xlink">
<polygon points="152.639,100.251 5.001,100.251 5.001,5.001 152.639,5.001" style="fill:none;stroke-width:0.050000mm;stroke:black"/>
<polygon points="109.919,83.726 109.919,88.426 108.394,88.426 108.394,85.196 106.669,85.196 106.669,84.275 103.369,84.275 103.369,85.196 101.644,85.196 101.644,88.426 100.819,88.426 100.819,91.226 101.644,91.226 101.644,97.495 103.369,97.495 103.369,98.476 106.669,98.476 106.669,97.495 108.394,97.495 108.394,93.025 109.919,93.025 109.919,97.726 123.919,97.726 123.919,93.025 125.444,93.025 125.444,97.495 127.169,97.495 127.169,98.476 130.468,98.476 130.468,97.495 132.194,97.495 132.194,91.226 133.019,91.226 133.019,88.426 132.194,88.426 132.194,85.196 130.468,85.196 130.468,84.275 127.169,84.275 127.169,85.196 125.444,85.196 125.444,88.426 123.919,88.426 123.919,83.726" style="fill:none;stroke-width:0.050000mm;stroke:black"/>
<polygon points="9.907,83.726 9.907,97.726 23.907,97.726 23.907,83.726" style="fill:none;stroke-width:0.050000mm;stroke:black"/>
<polygon points="33.719,83.726 33.719,97.726 47.719,97.726 47.719,83.726" style="fill:none;stroke-width:0.050000mm;stroke:black"/>
<polygon points="57.532,83.726 57.532,97.726 71.532,97.726 71.532,83.726" style="fill:none;stroke-width:0.050000mm;stroke:black"/>
<polygon points="78.963,83.726 78.963,97.726 92.963,97.726 92.963,83.726" style="fill:none;stroke-width:0.050000mm;stroke:black"/>
<polygon points="19.432,64.676 19.432,69.376 17.907,69.376 17.907,66.146 16.182,66.146 16.182,65.225 12.882,65.225 12.882,66.146 11.157,66.146 11.157,69.376 10.332,69.376 10.332,72.176 11.157,72.176 11.157,78.446 12.882,78.446 12.882,79.426 16.182,79.426 16.182,78.446 17.907,78.446 17.907,73.976 19.432,73.976 19.432,78.676 33.432,78.676 33.432,73.976 34.957,73.976 34.957,78.446 36.682,78.446 36.682,79.426 39.982,79.426 39.982,78.446 41.707,78.446 41.707,72.176 42.532,72.176 42.532,69.376 41.707,69.376 41.707,66.146 39.982,66.146 39.982,65.225 36.682,65.225 36.682,66.146 34.957,66.146 34.957,69.376 33.432,69.376 33.432,64.676" style="fill:none;stroke-width:0.050000mm;stroke:black"/>
<polygon points="50.388,64.676 50.388,78.676 64.388,78.676 64.388,64.676" style="fill:none;stroke-width:0.050000mm;stroke:black"/>
<polygon points="69.438,64.676 69.438,78.676 83.438,78.676 83.438,64.676" style="fill:none;stroke-width:0.050000mm;stroke:black"/>
<polygon points="88.488,64.676 88.488,78.676 102.488,78.676 102.488,64.676" style="fill:none;stroke-width:0.050000mm;stroke:black"/>
<polygon points="107.538,64.676 107.538,78.676 121.538,78.676 121.538,64.676" style="fill:none;stroke-width:0.050000mm;stroke:black"/>
<polygon points="126.588,64.676 126.588,78.676 140.588,78.676 140.588,64.676" style="fill:none;stroke-width:0.050000mm;stroke:black"/>
<polygon points="14.669,45.626 14.669,59.626 28.669,59.626 28.669,45.626" style="fill:none;stroke-width:0.050000mm;stroke:black"/>
<polygon points="40.863,45.626 40.863,59.626 54.863,59.626 54.863,45.626" style="fill:none;stroke-width:0.050000mm;stroke:black"/>
<polygon points="59.913,45.626 59.913,59.626 73.913,59.626 73.913,45.626" style="fill:none;stroke-width:0.050000mm;stroke:black"/>
<polygon points="78.963,45.626 78.963,59.626 92.963,59.626 92.963,45.626" style="fill:none;stroke-width:0.050000mm;stroke:black"/>
<polygon points="98.013,45.626 98.013,59.626 112.013,59.626 112.013,45.626" style="fill:none;stroke-width:0.050000mm;stroke:black"/>
<polygon points="117.063,45.626 117.063,59.626 131.063,59.626 131.063,45.626" style="fill:none;stroke-width:0.050000mm;stroke:black"/>
<polygon points="136.113,45.626 136.113,59.626 150.113,59.626 150.113,45.626" style="fill:none;stroke-width:0.050000mm;stroke:black"/>
<polygon points="12.288,26.576 12.288,40.576 26.288,40.576 26.288,26.576" style="fill:none;stroke-width:0.050000mm;stroke:black"/>
<polygon points="36.101,26.576 36.101,40.576 50.101,40.576 50.101,26.576" style="fill:none;stroke-width:0.050000mm;stroke:black"/>
<polygon points="55.151,26.576 55.151,40.576 69.151,40.576 69.151,26.576" style="fill:none;stroke-width:0.050000mm;stroke:black"/>
<polygon points="74.201,26.576 74.201,40.576 88.201,40.576 88.201,26.576" style="fill:none;stroke-width:0.050000mm;stroke:black"/>
<polygon points="93.251,26.576 93.251,40.576 107.251,40.576 107.251,26.576" style="fill:none;stroke-width:0.050000mm;stroke:black"/>
<polygon points="112.301,26.576 112.301,40.576 126.301,40.576 126.301,26.576" style="fill:none;stroke-width:0.050000mm;stroke:black"/>
<polygon points="131.351,26.576 131.351,40.576 145.351,40.576 145.351,26.576" style="fill:none;stroke-width:0.050000mm;stroke:black"/>
<polygon points="7.526,7.526 7.526,21.526 21.526,21.526 21.526,7.526" style="fill:none;stroke-width:0.050000mm;stroke:black"/>
<polygon points="26.576,7.526 26.576,21.526 40.576,21.526 40.576,7.526" style="fill:none;stroke-width:0.050000mm;stroke:black"/>
<polygon points="45.626,7.526 45.626,21.526 59.626,21.526 59.626,7.526" style="fill:none;stroke-width:0.050000mm;stroke:black"/>
<polygon points="64.676,7.526 64.676,21.526 78.676,21.526 78.676,7.526" style="fill:none;stroke-width:0.050000mm;stroke:black"/>
<polygon points="83.726,7.526 83.726,21.526 97.726,21.526 97.726,7.526" style="fill:none;stroke-width:0.050000mm;stroke:black"/>
<polygon points="102.775,7.526 102.775,21.526 116.775,21.526 116.775,7.526" style="fill:none;stroke-width:0.050000mm;stroke:black"/>
<polygon points="121.825,7.526 121.825,21.526 135.826,21.526 135.826,7.526" style="fill:none;stroke-width:0.050000mm;stroke:black"/>
</svg>