%TF.GenerationSoftware,KiCad,Pcbnew,7.0.9*%
%TF.CreationDate,2024-01-14T19:22:03+01:00*%
%TF.ProjectId,right_plate,72696768-745f-4706-9c61-74652e6b6963,rev?*%
%TF.SameCoordinates,Original*%
%TF.FileFunction,Legend,Bot*%
%TF.FilePolarity,Positive*%
%FSLAX46Y46*%
G04 Gerber Fmt 4.6, Leading zero omitted, Abs format (unit mm)*
G04 Created by KiCad (PCBNEW 7.0.9) date 2024-01-14 19:22:03*
%MOMM*%
%LPD*%
G01*
G04 APERTURE LIST*
%ADD10C,0.150000*%
%ADD11C,4.500000*%
G04 APERTURE END LIST*
D10*
X174874030Y-49208057D02*
X174874030Y-47208057D01*
X174874030Y-47493771D02*
X174731173Y-47350914D01*
X174731173Y-47350914D02*
X174445458Y-47208057D01*
X174445458Y-47208057D02*
X174016887Y-47208057D01*
X174016887Y-47208057D02*
X173731173Y-47350914D01*
X173731173Y-47350914D02*
X173588316Y-47636628D01*
X173588316Y-47636628D02*
X173588316Y-49208057D01*
X173588316Y-47636628D02*
X173445458Y-47350914D01*
X173445458Y-47350914D02*
X173159744Y-47208057D01*
X173159744Y-47208057D02*
X172731173Y-47208057D01*
X172731173Y-47208057D02*
X172445458Y-47350914D01*
X172445458Y-47350914D02*
X172302601Y-47636628D01*
X172302601Y-47636628D02*
X172302601Y-49208057D01*
X169588316Y-49208057D02*
X169588316Y-47636628D01*
X169588316Y-47636628D02*
X169731173Y-47350914D01*
X169731173Y-47350914D02*
X170016887Y-47208057D01*
X170016887Y-47208057D02*
X170588316Y-47208057D01*
X170588316Y-47208057D02*
X170874030Y-47350914D01*
X169588316Y-49065200D02*
X169874030Y-49208057D01*
X169874030Y-49208057D02*
X170588316Y-49208057D01*
X170588316Y-49208057D02*
X170874030Y-49065200D01*
X170874030Y-49065200D02*
X171016887Y-48779485D01*
X171016887Y-48779485D02*
X171016887Y-48493771D01*
X171016887Y-48493771D02*
X170874030Y-48208057D01*
X170874030Y-48208057D02*
X170588316Y-48065200D01*
X170588316Y-48065200D02*
X169874030Y-48065200D01*
X169874030Y-48065200D02*
X169588316Y-47922342D01*
X168445458Y-47208057D02*
X167731172Y-49208057D01*
X167016887Y-47208057D02*
X167731172Y-49208057D01*
X167731172Y-49208057D02*
X168016887Y-49922342D01*
X168016887Y-49922342D02*
X168159744Y-50065200D01*
X168159744Y-50065200D02*
X168445458Y-50208057D01*
X165874030Y-49208057D02*
X165874030Y-46208057D01*
X165588316Y-48065200D02*
X164731173Y-49208057D01*
X164731173Y-47208057D02*
X165874030Y-48350914D01*
X163445459Y-49208057D02*
X163445459Y-46208057D01*
X163445459Y-47350914D02*
X163159745Y-47208057D01*
X163159745Y-47208057D02*
X162588316Y-47208057D01*
X162588316Y-47208057D02*
X162302602Y-47350914D01*
X162302602Y-47350914D02*
X162159745Y-47493771D01*
X162159745Y-47493771D02*
X162016887Y-47779485D01*
X162016887Y-47779485D02*
X162016887Y-48636628D01*
X162016887Y-48636628D02*
X162159745Y-48922342D01*
X162159745Y-48922342D02*
X162302602Y-49065200D01*
X162302602Y-49065200D02*
X162588316Y-49208057D01*
X162588316Y-49208057D02*
X163159745Y-49208057D01*
X163159745Y-49208057D02*
X163445459Y-49065200D01*
X157159745Y-47208057D02*
X157159745Y-49636628D01*
X157159745Y-49636628D02*
X157302602Y-49922342D01*
X157302602Y-49922342D02*
X157445459Y-50065200D01*
X157445459Y-50065200D02*
X157731173Y-50208057D01*
X157731173Y-50208057D02*
X158159745Y-50208057D01*
X158159745Y-50208057D02*
X158445459Y-50065200D01*
X157159745Y-49065200D02*
X157445459Y-49208057D01*
X157445459Y-49208057D02*
X158016887Y-49208057D01*
X158016887Y-49208057D02*
X158302602Y-49065200D01*
X158302602Y-49065200D02*
X158445459Y-48922342D01*
X158445459Y-48922342D02*
X158588316Y-48636628D01*
X158588316Y-48636628D02*
X158588316Y-47779485D01*
X158588316Y-47779485D02*
X158445459Y-47493771D01*
X158445459Y-47493771D02*
X158302602Y-47350914D01*
X158302602Y-47350914D02*
X158016887Y-47208057D01*
X158016887Y-47208057D02*
X157445459Y-47208057D01*
X157445459Y-47208057D02*
X157159745Y-47350914D01*
X154445459Y-47208057D02*
X154445459Y-49208057D01*
X155159744Y-46065200D02*
X155874030Y-48208057D01*
X155874030Y-48208057D02*
X154016887Y-48208057D01*
X128314506Y-47968819D02*
X128314506Y-48683104D01*
X128314506Y-48683104D02*
X128362125Y-48825961D01*
X128362125Y-48825961D02*
X128457363Y-48921200D01*
X128457363Y-48921200D02*
X128600220Y-48968819D01*
X128600220Y-48968819D02*
X128695458Y-48968819D01*
X127362125Y-48968819D02*
X127838315Y-48968819D01*
X127838315Y-48968819D02*
X127838315Y-47968819D01*
X126457363Y-48873580D02*
X126504982Y-48921200D01*
X126504982Y-48921200D02*
X126647839Y-48968819D01*
X126647839Y-48968819D02*
X126743077Y-48968819D01*
X126743077Y-48968819D02*
X126885934Y-48921200D01*
X126885934Y-48921200D02*
X126981172Y-48825961D01*
X126981172Y-48825961D02*
X127028791Y-48730723D01*
X127028791Y-48730723D02*
X127076410Y-48540247D01*
X127076410Y-48540247D02*
X127076410Y-48397390D01*
X127076410Y-48397390D02*
X127028791Y-48206914D01*
X127028791Y-48206914D02*
X126981172Y-48111676D01*
X126981172Y-48111676D02*
X126885934Y-48016438D01*
X126885934Y-48016438D02*
X126743077Y-47968819D01*
X126743077Y-47968819D02*
X126647839Y-47968819D01*
X126647839Y-47968819D02*
X126504982Y-48016438D01*
X126504982Y-48016438D02*
X126457363Y-48064057D01*
X125743077Y-47968819D02*
X125743077Y-48683104D01*
X125743077Y-48683104D02*
X125790696Y-48825961D01*
X125790696Y-48825961D02*
X125885934Y-48921200D01*
X125885934Y-48921200D02*
X126028791Y-48968819D01*
X126028791Y-48968819D02*
X126124029Y-48968819D01*
X124790696Y-48968819D02*
X125266886Y-48968819D01*
X125266886Y-48968819D02*
X125266886Y-47968819D01*
X123885934Y-48873580D02*
X123933553Y-48921200D01*
X123933553Y-48921200D02*
X124076410Y-48968819D01*
X124076410Y-48968819D02*
X124171648Y-48968819D01*
X124171648Y-48968819D02*
X124314505Y-48921200D01*
X124314505Y-48921200D02*
X124409743Y-48825961D01*
X124409743Y-48825961D02*
X124457362Y-48730723D01*
X124457362Y-48730723D02*
X124504981Y-48540247D01*
X124504981Y-48540247D02*
X124504981Y-48397390D01*
X124504981Y-48397390D02*
X124457362Y-48206914D01*
X124457362Y-48206914D02*
X124409743Y-48111676D01*
X124409743Y-48111676D02*
X124314505Y-48016438D01*
X124314505Y-48016438D02*
X124171648Y-47968819D01*
X124171648Y-47968819D02*
X124076410Y-47968819D01*
X124076410Y-47968819D02*
X123933553Y-48016438D01*
X123933553Y-48016438D02*
X123885934Y-48064057D01*
X123171648Y-47968819D02*
X123171648Y-48683104D01*
X123171648Y-48683104D02*
X123219267Y-48825961D01*
X123219267Y-48825961D02*
X123314505Y-48921200D01*
X123314505Y-48921200D02*
X123457362Y-48968819D01*
X123457362Y-48968819D02*
X123552600Y-48968819D01*
X122219267Y-48968819D02*
X122695457Y-48968819D01*
X122695457Y-48968819D02*
X122695457Y-47968819D01*
X121314505Y-48873580D02*
X121362124Y-48921200D01*
X121362124Y-48921200D02*
X121504981Y-48968819D01*
X121504981Y-48968819D02*
X121600219Y-48968819D01*
X121600219Y-48968819D02*
X121743076Y-48921200D01*
X121743076Y-48921200D02*
X121838314Y-48825961D01*
X121838314Y-48825961D02*
X121885933Y-48730723D01*
X121885933Y-48730723D02*
X121933552Y-48540247D01*
X121933552Y-48540247D02*
X121933552Y-48397390D01*
X121933552Y-48397390D02*
X121885933Y-48206914D01*
X121885933Y-48206914D02*
X121838314Y-48111676D01*
X121838314Y-48111676D02*
X121743076Y-48016438D01*
X121743076Y-48016438D02*
X121600219Y-47968819D01*
X121600219Y-47968819D02*
X121504981Y-47968819D01*
X121504981Y-47968819D02*
X121362124Y-48016438D01*
X121362124Y-48016438D02*
X121314505Y-48064057D01*
X120600219Y-47968819D02*
X120600219Y-48683104D01*
X120600219Y-48683104D02*
X120647838Y-48825961D01*
X120647838Y-48825961D02*
X120743076Y-48921200D01*
X120743076Y-48921200D02*
X120885933Y-48968819D01*
X120885933Y-48968819D02*
X120981171Y-48968819D01*
X119647838Y-48968819D02*
X120124028Y-48968819D01*
X120124028Y-48968819D02*
X120124028Y-47968819D01*
X118743076Y-48873580D02*
X118790695Y-48921200D01*
X118790695Y-48921200D02*
X118933552Y-48968819D01*
X118933552Y-48968819D02*
X119028790Y-48968819D01*
X119028790Y-48968819D02*
X119171647Y-48921200D01*
X119171647Y-48921200D02*
X119266885Y-48825961D01*
X119266885Y-48825961D02*
X119314504Y-48730723D01*
X119314504Y-48730723D02*
X119362123Y-48540247D01*
X119362123Y-48540247D02*
X119362123Y-48397390D01*
X119362123Y-48397390D02*
X119314504Y-48206914D01*
X119314504Y-48206914D02*
X119266885Y-48111676D01*
X119266885Y-48111676D02*
X119171647Y-48016438D01*
X119171647Y-48016438D02*
X119028790Y-47968819D01*
X119028790Y-47968819D02*
X118933552Y-47968819D01*
X118933552Y-47968819D02*
X118790695Y-48016438D01*
X118790695Y-48016438D02*
X118743076Y-48064057D01*
%LPC*%
D11*
%TO.C,H10*%
X72050000Y-76000000D03*
%TD*%
%TO.C,H9*%
X214150000Y-77650000D03*
%TD*%
%TO.C,H1*%
X124700000Y-132449999D03*
%TD*%
%TO.C,H2*%
X214300000Y-112800000D03*
%TD*%
%TO.C,H7*%
X231400000Y-152550000D03*
%TD*%
%TO.C,H6*%
X189900000Y-77250000D03*
%TD*%
%TO.C,H5*%
X86300000Y-133199999D03*
%TD*%
%TO.C,H11*%
X173050000Y-112450000D03*
%TD*%
%TO.C,H3*%
X47750000Y-45050000D03*
%TD*%
%TO.C,H8*%
X50950000Y-152750000D03*
%TD*%
%TO.C,H4*%
X166350000Y-125100000D03*
%TD*%
%TO.C,H13*%
X110250000Y-75850000D03*
%TD*%
%TO.C,H12*%
X229800000Y-45050000D03*
%TD*%
%LPD*%
M02*
