%TF.GenerationSoftware,KiCad,Pcbnew,7.0.9*%
%TF.CreationDate,2024-01-14T20:09:13+01:00*%
%TF.ProjectId,right_pcb,72696768-745f-4706-9362-2e6b69636164,rev?*%
%TF.SameCoordinates,Original*%
%TF.FileFunction,Paste,Bot*%
%TF.FilePolarity,Positive*%
%FSLAX46Y46*%
G04 Gerber Fmt 4.6, Leading zero omitted, Abs format (unit mm)*
G04 Created by KiCad (PCBNEW 7.0.9) date 2024-01-14 20:09:13*
%MOMM*%
%LPD*%
G01*
G04 APERTURE LIST*
G04 Aperture macros list*
%AMRoundRect*
0 Rectangle with rounded corners*
0 $1 Rounding radius*
0 $2 $3 $4 $5 $6 $7 $8 $9 X,Y pos of 4 corners*
0 Add a 4 corners polygon primitive as box body*
4,1,4,$2,$3,$4,$5,$6,$7,$8,$9,$2,$3,0*
0 Add four circle primitives for the rounded corners*
1,1,$1+$1,$2,$3*
1,1,$1+$1,$4,$5*
1,1,$1+$1,$6,$7*
1,1,$1+$1,$8,$9*
0 Add four rect primitives between the rounded corners*
20,1,$1+$1,$2,$3,$4,$5,0*
20,1,$1+$1,$4,$5,$6,$7,0*
20,1,$1+$1,$6,$7,$8,$9,0*
20,1,$1+$1,$8,$9,$2,$3,0*%
G04 Aperture macros list end*
%ADD10RoundRect,0.140000X-0.170000X0.140000X-0.170000X-0.140000X0.170000X-0.140000X0.170000X0.140000X0*%
%ADD11RoundRect,0.140000X-0.140000X-0.170000X0.140000X-0.170000X0.140000X0.170000X-0.140000X0.170000X0*%
%ADD12RoundRect,0.125000X0.125000X-0.125000X0.125000X0.125000X-0.125000X0.125000X-0.125000X-0.125000X0*%
%ADD13RoundRect,0.250000X-0.292217X0.292217X-0.292217X-0.292217X0.292217X-0.292217X0.292217X0.292217X0*%
%ADD14RoundRect,0.050000X-0.050000X0.387500X-0.050000X-0.387500X0.050000X-0.387500X0.050000X0.387500X0*%
%ADD15RoundRect,0.050000X-0.387500X0.050000X-0.387500X-0.050000X0.387500X-0.050000X0.387500X0.050000X0*%
%ADD16RoundRect,0.140000X0.170000X-0.140000X0.170000X0.140000X-0.170000X0.140000X-0.170000X-0.140000X0*%
%ADD17RoundRect,0.237500X0.237500X-0.250000X0.237500X0.250000X-0.237500X0.250000X-0.237500X-0.250000X0*%
%ADD18RoundRect,0.150000X-0.150000X0.650000X-0.150000X-0.650000X0.150000X-0.650000X0.150000X0.650000X0*%
%ADD19RoundRect,0.150000X0.150000X-0.512500X0.150000X0.512500X-0.150000X0.512500X-0.150000X-0.512500X0*%
%ADD20RoundRect,0.140000X0.140000X0.170000X-0.140000X0.170000X-0.140000X-0.170000X0.140000X-0.170000X0*%
%ADD21RoundRect,0.200000X-0.200000X-0.275000X0.200000X-0.275000X0.200000X0.275000X-0.200000X0.275000X0*%
%ADD22RoundRect,0.400000X0.750000X0.400000X-0.750000X0.400000X-0.750000X-0.400000X0.750000X-0.400000X0*%
%ADD23RoundRect,0.250000X-0.625000X0.375000X-0.625000X-0.375000X0.625000X-0.375000X0.625000X0.375000X0*%
%ADD24R,1.200000X1.400000*%
%ADD25RoundRect,0.150000X0.587500X0.150000X-0.587500X0.150000X-0.587500X-0.150000X0.587500X-0.150000X0*%
%ADD26RoundRect,0.135000X-0.185000X0.135000X-0.185000X-0.135000X0.185000X-0.135000X0.185000X0.135000X0*%
%ADD27RoundRect,0.135000X0.185000X-0.135000X0.185000X0.135000X-0.185000X0.135000X-0.185000X-0.135000X0*%
%ADD28RoundRect,0.135000X0.135000X0.185000X-0.135000X0.185000X-0.135000X-0.185000X0.135000X-0.185000X0*%
%ADD29RoundRect,0.237500X-0.237500X0.250000X-0.237500X-0.250000X0.237500X-0.250000X0.237500X0.250000X0*%
%ADD30R,1.700000X1.000000*%
%ADD31RoundRect,0.140000X0.021213X-0.219203X0.219203X-0.021213X-0.021213X0.219203X-0.219203X0.021213X0*%
%ADD32R,0.600000X1.450000*%
%ADD33R,0.300000X1.450000*%
%ADD34R,1.000000X1.700000*%
%ADD35RoundRect,0.140000X-0.219203X-0.021213X-0.021213X-0.219203X0.219203X0.021213X0.021213X0.219203X0*%
G04 APERTURE END LIST*
D10*
%TO.C,C17*%
X116432850Y-56627000D03*
X116432850Y-57587000D03*
%TD*%
D11*
%TO.C,C6*%
X139543207Y-54119000D03*
X140503207Y-54119000D03*
%TD*%
D12*
%TO.C,D46*%
X92937500Y-146925000D03*
X92937500Y-144725000D03*
%TD*%
%TO.C,D56*%
X131037500Y-146925000D03*
X131037500Y-144725000D03*
%TD*%
D13*
%TO.C,U3*%
X133072457Y-51068500D03*
X131797457Y-51068500D03*
X133072457Y-52343500D03*
X131797457Y-52343500D03*
D14*
X129834957Y-48268500D03*
X130234957Y-48268500D03*
X130634957Y-48268500D03*
X131034957Y-48268500D03*
X131434957Y-48268500D03*
X131834957Y-48268500D03*
X132234957Y-48268500D03*
X132634957Y-48268500D03*
X133034957Y-48268500D03*
X133434957Y-48268500D03*
X133834957Y-48268500D03*
X134234957Y-48268500D03*
X134634957Y-48268500D03*
X135034957Y-48268500D03*
D15*
X135872457Y-49106000D03*
X135872457Y-49506000D03*
X135872457Y-49906000D03*
X135872457Y-50306000D03*
X135872457Y-50706000D03*
X135872457Y-51106000D03*
X135872457Y-51506000D03*
X135872457Y-51906000D03*
X135872457Y-52306000D03*
X135872457Y-52706000D03*
X135872457Y-53106000D03*
X135872457Y-53506000D03*
X135872457Y-53906000D03*
X135872457Y-54306000D03*
D14*
X135034957Y-55143500D03*
X134634957Y-55143500D03*
X134234957Y-55143500D03*
X133834957Y-55143500D03*
X133434957Y-55143500D03*
X133034957Y-55143500D03*
X132634957Y-55143500D03*
X132234957Y-55143500D03*
X131834957Y-55143500D03*
X131434957Y-55143500D03*
X131034957Y-55143500D03*
X130634957Y-55143500D03*
X130234957Y-55143500D03*
X129834957Y-55143500D03*
D15*
X128997457Y-54306000D03*
X128997457Y-53906000D03*
X128997457Y-53506000D03*
X128997457Y-53106000D03*
X128997457Y-52706000D03*
X128997457Y-52306000D03*
X128997457Y-51906000D03*
X128997457Y-51506000D03*
X128997457Y-51106000D03*
X128997457Y-50706000D03*
X128997457Y-50306000D03*
X128997457Y-49906000D03*
X128997457Y-49506000D03*
X128997457Y-49106000D03*
%TD*%
D16*
%TO.C,C1*%
X116332175Y-50175700D03*
X116332175Y-49215700D03*
%TD*%
D12*
%TO.C,D53*%
X135800000Y-89775000D03*
X135800000Y-87575000D03*
%TD*%
%TO.C,D38*%
X69125000Y-70725000D03*
X69125000Y-68525000D03*
%TD*%
%TO.C,D43*%
X97700000Y-89775000D03*
X97700000Y-87575000D03*
%TD*%
%TO.C,D52*%
X126275000Y-70725000D03*
X126275000Y-68525000D03*
%TD*%
D17*
%TO.C,R9*%
X193512800Y-48144400D03*
X193512800Y-46319400D03*
%TD*%
D16*
%TO.C,C7*%
X115416850Y-57587000D03*
X115416850Y-56627000D03*
%TD*%
D12*
%TO.C,D36*%
X54837500Y-127875000D03*
X54837500Y-125675000D03*
%TD*%
%TO.C,D67*%
X192950000Y-70725000D03*
X192950000Y-68525000D03*
%TD*%
%TO.C,D39*%
X78650000Y-89775000D03*
X78650000Y-87575000D03*
%TD*%
D18*
%TO.C,U1*%
X117982175Y-42618700D03*
X119252175Y-42618700D03*
X120522175Y-42618700D03*
X121792175Y-42618700D03*
X121792175Y-49818700D03*
X120522175Y-49818700D03*
X119252175Y-49818700D03*
X117982175Y-49818700D03*
%TD*%
D10*
%TO.C,C9*%
X128974207Y-57703000D03*
X128974207Y-58663000D03*
%TD*%
D12*
%TO.C,D66*%
X183425000Y-146925000D03*
X183425000Y-144725000D03*
%TD*%
D19*
%TO.C,U2*%
X99976175Y-52576200D03*
X99026175Y-52576200D03*
X98076175Y-52576200D03*
X98076175Y-50301200D03*
X99026175Y-50301200D03*
X99976175Y-50301200D03*
%TD*%
D20*
%TO.C,C8*%
X126675975Y-55487750D03*
X125715975Y-55487750D03*
%TD*%
D16*
%TO.C,C16*%
X109952975Y-57873250D03*
X109952975Y-56913250D03*
%TD*%
D12*
%TO.C,D47*%
X107225000Y-70725000D03*
X107225000Y-68525000D03*
%TD*%
%TO.C,D68*%
X197713000Y-89775000D03*
X197713000Y-87575000D03*
%TD*%
D20*
%TO.C,C3*%
X144074975Y-52693750D03*
X143114975Y-52693750D03*
%TD*%
D21*
%TO.C,R6*%
X119798850Y-54006000D03*
X121448850Y-54006000D03*
%TD*%
D22*
%TO.C,J4*%
X219904400Y-51544800D03*
X219904400Y-45844800D03*
X212604400Y-42844800D03*
X219904400Y-42944800D03*
X212604400Y-52144800D03*
X212604400Y-49944800D03*
%TD*%
D12*
%TO.C,D75*%
X221525000Y-127875000D03*
X221525000Y-125675000D03*
%TD*%
D23*
%TO.C,F1*%
X103522175Y-50238700D03*
X103522175Y-53038700D03*
%TD*%
D12*
%TO.C,D41*%
X73887500Y-127875000D03*
X73887500Y-125675000D03*
%TD*%
%TO.C,D48*%
X116750000Y-89775000D03*
X116750000Y-87575000D03*
%TD*%
D24*
%TO.C,Y1*%
X142729207Y-50520000D03*
X142729207Y-48320000D03*
X144429207Y-48320000D03*
X144429207Y-50520000D03*
%TD*%
D12*
%TO.C,D54*%
X121512500Y-108825000D03*
X121512500Y-106625000D03*
%TD*%
D25*
%TO.C,Q1*%
X197162800Y-45194400D03*
X197162800Y-47094400D03*
X195287800Y-46144400D03*
%TD*%
D12*
%TO.C,D35*%
X45312500Y-108825000D03*
X45312500Y-106625000D03*
%TD*%
%TO.C,D34*%
X59600000Y-89775000D03*
X59600000Y-87575000D03*
%TD*%
%TO.C,D65*%
X176281500Y-127875000D03*
X176281500Y-125675000D03*
%TD*%
%TO.C,D40*%
X64362500Y-108825000D03*
X64362500Y-106625000D03*
%TD*%
%TO.C,D50*%
X111987500Y-127875000D03*
X111987500Y-125675000D03*
%TD*%
%TO.C,D59*%
X140562500Y-108825000D03*
X140562500Y-106625000D03*
%TD*%
D26*
%TO.C,R2*%
X145322175Y-57338700D03*
X145322175Y-58358700D03*
%TD*%
D10*
%TO.C,C14*%
X127450207Y-57703000D03*
X127450207Y-58663000D03*
%TD*%
D11*
%TO.C,C10*%
X139543207Y-52595000D03*
X140503207Y-52595000D03*
%TD*%
D20*
%TO.C,C13*%
X124882207Y-51706000D03*
X123922207Y-51706000D03*
%TD*%
D12*
%TO.C,D37*%
X64362500Y-146925000D03*
X64362500Y-144725000D03*
%TD*%
%TO.C,D49*%
X102462500Y-108825000D03*
X102462500Y-106625000D03*
%TD*%
D27*
%TO.C,R1*%
X116422175Y-43748700D03*
X116422175Y-42728700D03*
%TD*%
D12*
%TO.C,D58*%
X154850000Y-89775000D03*
X154850000Y-87575000D03*
%TD*%
D28*
%TO.C,R7*%
X140533207Y-50563000D03*
X139513207Y-50563000D03*
%TD*%
D26*
%TO.C,R3*%
X96517925Y-49420575D03*
X96517925Y-50440575D03*
%TD*%
D12*
%TO.C,D70*%
X202475000Y-127875000D03*
X202475000Y-125675000D03*
%TD*%
%TO.C,D42*%
X88175000Y-70725000D03*
X88175000Y-68525000D03*
%TD*%
D22*
%TO.C,J3*%
X64734957Y-51556000D03*
X64734957Y-45856000D03*
X57434957Y-42856000D03*
X64734957Y-42956000D03*
X57434957Y-52156000D03*
X57434957Y-49956000D03*
%TD*%
D20*
%TO.C,C15*%
X129215975Y-46470750D03*
X128255975Y-46470750D03*
%TD*%
D11*
%TO.C,C2*%
X143368975Y-45991000D03*
X144328975Y-45991000D03*
%TD*%
D12*
%TO.C,D73*%
X221525000Y-89775000D03*
X221525000Y-87575000D03*
%TD*%
D29*
%TO.C,R8*%
X199162800Y-45231900D03*
X199162800Y-47056900D03*
%TD*%
D12*
%TO.C,D51*%
X111987500Y-146925000D03*
X111987500Y-144725000D03*
%TD*%
D26*
%TO.C,R4*%
X101470925Y-49420575D03*
X101470925Y-50440575D03*
%TD*%
D12*
%TO.C,D60*%
X150087500Y-127875000D03*
X150087500Y-125675000D03*
%TD*%
%TO.C,D44*%
X83412500Y-108825000D03*
X83412500Y-106625000D03*
%TD*%
D21*
%TO.C,R5*%
X119798850Y-52355000D03*
X121448850Y-52355000D03*
%TD*%
D11*
%TO.C,C18*%
X190782800Y-48394400D03*
X191742800Y-48394400D03*
%TD*%
%TO.C,C20*%
X204002800Y-48544400D03*
X204962800Y-48544400D03*
%TD*%
D12*
%TO.C,D71*%
X202475000Y-146925000D03*
X202475000Y-144725000D03*
%TD*%
%TO.C,D55*%
X131037500Y-127875000D03*
X131037500Y-125675000D03*
%TD*%
%TO.C,D45*%
X92937500Y-127875000D03*
X92937500Y-125675000D03*
%TD*%
%TO.C,D72*%
X221525000Y-70725000D03*
X221525000Y-68525000D03*
%TD*%
%TO.C,D33*%
X50075000Y-70725000D03*
X50075000Y-68525000D03*
%TD*%
%TO.C,D61*%
X150087500Y-146925000D03*
X150087500Y-144725000D03*
%TD*%
D11*
%TO.C,C19*%
X197412800Y-48494400D03*
X198372800Y-48494400D03*
%TD*%
D20*
%TO.C,C4*%
X126675975Y-54471750D03*
X125715975Y-54471750D03*
%TD*%
D30*
%TO.C,SW_RESET1*%
X232054400Y-49844800D03*
X225754400Y-49844800D03*
X232054400Y-53644800D03*
X225754400Y-53644800D03*
%TD*%
D12*
%TO.C,D62*%
X164375000Y-70725000D03*
X164375000Y-68525000D03*
%TD*%
%TO.C,D63*%
X173900000Y-89775000D03*
X173900000Y-87575000D03*
%TD*%
D20*
%TO.C,C5*%
X124882207Y-50182000D03*
X123922207Y-50182000D03*
%TD*%
D31*
%TO.C,C12*%
X134238564Y-45794161D03*
X134917386Y-45115339D03*
%TD*%
D32*
%TO.C,J1*%
X95680925Y-47006450D03*
X96480925Y-47006450D03*
D33*
X97680925Y-47006450D03*
X98680925Y-47006450D03*
X99180925Y-47006450D03*
X100180925Y-47006450D03*
D32*
X101380925Y-47006450D03*
X102180925Y-47006450D03*
X102180925Y-47006450D03*
X101380925Y-47006450D03*
D33*
X100680925Y-47006450D03*
X99680925Y-47006450D03*
X98180925Y-47006450D03*
X97180925Y-47006450D03*
D32*
X96480925Y-47006450D03*
X95680925Y-47006450D03*
%TD*%
D34*
%TO.C,SW_BOOT1*%
X110822175Y-42988700D03*
X110822175Y-49288700D03*
X114622175Y-42988700D03*
X114622175Y-49288700D03*
%TD*%
D12*
%TO.C,D57*%
X145325000Y-70725000D03*
X145325000Y-68525000D03*
%TD*%
D25*
%TO.C,U4*%
X113684475Y-55681250D03*
X113684475Y-57581250D03*
X111809475Y-56631250D03*
%TD*%
D12*
%TO.C,D64*%
X159612500Y-108825000D03*
X159612500Y-106625000D03*
%TD*%
D35*
%TO.C,C11*%
X135016439Y-58672589D03*
X135695261Y-59351411D03*
%TD*%
D12*
%TO.C,D76*%
X221525000Y-146925000D03*
X221525000Y-144725000D03*
%TD*%
%TO.C,D74*%
X221525000Y-108825000D03*
X221525000Y-106625000D03*
%TD*%
%TO.C,D69*%
X190643099Y-108825000D03*
X190643099Y-106625000D03*
%TD*%
M02*
