%TF.GenerationSoftware,KiCad,Pcbnew,7.0.9*%
%TF.CreationDate,2024-01-14T20:09:13+01:00*%
%TF.ProjectId,right_pcb,72696768-745f-4706-9362-2e6b69636164,rev?*%
%TF.SameCoordinates,Original*%
%TF.FileFunction,Soldermask,Top*%
%TF.FilePolarity,Negative*%
%FSLAX46Y46*%
G04 Gerber Fmt 4.6, Leading zero omitted, Abs format (unit mm)*
G04 Created by KiCad (PCBNEW 7.0.9) date 2024-01-14 20:09:13*
%MOMM*%
%LPD*%
G01*
G04 APERTURE LIST*
%ADD10R,0.900000X1.500000*%
%ADD11C,1.700000*%
%ADD12C,4.000000*%
%ADD13C,2.200000*%
%ADD14C,3.050000*%
%ADD15R,1.700000X1.700000*%
%ADD16O,1.700000X1.700000*%
%ADD17C,1.300000*%
%ADD18C,0.650000*%
%ADD19O,1.000000X1.600000*%
%ADD20O,1.000000X2.100000*%
G04 APERTURE END LIST*
D10*
%TO.C,LED3*%
X204012800Y-50444400D03*
X207312800Y-50444400D03*
X207312800Y-45544400D03*
X204012800Y-45544400D03*
%TD*%
D11*
%TO.C,SW49*%
X100342500Y-103760000D03*
D12*
X105422500Y-103760000D03*
D11*
X110502500Y-103760000D03*
D13*
X107962500Y-98680000D03*
X101612500Y-101220000D03*
%TD*%
D11*
%TO.C,SW48*%
X114630000Y-84710000D03*
D12*
X119710000Y-84710000D03*
D11*
X124790000Y-84710000D03*
D13*
X122250000Y-79630000D03*
X115900000Y-82170000D03*
%TD*%
D11*
%TO.C,SW55*%
X128917500Y-122810000D03*
D12*
X133997500Y-122810000D03*
D11*
X139077500Y-122810000D03*
D13*
X136537500Y-117730000D03*
X130187500Y-120270000D03*
%TD*%
%TO.C,REF\u002A\u002A*%
X124700000Y-132450000D03*
%TD*%
D11*
%TO.C,SW70*%
X200355000Y-122810000D03*
D12*
X205435000Y-122810000D03*
D11*
X210515000Y-122810000D03*
D13*
X207975000Y-117730000D03*
X201625000Y-120270000D03*
%TD*%
D11*
%TO.C,SW75*%
X219405000Y-122810000D03*
D12*
X224485000Y-122810000D03*
D11*
X229565000Y-122810000D03*
D13*
X227025000Y-117730000D03*
X220675000Y-120270000D03*
%TD*%
D11*
%TO.C,SW54*%
X119392500Y-103760000D03*
D12*
X124472500Y-103760000D03*
D11*
X129552500Y-103760000D03*
D13*
X127012500Y-98680000D03*
X120662500Y-101220000D03*
%TD*%
%TO.C,REF\u002A\u002A*%
X214300000Y-112800000D03*
%TD*%
D11*
%TO.C,SW39*%
X76530000Y-84710000D03*
D12*
X81610000Y-84710000D03*
D11*
X86690000Y-84710000D03*
D13*
X84150000Y-79630000D03*
X77800000Y-82170000D03*
%TD*%
%TO.C,REF\u002A\u002A*%
X47750000Y-45050000D03*
%TD*%
D11*
%TO.C,SW57*%
X143205000Y-65660000D03*
D12*
X148285000Y-65660000D03*
D11*
X153365000Y-65660000D03*
D13*
X150825000Y-60580000D03*
X144475000Y-63120000D03*
%TD*%
D11*
%TO.C,SW74*%
X219405000Y-103760000D03*
D12*
X224485000Y-103760000D03*
D11*
X229565000Y-103760000D03*
D13*
X227025000Y-98680000D03*
X220675000Y-101220000D03*
%TD*%
D11*
%TO.C,SW76*%
X219405000Y-141860000D03*
D12*
X224485000Y-141860000D03*
D11*
X229565000Y-141860000D03*
D13*
X227025000Y-136780000D03*
X220675000Y-139320000D03*
%TD*%
D11*
%TO.C,SW47*%
X105105000Y-65660000D03*
D12*
X110185000Y-65660000D03*
D11*
X115265000Y-65660000D03*
D13*
X112725000Y-60580000D03*
X106375000Y-63120000D03*
%TD*%
D11*
%TO.C,SW62*%
X162255000Y-65660000D03*
D12*
X167335000Y-65660000D03*
D11*
X172415000Y-65660000D03*
D13*
X169875000Y-60580000D03*
X163525000Y-63120000D03*
%TD*%
D11*
%TO.C,SW66*%
X181305000Y-141860000D03*
D12*
X186385000Y-141860000D03*
D11*
X191465000Y-141860000D03*
D13*
X188925000Y-136780000D03*
X182575000Y-139320000D03*
%TD*%
D10*
%TO.C,LED1*%
X190772800Y-50444400D03*
X194072800Y-50444400D03*
X194072800Y-45544400D03*
X190772800Y-45544400D03*
%TD*%
D11*
%TO.C,SW33*%
X47955000Y-65660000D03*
D12*
X53035000Y-65660000D03*
D11*
X58115000Y-65660000D03*
D13*
X55575000Y-60580000D03*
X49225000Y-63120000D03*
%TD*%
D11*
%TO.C,SW50*%
X109867500Y-122810000D03*
D12*
X114947500Y-122810000D03*
D11*
X120027500Y-122810000D03*
D13*
X117487500Y-117730000D03*
X111137500Y-120270000D03*
%TD*%
D11*
%TO.C,SW35*%
X43192500Y-103760000D03*
D12*
X48272500Y-103760000D03*
D11*
X53352500Y-103760000D03*
D13*
X50812500Y-98680000D03*
X44462500Y-101220000D03*
%TD*%
%TO.C,REF\u002A\u002A*%
X166350000Y-125100000D03*
%TD*%
%TO.C,REF\u002A\u002A*%
X86300000Y-133200000D03*
%TD*%
D11*
%TO.C,SW45*%
X90817500Y-122810000D03*
D12*
X95897500Y-122810000D03*
D11*
X100977500Y-122810000D03*
D13*
X98437500Y-117730000D03*
X92087500Y-120270000D03*
%TD*%
D11*
%TO.C,SW73*%
X219405000Y-84710000D03*
D12*
X224485000Y-84710000D03*
D11*
X229565000Y-84710000D03*
D13*
X227025000Y-79630000D03*
X220675000Y-82170000D03*
%TD*%
D11*
%TO.C,SW59*%
X138442500Y-103760000D03*
D12*
X143522500Y-103760000D03*
D11*
X148602500Y-103760000D03*
D13*
X146062500Y-98680000D03*
X139712500Y-101220000D03*
%TD*%
D11*
%TO.C,SW42*%
X86055000Y-65660000D03*
D12*
X91135000Y-65660000D03*
D11*
X96215000Y-65660000D03*
D13*
X93675000Y-60580000D03*
X87325000Y-63120000D03*
%TD*%
D14*
%TO.C,SW69*%
X181703099Y-96760000D03*
D12*
X181703099Y-112000000D03*
D11*
X188523099Y-103760000D03*
D12*
X193603099Y-103760000D03*
D11*
X198683099Y-103760000D03*
D14*
X205503099Y-96760000D03*
D12*
X205503099Y-112000000D03*
D13*
X196143099Y-98680000D03*
X189793099Y-101220000D03*
%TD*%
D11*
%TO.C,SW34*%
X57480000Y-84710000D03*
D12*
X62560000Y-84710000D03*
D11*
X67640000Y-84710000D03*
D13*
X65100000Y-79630000D03*
X58750000Y-82170000D03*
%TD*%
D11*
%TO.C,SW63*%
X171780000Y-84710000D03*
D12*
X176860000Y-84710000D03*
D11*
X181940000Y-84710000D03*
D13*
X179400000Y-79630000D03*
X173050000Y-82170000D03*
%TD*%
D11*
%TO.C,SW58*%
X152730000Y-84710000D03*
D12*
X157810000Y-84710000D03*
D11*
X162890000Y-84710000D03*
D13*
X160350000Y-79630000D03*
X154000000Y-82170000D03*
%TD*%
%TO.C,REF\u002A\u002A*%
X189900000Y-77250000D03*
%TD*%
D11*
%TO.C,SW61*%
X147967500Y-141860000D03*
D12*
X153047500Y-141860000D03*
D11*
X158127500Y-141860000D03*
D13*
X155587500Y-136780000D03*
X149237500Y-139320000D03*
%TD*%
D11*
%TO.C,SW41*%
X71767500Y-122810000D03*
D12*
X76847500Y-122810000D03*
D11*
X81927500Y-122810000D03*
D13*
X79387500Y-117730000D03*
X73037500Y-120270000D03*
%TD*%
D11*
%TO.C,SW43*%
X95580000Y-84710000D03*
D12*
X100660000Y-84710000D03*
D11*
X105740000Y-84710000D03*
D13*
X103200000Y-79630000D03*
X96850000Y-82170000D03*
%TD*%
D15*
%TO.C,J2*%
X148822175Y-53176000D03*
D16*
X148822175Y-50636000D03*
X148822175Y-48096000D03*
X148822175Y-45556000D03*
X148822175Y-43016000D03*
%TD*%
D11*
%TO.C,SW51*%
X109867500Y-141860000D03*
D12*
X114947500Y-141860000D03*
D11*
X120027500Y-141860000D03*
D13*
X117487500Y-136780000D03*
X111137500Y-139320000D03*
%TD*%
%TO.C,REF\u002A\u002A*%
X231400000Y-152550000D03*
%TD*%
D11*
%TO.C,SW64*%
X157492500Y-103760000D03*
D12*
X162572500Y-103760000D03*
D11*
X167652500Y-103760000D03*
D13*
X165112500Y-98680000D03*
X158762500Y-101220000D03*
%TD*%
D14*
%TO.C,SW67*%
X184010000Y-58660000D03*
D12*
X184010000Y-73900000D03*
D11*
X190830000Y-65660000D03*
D12*
X195910000Y-65660000D03*
D11*
X200990000Y-65660000D03*
D14*
X207810000Y-58660000D03*
D12*
X207810000Y-73900000D03*
D13*
X198450000Y-60580000D03*
X192100000Y-63120000D03*
%TD*%
D11*
%TO.C,SW38*%
X67005000Y-65660000D03*
D12*
X72085000Y-65660000D03*
D11*
X77165000Y-65660000D03*
D13*
X74625000Y-60580000D03*
X68275000Y-63120000D03*
%TD*%
%TO.C,REF\u002A\u002A*%
X50950000Y-152750000D03*
%TD*%
D11*
%TO.C,SW60*%
X147967500Y-122810000D03*
D12*
X153047500Y-122810000D03*
D11*
X158127500Y-122810000D03*
D13*
X155587500Y-117730000D03*
X149237500Y-120270000D03*
%TD*%
D14*
%TO.C,SW37*%
X55422500Y-134860000D03*
D12*
X55422500Y-150100000D03*
D11*
X62242500Y-141860000D03*
D12*
X67322500Y-141860000D03*
D11*
X72402500Y-141860000D03*
D14*
X79222500Y-134860000D03*
D12*
X79222500Y-150100000D03*
D13*
X69862500Y-136780000D03*
X63512500Y-139320000D03*
%TD*%
D11*
%TO.C,SW44*%
X81292500Y-103760000D03*
D12*
X86372500Y-103760000D03*
D11*
X91452500Y-103760000D03*
D13*
X88912500Y-98680000D03*
X82562500Y-101220000D03*
%TD*%
D11*
%TO.C,SW36*%
X52717500Y-122810000D03*
D12*
X57797500Y-122810000D03*
D11*
X62877500Y-122810000D03*
D13*
X60337500Y-117730000D03*
X53987500Y-120270000D03*
%TD*%
D11*
%TO.C,SW40*%
X62242500Y-103760000D03*
D12*
X67322500Y-103760000D03*
D11*
X72402500Y-103760000D03*
D13*
X69862500Y-98680000D03*
X63512500Y-101220000D03*
%TD*%
D10*
%TO.C,LED2*%
X197392800Y-50444400D03*
X200692800Y-50444400D03*
X200692800Y-45544400D03*
X197392800Y-45544400D03*
%TD*%
D11*
%TO.C,SW53*%
X133680000Y-84710000D03*
D12*
X138760000Y-84710000D03*
D11*
X143840000Y-84710000D03*
D13*
X141300000Y-79630000D03*
X134950000Y-82170000D03*
%TD*%
D11*
%TO.C,SW52*%
X124155000Y-65660000D03*
D12*
X129235000Y-65660000D03*
D11*
X134315000Y-65660000D03*
D13*
X131775000Y-60580000D03*
X125425000Y-63120000D03*
%TD*%
D11*
%TO.C,SW46*%
X90817500Y-141860000D03*
D12*
X95897500Y-141860000D03*
D11*
X100977500Y-141860000D03*
D13*
X98437500Y-136780000D03*
X92087500Y-139320000D03*
%TD*%
%TO.C,REF\u002A\u002A*%
X214150000Y-77650000D03*
%TD*%
D11*
%TO.C,SW72*%
X219405000Y-65660000D03*
D12*
X224485000Y-65660000D03*
D11*
X229565000Y-65660000D03*
D13*
X227025000Y-60580000D03*
X220675000Y-63120000D03*
%TD*%
%TO.C,REF\u002A\u002A*%
X72050000Y-76000000D03*
%TD*%
%TO.C,REF\u002A\u002A*%
X173050000Y-112450000D03*
%TD*%
D11*
%TO.C,SW68*%
X195593000Y-84710000D03*
D12*
X200673000Y-84710000D03*
D11*
X205753000Y-84710000D03*
D13*
X203213000Y-79630000D03*
X196863000Y-82170000D03*
%TD*%
%TO.C,REF\u002A\u002A*%
X229800000Y-45050000D03*
%TD*%
D11*
%TO.C,SW65*%
X174161500Y-122810000D03*
D12*
X179241500Y-122810000D03*
D11*
X184321500Y-122810000D03*
D13*
X181781500Y-117730000D03*
X175431500Y-120270000D03*
%TD*%
D11*
%TO.C,SW71*%
X200355000Y-141860000D03*
D12*
X205435000Y-141860000D03*
D11*
X210515000Y-141860000D03*
D13*
X207975000Y-136780000D03*
X201625000Y-139320000D03*
%TD*%
D11*
%TO.C,SW56*%
X128917500Y-141860000D03*
D12*
X133997500Y-141860000D03*
D11*
X139077500Y-141860000D03*
D13*
X136537500Y-136780000D03*
X130187500Y-139320000D03*
%TD*%
%TO.C,REF\u002A\u002A*%
X110250000Y-75850000D03*
%TD*%
D17*
%TO.C,J4*%
X216254400Y-49944800D03*
X216254400Y-42944800D03*
%TD*%
%TO.C,J3*%
X61084957Y-49956000D03*
X61084957Y-42956000D03*
%TD*%
D18*
%TO.C,J1*%
X96040925Y-45561450D03*
X101820925Y-45561450D03*
D19*
X94610925Y-41911450D03*
D20*
X94610925Y-46091450D03*
D19*
X103250925Y-41911450D03*
D20*
X103250925Y-46091450D03*
%TD*%
M02*
