M48
; DRILL file {KiCad 7.0.9} date Sun Jan 14 20:09:13 2024
; FORMAT={-:-/ absolute / inch / decimal}
; #@! TF.CreationDate,2024-01-14T20:09:13+01:00
; #@! TF.GenerationSoftware,Kicad,Pcbnew,7.0.9
; #@! TF.FileFunction,Plated,1,2,PTH
FMAT,2
INCH
; #@! TA.AperFunction,Plated,PTH,ViaDrill
T1C0.0118
; #@! TA.AperFunction,Plated,PTH,ViaDrill
T2C0.0138
; #@! TA.AperFunction,Plated,PTH,ComponentDrill
T3C0.0138
; #@! TA.AperFunction,Plated,PTH,ViaDrill
T4C0.0157
; #@! TA.AperFunction,Plated,PTH,ComponentDrill
T5C0.0236
; #@! TA.AperFunction,Plated,PTH,ComponentDrill
T6C0.0394
; #@! TA.AperFunction,Plated,PTH,ComponentDrill
T7C0.0591
%
G90
G05
T1
X2.2967Y-1.7542
X2.336Y-2.0947
X2.6175Y-1.7581
X3.0801Y-1.955
X3.6637Y-1.9101
X3.7573Y-1.9845
X3.7961Y-2.0527
X3.9969Y-2.0842
X4.1137Y-1.9201
X4.2883Y-2.2417
X4.3283Y-2.3246
X4.344Y-2.0033
X4.344Y-2.0983
X4.5801Y-1.8979
X4.584Y-2.1883
X4.642Y-2.316
X4.6733Y-1.8885
X4.8198Y-1.7417
X4.834Y-2.0483
X4.834Y-2.1233
X4.9108Y-2.1439
X4.9133Y-2.1846
X4.9533Y-2.0446
X4.9727Y-2.0107
X4.9733Y-2.3096
X5.1057Y-1.6814
X5.1392Y-1.6794
X5.3383Y-1.7496
X5.4583Y-2.0496
X5.4933Y-2.1646
X5.5604Y-1.9215
X5.5683Y-2.0996
X5.6083Y-1.8107
X5.678Y-2.2574
X5.7133Y-2.0746
X5.9187Y-1.892
X7.5123Y-1.9368
X7.5635Y-1.799
X7.7741Y-1.9407
X8.034Y-1.9407
T2
X5.1298Y-2.0646
X5.2966Y-2.0596
T3
X5.1638Y-1.9855
X5.1638Y-2.0357
X5.1638Y-2.0859
X5.214Y-1.9855
X5.214Y-2.0357
X5.214Y-2.0859
X5.2642Y-1.9855
X5.2642Y-2.0357
X5.2642Y-2.0859
T4
X3.676Y-1.652
X3.776Y-1.65
X3.9799Y-2.0258
X4.008Y-1.65
X4.1179Y-1.6501
X4.65Y-2.034
X4.658Y-2.158
X5.1864Y-1.8565
X5.344Y-4.2844
X5.366Y-2.36
X5.4013Y-2.3967
X5.404Y-2.7844
X5.4407Y-2.3959
X5.48Y-2.396
X5.5193Y-2.3937
X5.5587Y-2.394
X5.578Y-3.5344
X5.594Y-5.0344
X5.662Y-5.7844
X8.262Y-2.066
T6
X5.8591Y-1.6935
X5.8591Y-1.7935
X5.8591Y-1.8935
X5.8591Y-1.9935
X5.8591Y-2.0935
T7
X1.7505Y-3.985
X1.938Y-2.485
X2.0005Y-3.885
X2.1255Y-4.735
X2.188Y-2.385
X2.313Y-3.235
X2.3755Y-4.635
X2.5005Y-3.985
X2.5005Y-5.485
X2.563Y-3.135
X2.688Y-2.485
X2.7505Y-3.885
X2.7505Y-5.385
X2.8755Y-4.735
X2.938Y-2.385
X3.063Y-3.235
X3.1255Y-4.635
X3.2505Y-3.985
X3.313Y-3.135
X3.438Y-2.485
X3.5005Y-3.885
X3.6255Y-4.735
X3.6255Y-5.485
X3.688Y-2.385
X3.813Y-3.235
X3.8755Y-4.635
X3.8755Y-5.385
X4.0005Y-3.985
X4.063Y-3.135
X4.188Y-2.485
X4.2505Y-3.885
X4.3755Y-4.735
X4.3755Y-5.485
X4.438Y-2.385
X4.563Y-3.235
X4.6255Y-4.635
X4.6255Y-5.385
X4.7505Y-3.985
X4.813Y-3.135
X4.938Y-2.485
X5.0005Y-3.885
X5.1255Y-4.735
X5.1255Y-5.485
X5.188Y-2.385
X5.313Y-3.235
X5.3755Y-4.635
X5.3755Y-5.385
X5.5005Y-3.985
X5.563Y-3.135
X5.688Y-2.485
X5.7505Y-3.885
X5.8755Y-4.735
X5.8755Y-5.485
X5.938Y-2.385
X6.063Y-3.235
X6.1255Y-4.635
X6.1255Y-5.385
X6.2505Y-3.985
X6.313Y-3.135
X6.438Y-2.485
X6.5005Y-3.885
X6.688Y-2.385
X6.813Y-3.235
X6.9068Y-4.735
X7.063Y-3.135
X7.1568Y-4.635
X7.188Y-5.485
X7.438Y-5.385
X7.4722Y-3.985
X7.563Y-2.485
X7.7222Y-3.885
X7.7505Y-3.235
X7.813Y-2.385
X7.938Y-4.735
X7.938Y-5.485
X8.0005Y-3.135
X8.188Y-4.635
X8.188Y-5.385
X8.688Y-2.485
X8.688Y-3.235
X8.688Y-3.985
X8.688Y-4.735
X8.688Y-5.485
X8.938Y-2.385
X8.938Y-3.135
X8.938Y-3.885
X8.938Y-4.635
X8.938Y-5.385
T5
G00X3.7248Y-1.6382
M15
G01X3.7248Y-1.6619
M16
G05
G00X3.7248Y-1.793
M15
G01X3.7248Y-1.8363
M16
G05
G00X4.065Y-1.6382
M15
G01X4.065Y-1.6619
M16
G05
G00X4.065Y-1.793
M15
G01X4.065Y-1.8363
M16
G05
T0
M30
