M48
; DRILL file {KiCad 7.0.9} date Sun Jan 14 20:09:13 2024
; FORMAT={-:-/ absolute / inch / decimal}
; #@! TF.CreationDate,2024-01-14T20:09:13+01:00
; #@! TF.GenerationSoftware,Kicad,Pcbnew,7.0.9
; #@! TF.FileFunction,NonPlated,1,2,NPTH
FMAT,2
INCH
; #@! TA.AperFunction,NonPlated,NPTH,ComponentDrill
T1C0.0256
; #@! TA.AperFunction,NonPlated,NPTH,ComponentDrill
T2C0.0512
; #@! TA.AperFunction,NonPlated,NPTH,ComponentDrill
T3C0.0669
; #@! TA.AperFunction,NonPlated,NPTH,ComponentDrill
T4C0.0866
; #@! TA.AperFunction,NonPlated,NPTH,ComponentDrill
T5C0.1201
; #@! TA.AperFunction,NonPlated,NPTH,ComponentDrill
T6C0.1575
%
G90
G05
T1
X3.7811Y-1.7938
X4.0087Y-1.7938
T2
X2.4049Y-1.6912
X2.4049Y-1.9668
X8.514Y-1.6907
X8.514Y-1.9663
T3
X1.7005Y-4.085
X1.888Y-2.585
X2.0755Y-4.835
X2.1005Y-4.085
X2.263Y-3.335
X2.288Y-2.585
X2.4505Y-4.085
X2.4505Y-5.585
X2.4755Y-4.835
X2.638Y-2.585
X2.663Y-3.335
X2.8255Y-4.835
X2.8505Y-4.085
X2.8505Y-5.585
X3.013Y-3.335
X3.038Y-2.585
X3.2005Y-4.085
X3.2255Y-4.835
X3.388Y-2.585
X3.413Y-3.335
X3.5755Y-4.835
X3.5755Y-5.585
X3.6005Y-4.085
X3.763Y-3.335
X3.788Y-2.585
X3.9505Y-4.085
X3.9755Y-4.835
X3.9755Y-5.585
X4.138Y-2.585
X4.163Y-3.335
X4.3255Y-4.835
X4.3255Y-5.585
X4.3505Y-4.085
X4.513Y-3.335
X4.538Y-2.585
X4.7005Y-4.085
X4.7255Y-4.835
X4.7255Y-5.585
X4.888Y-2.585
X4.913Y-3.335
X5.0755Y-4.835
X5.0755Y-5.585
X5.1005Y-4.085
X5.263Y-3.335
X5.288Y-2.585
X5.4505Y-4.085
X5.4755Y-4.835
X5.4755Y-5.585
X5.638Y-2.585
X5.663Y-3.335
X5.8255Y-4.835
X5.8255Y-5.585
X5.8505Y-4.085
X6.013Y-3.335
X6.038Y-2.585
X6.2005Y-4.085
X6.2255Y-4.835
X6.2255Y-5.585
X6.388Y-2.585
X6.413Y-3.335
X6.6005Y-4.085
X6.763Y-3.335
X6.788Y-2.585
X6.8568Y-4.835
X7.138Y-5.585
X7.163Y-3.335
X7.2568Y-4.835
X7.4222Y-4.085
X7.513Y-2.585
X7.538Y-5.585
X7.7005Y-3.335
X7.8222Y-4.085
X7.888Y-4.835
X7.888Y-5.585
X7.913Y-2.585
X8.1005Y-3.335
X8.288Y-4.835
X8.288Y-5.585
X8.638Y-2.585
X8.638Y-3.335
X8.638Y-4.085
X8.638Y-4.835
X8.638Y-5.585
X9.038Y-2.585
X9.038Y-3.335
X9.038Y-4.085
X9.038Y-4.835
X9.038Y-5.585
T4
X1.8799Y-1.7736
X2.0059Y-6.0138
X2.8366Y-2.9921
X3.3976Y-5.2441
X4.3406Y-2.9862
X4.9094Y-5.2146
X6.5492Y-4.9252
X6.813Y-4.4272
X7.4764Y-3.0413
X8.4311Y-3.0571
X8.437Y-4.4409
X9.0472Y-1.7736
X9.1102Y-6.0059
T5
X2.182Y-5.3094
X3.119Y-5.3094
X7.1537Y-3.8094
X7.2445Y-2.3094
X8.0907Y-3.8094
X8.1815Y-2.3094
T6
X1.9005Y-4.085
X2.088Y-2.585
X2.182Y-5.9094
X2.2755Y-4.835
X2.463Y-3.335
X2.6505Y-4.085
X2.6505Y-5.585
X2.838Y-2.585
X3.0255Y-4.835
X3.119Y-5.9094
X3.213Y-3.335
X3.4005Y-4.085
X3.588Y-2.585
X3.7755Y-4.835
X3.7755Y-5.585
X3.963Y-3.335
X4.1505Y-4.085
X4.338Y-2.585
X4.5255Y-4.835
X4.5255Y-5.585
X4.713Y-3.335
X4.9005Y-4.085
X5.088Y-2.585
X5.2755Y-4.835
X5.2755Y-5.585
X5.463Y-3.335
X5.6505Y-4.085
X5.838Y-2.585
X6.0255Y-4.835
X6.0255Y-5.585
X6.213Y-3.335
X6.4005Y-4.085
X6.588Y-2.585
X6.963Y-3.335
X7.0568Y-4.835
X7.1537Y-4.4094
X7.2445Y-2.9094
X7.338Y-5.585
X7.6222Y-4.085
X7.713Y-2.585
X7.9005Y-3.335
X8.088Y-4.835
X8.088Y-5.585
X8.0907Y-4.4094
X8.1815Y-2.9094
X8.838Y-2.585
X8.838Y-3.335
X8.838Y-4.085
X8.838Y-4.835
X8.838Y-5.585
T0
M30
